<?xml version='1.0' encoding='utf-8'?>
<svg xmlns="http://www.w3.org/2000/svg" width="1323.2mm" height="1819.2mm" version="1.1" viewBox="0 0 1323.2 1819.2"> <g transform="translate(1542 1152.6)"> <g transform="translate(-3286.9 -248.54)"> <path d="m1744.9-904.06h1323.2v1819.2h-1323.2z" fill="#1a1a1a" stroke-width="1.4212"/> <path d="m1930.4-762.77c-7.1874-2.4261-11.502-6.1215-16.783-14.375-5.1735-8.0842-5.2085-13.593-0.1542-24.189 5.0952-10.681 13.279-18.32 22.944-21.414 4.5853-1.4678 12.089-4.2937 16.674-6.2786 11.456-4.9603 23.663-5.1592 32.646-0.533 17.352 8.9369 19.51 27.043 5.1709 43.378-6.2373 7.1049-21.585 17.623-31.012 21.253-9.3929 3.6166-22.354 4.5655-29.485 2.1587z" fill="#7a2b4b" stroke-width="1.3012"/> <path d="m2896.3-411.63c-10.139-4.7067-25.062-30.02-30.325-51.439-3.4435-14.014-2.7461-29.11 1.8186-39.368 3.2815-7.3727 13.024-16.514 20.891-19.6 6.2564-2.4545 14.211-0.4888 20.077 4.9676 10.274 9.5529 14.938 24.224 16.044 50.478 1.1501 27.286-3.2498 46.07-12.426 53.048-4.3524 3.3097-11.292 4.1354-16.08 1.9123z" fill="#7a2b4b" stroke-width="1.3012"/> <path d="m1858 43.878c-2.7106-1.8756-5.8773-6.1422-8.3767-11.287-4.1893-8.6217-6.0565-17.069-10.845-49.058-2.5388-16.961-2.6915-20.342-1.3407-29.7 1.9117-13.246 7.3412-25.553 13.156-29.822 3.4839-2.5575 5.7517-3.1351 11.596-2.954 4.3054 0.1347 8.6024 1.1274 10.549 2.4401 13.24 8.9284 20.572 68.698 12.229 99.685-3.1731 11.784-6.5826 17.833-11.951 21.202-5.2747 3.3102-9.716 3.1603-15.016-0.5063z" fill="#7a2b4b" stroke-width="1.3012"/> <path d="m2912.3 326.79c-6.2365-1.9453-9.887-5.465-12.79-12.331-5.8985-13.954-2.8395-40.972 7.4238-65.569 15.926-38.167 33.6-55.324 47.984-46.58 2.2218 1.3511 5.2 5.2813 7.218 9.5261 11.29 23.748-0.9758 79.843-23.28 106.47-7.3052 8.7216-16.433 11.636-26.556 8.4792z" fill="#7a2b4b" stroke-width="1.3012"/> <g transform="translate(-2978.1 -2165.9)" fill="#fca3c4" stroke-width="1.3012"> <path d="m4811.8 1373.8c-18.189-8.1087-20.695-29.339-4.4893-38.041 4.3729-2.3479 7.2141-2.7285 19.24-2.5769 29.796 0.3742 62.207 12.3 62.207 22.886 0 8.2959-8.1528 14.716-22.724 17.893-12.246 2.6707-48.12 2.5638-54.234-0.1596z"/> <path d="m4807.3 1458.9c-8.6387-6.9932-11.14-25.171-5.163-37.516 4.6392-9.5809 16.055-20.7 26.829-26.132 10.195-5.1402 19.479-7.8162 35.078-10.113 9.3065-1.3698 10.968-1.2966 13.788 0.6047 4.8102 3.2441 4.2417 9.59-2.0718 23.126-4.744 10.17-6.9628 13.016-21.913 28.099-11.99 12.097-18.81 17.902-24.427 20.79-9.547 4.9096-16.991 5.2938-22.12 1.141z"/> <path d="m5319.7 1516c-14.244-3.2349-31.777-10.069-57.077-22.247-11.287-5.4325-31.777-15.176-45.533-21.651-35.05-16.499-42.941-20.876-64.57-35.818-11.085-7.6572-28.216-17.829-41.013-24.351-12.087-6.1599-28.051-14.814-35.475-19.231-13.913-8.2767-38.897-20.928-59.42-30.089-14.626-6.5287-18.85-10.42-18.85-17.363 0-6.1848 4.5177-11.522 9.882-11.676 22.164-0.6327 55.463 0.6855 72.206 2.8588 10.934 1.4192 33.733 3.144 50.664 3.8329 37.27 1.5157 45.762 2.1574 70.544 5.3294 41.418 5.3014 50.009 5.6491 95.555 3.8641 47.155-1.848 66.962-0.8908 86.577 4.1847 34.397 8.9003 51.946 30.494 51.946 63.92 0 14.484-3.669 28.414-11.575 43.947-14.073 27.648-34.081 45.831-58.972 53.589-11.051 3.4449-31.85 3.8618-44.89 0.9004z"/> <path d="m5255.9 1671c-28.604-8.2587-55.068-33-94.258-88.124-29.68-41.747-43.969-56.098-69.368-69.667-36.33-19.409-45.432-29.557-67.022-74.734-10.658-22.301-11.17-23.087-19.548-30.009-11.016-9.1015-13.775-12.235-16.342-18.556-2.775-6.8354-1.5834-12.871 3.3917-17.18 4.9878-4.3191 8.2909-5.1268 18.293-4.4712 15.064 0.9873 26.86 8.8151 62.37 41.389 23.537 21.591 29.23 25.904 48.741 36.916 17.176 9.6951 25.548 15.075 42.7 27.439 16.105 11.609 29.004 18.673 54.778 29.996 33.383 14.666 48.633 24.843 66.848 44.607 11.733 12.731 19.899 26.154 25.209 41.439 2.9378 8.4565 3.3603 11.763 3.4248 26.807 0.065 15.063-0.3053 18.188-3.0284 25.575-4.0427 10.966-14.17 22.433-23.499 26.607-8.521 3.8125-23.226 4.6962-32.689 1.9636z"/> <path d="m5090.2 1810.1c-22.829-4.6095-42.308-17.001-54.474-34.652-11.966-17.362-18.903-35.376-28.293-73.473-3.3101-13.432-10.85-39.567-16.756-58.081-12.048-37.768-14.373-47.512-19.209-80.521-4.0941-27.941-6.4834-37.987-14.843-62.408-8.5966-25.113-13.938-47.741-14.883-63.049-0.6767-10.965-0.4335-13.397 1.878-18.775 7.9485-18.493 32.443-13.686 49.924 9.7964 3.374 4.5325 9.5978 12.194 13.83 17.026 13.604 15.529 17.724 24.786 30.013 67.425 6.6071 22.925 11.028 32.787 25.661 57.245 6.5156 10.89 16.31 28.414 21.764 38.94 13.612 26.27 18.725 33.811 42.508 62.701 30.63 37.206 41.854 55.361 46.911 75.88 8.9468 36.304-18.848 63.698-64.162 63.236-7.8075-0.08-16.749-0.66-19.871-1.2904z"/> <path d="m4886.8 1868.9c-20.786-4.2018-42.654-19.649-49.789-35.172-4.5373-9.871-5.7697-19.285-7.3079-55.827-1.0005-23.769-2.1325-35.965-4.5329-48.841-7.3512-39.431-8.5723-51.242-7.8464-75.9 0.9914-33.674 7.4662-85.356 15.782-125.97 11.182-54.615 31.83-99.4 51.22-111.09 16.413-9.8992 29.901-5.3737 33.813 11.344 0.7646 3.2676 2.1943 16.336 3.177 29.041 1.6638 21.508 2.2935 24.874 9.138 48.84 10.185 35.664 12.838 47.153 17.369 75.241 7.4132 45.95 11.525 62.946 24.2 100.03 4.2722 12.501 11.279 32.975 15.57 45.498 9.7594 28.48 12.836 42.586 12.863 58.979 0.034 21.097-7.242 38.783-22.59 54.903-24.009 25.217-57.223 35.768-91.066 28.927z"/> <path d="m4823.7 2063.7c-6.0696-4.525-9.6178-10.842-12.837-22.852-1.9221-7.1712-2.1581-13.692-1.8084-49.94 0.3021-31.285-0.125-47.43-1.7134-64.681-2.8384-30.837-1.3815-41.627 6.8163-50.486 10.43-11.272 27.761-9.243 41.833 4.8957 7.8271 7.8648 11.482 14.524 14.395 26.229 2.7785 11.161 1.714 21.298-5.2323 49.834-3.0927 12.705-7.1256 32.604-8.9621 44.22-3.926 24.834-12.174 57.509-15.774 62.494-3.7803 5.2336-9.941 5.3392-16.717 0.2894z"/> <path d="m4862.8 2081.4c-4.0778-2.277-7.3912-8.1775-7.3912-13.162 0-1.9133 0.8416-7.1407 1.8704-11.616 1.0287-4.4751 3.0248-13.388 4.4356-19.806 3.4106-15.516 10.083-29.275 26.78-55.223 7.6262-11.852 17.808-28.299 22.626-36.551 16.054-27.494 27.139-40.585 53.31-62.958 21.85-18.681 35.593-27.702 51.612-33.881 9.25-3.568 12.305-4.1018 24.063-4.2031 15.447-0.1348 21.941 2.2016 30.062 10.806 15.667 16.6 10.452 53.311-11.004 77.472-9.1529 10.307-16.168 15.198-39.146 27.298-25.971 13.675-37.8 20.568-53.397 31.114-27.24 18.421-51.778 41.602-67.466 63.736-13.772 19.431-17.342 23.838-21.452 26.475-4.7278 3.0332-10.047 3.2114-14.903 0.4994z"/> <path d="m4882 2108.2c-1.1611-0.9074-2.6548-3.1605-3.3191-5.0071-2.7243-7.5728 4.4212-15.391 31.777-34.77 8.3182-5.8924 21.122-15.715 28.454-21.829 17.416-14.524 25.231-19.643 55.824-36.57 27.586-15.262 40.733-23.701 66.528-42.698 22.397-16.495 33.239-21.829 44.251-21.772 5.302 0.049 9.8049 0.8536 12.369 2.27 10.008 5.5274 17.45 17.492 19.614 31.537 3.9351 25.534-12.545 51.191-42.886 66.768-14.897 7.6481-26.989 10.865-53.87 14.33-27.538 3.5508-43.512 7.9052-79.522 21.676-9.8762 3.7772-22.574 8.5002-28.218 10.496-5.6436 1.996-17.276 6.6869-25.85 10.424-15.921 6.9394-21.417 8.0634-25.152 5.1443z"/> <path d="m5097.8 2171.4c-3.2093-0.907-12.156-5.3477-19.881-9.8677-14.516-8.4939-27.56-13.487-44.187-16.916-14.522-2.9939-56.081-3.7661-96.493-1.793-38.836 1.8967-44.081 1.3934-47.895-4.5964-3.2444-5.0963-1.9128-11.335 3.1689-14.847 2.3968-1.6569 5.7358-3.0125 7.4197-3.0125 1.6838 0 13.575-4.2291 26.425-9.3983 30.153-12.13 71.181-26.584 87.494-30.825 24.568-6.386 66.665-13.017 83.37-13.132 14.277-0.099 15.856 0.1447 21.805 3.3865 13.59 7.4013 23.766 22.627 26.51 39.666 2.6414 16.406-4.8955 37.684-18.198 51.374-9.8529 10.14-18.538 13.069-29.538 9.9601z"/> <path d="m5139.8 2422.6c-6.5243-1.6582-19.167-8.2093-26.424-13.692-6.1313-4.6323-22.309-21.542-44.386-46.394-18.074-20.346-28.334-29.524-47.457-42.455-36.746-24.848-41.658-28.423-57.525-41.868-9.0646-7.6804-25.514-20.715-36.555-28.965-20.816-15.555-45.292-38.64-47.604-44.898-1.9186-5.1936-1.632-12.95 0.5994-16.229 2.9561-4.3435 9.4122-6.0287 16.676-4.3535 8.2968 1.9133 29.602 10.122 35.908 13.835 7.0871 4.1733 37.591 15.76 50.022 19.001 5.6435 1.4718 18.49 4.4672 28.547 6.6567 25.134 5.4731 36.452 9.6294 69.717 25.604 15.794 7.5842 38.816 17.46 51.162 21.946 59.63 21.668 80.865 41.275 82.958 76.597 1.786 30.146-13.09 59.06-36.524 70.988-8.9973 4.5801-10.655 4.9726-21.99 5.2085-6.7426 0.1398-14.448-0.2993-17.123-0.9808z"/> <path d="m5079.9 2577.1c-10.075-2.0994-19.494-7.8338-28.968-17.635-10.871-11.246-15.034-17.653-28.801-44.322-14.013-27.145-23.828-42.15-40.601-62.07-20.317-24.129-22.794-27.942-44.988-69.271-4.2887-7.9864-11.945-21.351-17.014-29.701-5.0688-8.3486-12.724-22.605-17.012-31.68-10.107-21.393-12.94-25.608-28.437-42.313-19.622-21.153-29.537-40.255-25.211-48.573 0.8082-1.5539 3.7361-4.0161 6.5061-5.4703 16.805-8.823 36.6 4.1235 73.628 48.155 26.188 31.141 39.217 43.683 70.034 67.413 10.229 7.8767 28.699 22.688 41.044 32.913 12.345 10.226 30.526 24.755 40.403 32.286 45.166 34.444 62.26 55.065 68.247 82.329 3.7362 17.015-0.803 35.932-13.29 55.387-16.049 25.005-35.907 36.643-55.54 32.552z"/> <path d="m4866 2678c-21.863-4.9308-36.293-18.09-42.965-39.181-2.345-7.4132-2.6306-11.988-2.8219-45.208-0.1992-34.614-0.4363-38.091-3.7333-54.78-7.9998-40.494-9.0269-67.555-4.5452-119.76 3.5339-41.161 2.9518-60.651-2.6717-89.463-5.2945-27.126-6.3356-47.966-3.2315-64.681 1.2135-6.5342 2.636-17.358 3.1611-24.052 1.2063-15.382 4.2423-20.047 13.096-20.127 8.6126-0.075 15.183 10.57 18.423 29.849 2.5414 15.125 7.1027 30.216 16.3 53.93 12.137 31.293 11.721 30.416 23.13 48.718 10.786 17.302 15.419 27.408 23.359 50.942 10.84 32.13 19.347 45.547 46.822 73.844 25.59 26.354 33.871 36.874 41.11 52.218 18.59 39.403 11.336 80.676-19.94 113.46-16.542 17.342-37.157 28.686-61.538 33.865-13.55 2.8783-32.262 3.0574-43.954 0.4192z"/> </g> <g transform="translate(-2978.1 -2172.5)" fill="#fca3c4" stroke-width="1.3012"> <path d="m5816.1 1620.2c-5.9961-1.3228-21.291-5.8342-33.989-10.025-50.286-16.598-64.879-19.592-102.61-21.05-68.872-2.6612-97.635-10.744-145.58-40.912-16.375-10.304-28.739-16.954-42.968-23.11-40.088-17.345-50.103-28.444-52.649-58.349-1.0007-11.75 2.6377-60.04 5.3233-70.655 4.8791-19.283 19.366-32.316 42.516-38.248 12.474-3.197 48.434-3.2128 62.774-0.049 32.857 7.2979 60.506 22.762 81.346 45.498 4.5608 4.9754 17.473 20.871 28.693 35.322 31.466 40.527 49.085 57.202 87.879 83.171 9.5235 6.375 31.266 21.038 48.317 32.584 29.763 20.154 36.05 23.585 58.782 32.074 3.6665 1.3691 8.473 4.5949 11.223 7.5315 3.9259 4.1928 4.8097 6.108 4.8097 10.422 0 6.4708-3.4942 10.488-13.148 15.113-5.6307 2.6979-8.6213 3.2127-18.276 3.146-6.349-0.049-16.45-1.1624-22.446-2.485z"/> <path d="m5911.2 1660.2c-9.1935-4.8018-14.89-18.354-19.461-46.298-2.7419-16.762-5.9221-23.842-16.641-37.043-8.3163-10.243-17.007-17.043-44.092-34.5-49.481-31.892-60.664-40.59-83.571-65-14.942-15.923-25.476-30.475-31.132-43.01-2.9948-6.6359-3.4408-9.3134-3.4675-20.816-0.029-11.772 0.3519-14.002 3.5056-20.611 7.4624-15.638 22.928-26.943 42.469-31.043 12.177-2.5554 23.314-1.1645 40.571 5.0673 46.586 16.821 50.906 17.427 85.876 12.043 32.054-4.935 49.267 1.7198 58.576 22.647 7.3584 16.542 6.9096 33.87-2.1893 84.498-6.6373 36.931-7.4506 52.799-4.296 83.821 6.0551 59.544 0.3364 89.208-17.709 91.856-2.4846 0.3642-5.9084-0.2894-8.4396-1.6105z"/> <path d="m5495.5 1739.5c-33.126-9.5294-49.922-40.868-41.067-76.624 8.6702-35.012 33.52-61.139 66.676-70.102 11.181-3.0228 34.401-3.0232 48.306 0 9.712 2.1108 16.826 4.2526 51.097 15.386 25.592 8.3136 33.828 9.4727 75.675 10.649 41.732 1.1724 44.762 1.5567 72.468 9.1903 10.229 2.8183 22.061 5.8073 26.294 6.6419 25.961 5.1217 34.413 12.703 32.072 28.767-1.7414 11.951-5.5202 15.976-18.251 19.44-6.3235 1.7202-15.018 1.8919-59.355 1.172-43.974-0.714-54.487-0.5119-68.499 1.3161-37.337 4.8712-58.213 11.842-97.803 32.66-35.663 18.753-46.39 22.514-65.853 23.088-10.447 0.3094-16.796-0.1545-21.761-1.5814z"/> <path d="m5557 1977.3c-26.801-7.6872-40.123-29.333-38.087-61.885 1.2631-20.199 9.1975-43.097 20.666-59.644 12.164-17.549 34.976-36.071 57.781-46.914 15.994-7.6044 45.254-17.331 69.202-23.004 23.375-5.5367 30.877-7.952 58.462-18.82 10.934-4.308 27.672-10.107 37.196-12.887 9.5235-2.78 26.55-8.5897 37.837-12.911 29.391-11.251 40.441-11.42 46.783-0.7143 5.5963 9.4466 2.1913 18.87-11.928 33.01-13.627 13.648-27.176 22.232-59.021 37.392-62.166 29.596-67.312 34.407-107.29 100.29-22.952 37.828-45.709 57.956-73.926 65.383-11.299 2.974-28.641 3.2992-37.679 0.7065z"/> <path d="m5691.7 2078.6c-19.68-3.3866-35.46-16.144-42.494-34.356-2.5327-6.5567-2.9548-10.053-2.9936-24.793-0.039-14.399 0.4382-18.744 2.9582-27.004 7.1664-23.487 15.928-36.314 41.968-61.437 35.186-33.949 36.539-35.509 57.735-66.58 15.184-22.259 29.963-34.878 62.717-53.549 23.826-13.582 22.647-12.661 32.009-25.001 10.97-14.457 16.356-19.211 21.767-19.211 9.609 0 15.665 10.809 14.604 26.068-1.1198 16.106-9.4478 30.593-42.693 74.267-44.831 58.893-50.987 71.172-62.172 123.99-8.8003 41.56-15.05 57.48-27.658 70.456-13.279 13.666-35.774 20.586-55.748 17.149z"/> <path d="m5862.7 2117.8c-17.405-4.6961-35.564-16.522-46.094-30.018-7.5743-9.7081-16.386-28.642-19.03-40.891-4.1699-19.316-2.1655-45.746 5.0359-66.4 8.1415-23.351 37.369-82.64 60.575-122.88 28.693-49.754 30.23-53.424 30.402-72.595 0.1381-15.414 1.8679-20.266 7.768-21.79 14.714-3.8006 28.352 22.403 32.552 62.544 2.7986 26.747 1.5801 43.134-6.4496 86.739-11.079 60.163-10.324 69.466 9.5922 118.19 6.326 15.478 8.2323 27.588 6.2319 39.593-6.114 36.695-42.077 57.895-80.585 47.504z"/> <path d="m5908 2347c-2.1995-2.4257-7.1011-10.645-10.892-18.266-8.2353-16.554-16.244-27.873-39.036-55.168-22.148-26.525-27.677-33.933-41.396-55.478-9.2056-14.456-15.156-21.85-31.524-39.169-22.031-23.312-30.26-33.854-35.88-45.972-7.5991-16.384-3.4755-30.878 10.451-36.735 20.319-8.5446 49.595 2.7948 71.938 27.864 23.16 25.985 38.264 55.25 65.895 127.67 21.976 57.6 25.212 67.827 26.981 85.271 0.8524 8.4036 0.76 8.8101-2.6246 11.55-5.0442 4.0836-9.2126 3.6136-13.913-1.5696z"/> <path d="m5881.8 2366.3c-2.2762-1.2701-9.7706-7.4221-16.654-13.67-51.369-46.628-61.898-52.676-151.04-86.742-36.212-13.839-43.816-15.795-67.868-17.458-23.686-1.6374-28.85-2.2963-41.447-5.2898-22.116-5.256-40.708-17.992-46.504-31.858-4.2367-10.136-3.2773-23.654 2.5118-35.395 6.3386-12.855 20.382-26.557 38.512-37.576 17.342-10.54 21.375-13.657 35.959-27.799 14.246-13.814 18.235-15.818 31.379-15.762 8.0859 0.049 11.968 0.7749 18.314 3.4918 21.34 9.1376 32.044 19.101 51.506 47.945 7.3484 10.89 19.965 28.399 28.036 38.908 8.0718 10.509 20.2 27.142 26.952 36.961 25.869 37.619 34.586 48.335 55.399 68.094 21.063 19.997 39.815 40.175 44.983 48.404 5.8519 9.318 7.2137 15.188 5.1603 22.241-2.2896 7.8651-7.5558 9.7715-15.202 5.5038z"/> <path d="m5947.6 2381.3c-4.0229-4.1398-5.5651-10.491-7.7641-31.976-2.7673-27.036-5.6465-36.671-24.413-81.698-14.941-35.847-19.085-48.002-21.771-63.85-4.6538-27.465 0.3593-51.99 13.663-66.843 17.497-19.535 42.76-16.536 52.504 6.2327 3.3124 7.7404 3.5112 13.322 2.4338 68.36-0.5123 26.177-0.3908 27.836 3.7241 50.821 3.8903 21.731 4.2037 25.395 3.6686 42.901-0.7269 23.784-4.3486 67.354-5.9614 71.72-2.7286 7.3857-10.962 9.6039-16.084 4.3324z"/> <path d="m5599.3 2430.7c-18.599-4.2557-32.077-11.976-44.311-25.38-15.862-17.379-24.574-36.625-27.533-60.825-3.718-30.399 7.5578-56.35 29.259-67.339 8.2404-4.1734 9.1121-4.3295 23.966-4.3021 14.422 0.05 16.281 0.3393 28.888 4.8824 7.4109 2.6694 19.243 7.4781 26.294 10.685 27.143 12.347 31.246 13.411 51.298 13.306 9.8762-0.049 25.46-0.3341 34.631-0.6296 18.752-0.6021 25.123 0.6737 44.204 8.8496 6.0216 2.5799 21.049 8.8481 33.394 13.928 26.788 11.024 39.464 17.419 53.229 26.854 22.433 15.376 31.889 27.174 32.002 39.929 0.053 5.9518-0.4394 7.5557-2.9646 9.6622-5.8573 4.8853-8.6655 4.0076-38.657-12.086-8.0898-4.3411-25.024-7.1579-42.326-7.0396-21.414 0.1447-32.527 3.2942-72.121 20.431-63.877 27.648-71.958 30.144-100.39 31.017-14.379 0.4391-20.129 0.056-28.859-1.9436z"/> <path d="m5512.1 2770.4c-18.38-5.0664-26.049-17.309-25.956-41.442 0.068-17.883 5.0232-36.067 16.006-58.74 14.399-29.725 29.987-50.377 66.349-87.898 50.588-52.202 73.907-68.334 127.69-88.336 18.116-6.7376 33.142-13.511 51.277-23.114 38.138-20.195 56.85-26.192 82.088-26.31 7.7598-0.049 17.434 0.4241 21.497 1.0213 17.513 2.5758 20.941 16.165 7.8579 31.142-8.6968 9.9548-21.482 15.864-51.801 23.94-56.998 15.184-72.952 23.418-100.77 52.006-16.938 17.405-28.485 33.852-40.016 56.993-6.1468 12.336-9.8383 21.547-26.48 66.074-6.144 16.439-16.094 34.922-25.859 48.038-8.0029 10.748-25.175 26.881-34.98 32.864-21.771 13.284-48.6 18.804-66.893 13.762z"/> <path d="m5948.4 2856.3c-6.3834-2.8537-17.066-14.868-27.041-30.411-18.71-29.155-26.406-58.141-26.267-98.926 0.099-28.897 4.5158-52.348 18.574-98.613 18.773-61.78 23.525-82.793 25.6-113.2 1.0316-15.114 0.9982-22.506-0.1329-29.408-1.3907-8.4858-1.3109-9.4961 1.003-12.698 4.1277-5.7121 7.4956-5.2116 14.379 2.1378 7.3232 7.8193 11.968 17.217 15.435 31.225 3.1702 12.809 3.2784 25.838 0.4514 54.239-1.51 15.168-2.1506 35.444-2.2732 71.941-0.093 27.951-0.6572 69.829-1.2516 93.061-0.8913 34.824-0.7268 45.948 0.9372 63.361 3.2515 34.026 3.4953 39.161 2.2656 47.735-1.5026 10.478-4.6643 17.23-9.198 19.643-4.459 2.3728-7.0258 2.3558-12.482-0.084z"/> <path d="m5654.4 2925.3c-22.103-7.9609-41.483-32.295-50.758-63.733-3.1222-10.582-3.5147-14.043-3.5933-31.68-0.075-16.849 0.349-21.374 2.8449-30.36 5.938-21.377 15.329-37.595 37.456-64.681 26.663-32.639 36.229-48 49.461-79.424 11.54-27.407 18.2-40.627 28.147-55.878 20.019-30.69 42.41-48.854 77.078-62.529 6.2635-2.4706 14.705-6.0107 18.759-7.8671 7.7225-3.5359 38.112-23.71 45.037-29.898 6.1072-5.457 9.6184-6.9552 14.219-6.0673 9.3832 1.8116 13.258 12.798 9.079 25.746-3.518 10.9-22.568 35.674-53.044 68.978-35.02 38.271-54.233 65.729-65.616 93.779-9.9508 24.521-14.122 50.594-14.122 88.27 0 62.284-7.9177 98.738-27.672 127.41-7.6373 11.084-16.995 19.393-28.336 25.162-8.1986 4.1699-11.063 4.9302-20.066 5.3273-8.4508 0.3742-12.138-0.1245-18.874-2.5524z"/> <path d="m5841.7 2993.7c-14.963-4.2708-29.447-13.782-41.658-27.356-30.585-33.999-41.392-87.471-30.761-152.2 6.0609-36.906 12.394-59.542 27.541-98.439 5.5215-14.179 12.95-35.612 16.508-47.63 12.928-43.666 20.439-57.69 53.998-100.83 17.473-22.462 17.747-22.941 21.323-37.247 4.3734-17.495 7.2599-23.374 12.807-26.082 5.997-2.929 10.982-1.6538 17.12 4.3788 10.355 10.178 9.9305 30.226-1.3472 63.57-35.245 104.21-39.618 121.8-39.618 159.39 0 29.865 4.4099 47.681 20.767 83.9 12.486 27.648 18.109 42.66 22.344 59.656 3.1967 12.828 3.6215 16.904 3.6463 34.98 0.024 17.449-0.4043 22.006-2.9108 30.961-7.4105 26.479-22.1 43.855-43.71 51.706-9.6749 3.5147-26.118 4.0855-36.05 1.2513z"/> </g> <path d="m2122.3 843.3c-42.529-6.9302-80.85-25.541-89.004-43.224-10.022-21.736 3.8626-37.923 61.249-71.406 36.164-21.1 42.534-31.134 23.463-36.963-12.71-3.8844-27.652-1.4667-45.356 7.3389-11.696 5.8173-21.947 13.394-40.184 29.703-18.688 16.712-40.61 33.227-50.955 38.387-13.479 6.7237-27.228 9.3959-38.303 7.4431-13.522-2.3831-25.655-9.3254-38.799-22.198-17.811-17.444-28.432-34.858-35.788-58.68-7.6095-24.643-8.6208-32.241-8.6084-64.681 0.013-26.177 0.3437-31.046 2.815-41.048 3.8304-15.504 8.1196-24.949 14.632-32.219 17.138-19.134 34.769-15.797 83.869 15.873 37.4 24.123 58.656 33.369 85.026 36.981 22.452 3.0758 39.269 2.3733 97.106-4.0567 26.046-2.8955 67.483-2.9106 85.693-0.05 34.756 5.4964 61.214 17.783 90.772 42.153 15.69 12.937 34.307 32.693 44.577 47.306 3.934 5.5978 7.3113 10.015 7.505 9.8149 0.194-0.1995 1.194-6.8584 2.2226-14.797 2.3759-18.338 4.7577-29.942 10.55-51.396l4.6332-17.16-0.8273-25.74c-0.4818-14.99-1.6185-29.197-2.7218-34.016-6.3161-27.589-23.964-40.296-50.158-36.114-4.92 0.7857-25.369 6.4927-45.443 12.682-52.653 16.235-90.058 24.093-129.08 27.118-46.852 3.6314-75.736-3.5443-95.296-23.675-12.134-12.488-18.448-25.741-19.083-40.055-0.4194-9.4572-0.1055-11.118 3.542-18.742 8.1381-17.013 38.99-41.562 64.78-51.545 12.906-4.9965 22.092-6.9037 44.226-9.1827 50.417-5.1916 72.106-1.9553 110.24 16.449 9.0251 4.3553 17.17 7.9185 18.1 7.9185 2.4226 0 0.8437-10.396-2.6571-17.494-4.1515-8.4178-8.7366-14.93-26.337-37.406-29.778-38.026-35.095-48.261-36.065-69.423-0.5059-11.04-0.1185-14.458 2.8394-25.08 6.7999-24.414 20.966-49.867 35.419-63.637 9.7605-9.3 17.611-13.137 28.172-13.767 25.213-1.5038 40.744 14.718 58.836 61.453 11.394 29.432 16.419 52.996 19.928 93.444 3.1469 36.277 9.1549 55.564 27.201 87.322 5.2907 9.3105 12.142 21.68 15.226 27.489 6.0095 11.32 13.399 32.307 13.547 38.475 0.2351 9.8186 1.6864 8.8621 11.115-7.3248 14.209-24.395 25.69-55.147 28.515-76.38 1.8249-13.717-0.082-46.816-3.8563-66.931-7.3797-39.333-28.267-83.286-56.672-119.26-26.622-33.713-82.417-85.398-126.69-117.36-69.308-50.031-158.42-89.304-275.98-121.63-29.456-8.0998-48.946-11.583-76.246-13.625l-21.017-1.5721 0.014-4.7006c0.013-2.5853 0.382-6.9932 0.8318-9.795l0.8177-5.0943 13.598 0.8801c20.884 1.351 43.888 4.4277 60.291 8.0632 41.709 9.2437 121.48 35.055 164.94 53.372 14.109 5.9454 26.518 11.086 27.576 11.423 1.604 0.5105 1.8523-0.8311 1.4928-8.0661-0.8932-17.974 5.7297-39.96 21.606-71.728 12.648-25.307 14.697-36.317 10.915-58.64-1.9977-11.789-31.068-106.86-37.823-123.69-2.1665-5.3995-9.1586-20.117-15.538-32.706-13.12-25.892-16.36-34.47-17.449-46.195-1.0039-10.81 1.269-18.762 7.4179-25.951 7.156-8.3671 15.56-11.743 30.984-12.447 11.61-0.5304 13.021-0.3142 19.653 3.0263 18.165 9.1469 21.832 26.939 15.373 74.6-6.6065 48.754-7.2883 75.779-2.2097 87.594 1.3655 3.1769 3.0791 6.1559 3.8081 6.6194 4.1257 2.6243 12.715-20.72 16.906-45.944 6.9764-41.998 4.3283-71.707-11.069-124.18-11.24-38.303-11.796-50.028-2.97-62.567 19.138-27.19 60.848 1.1857 77.417 52.667 10.228 31.782 9.3365 60.711-3.0566 99.14-5.3693 16.649-14.255 35.916-21.85 47.381-2.6455 3.9932-9.8176 13.497-15.938 21.12-12.825 15.974-17.437 23.73-22.126 37.212-2.993 8.6068-3.4154 12.073-3.9093 32.089-0.3508 14.238-0.1067 21.958 0.6681 21.12 0.6721-0.7259 7.3078-9.9331 14.746-20.46 31.506-44.588 70.661-88.968 125.06-141.74l9.3352-9.0566-1.2323-6.8613c-2.003-11.151-6.8935-20.568-16.15-31.099-16.363-18.616-57.982-69.417-81.935-100.01-29.435-37.597-57.47-75.924-97.65-133.5-41.979-60.155-53.364-75.656-65.798-89.575-12.753-14.278-21.438-25.603-24.748-32.269-3.2842-6.6155-3.2163-13.718 0.1488-15.571 3.7873-2.0861 8.9613 0.9378 22.077 12.902 12.843 11.716 23.288 24.29 34.58 41.627 15.041 23.096 77.594 112.25 104.84 149.42 30.877 42.129 85.588 110.84 118.73 149.11 6.891 7.9574 15.721 18.534 19.622 23.503 7.9439 10.119 9.2031 9.945 9.2353-1.2733 0.034-12.266-9.4067-37.803-19.67-53.198-2.1779-3.2669-13.228-15.742-24.556-27.72-23.066-24.391-30.412-33.679-37.77-47.753-7.7311-14.787-10.785-27.98-10.021-43.297 1.06-21.254 7.9328-33.244 31.11-54.269 23.504-21.322 30.702-32.56 45.57-71.145 9.6039-24.923 14.72-35.41 22.418-45.948 17.682-24.208 37.276-26.552 50.871-6.0861 6.1342 9.2352 8.1374 18.957 7.9984 38.816-0.1895 27.038-5.1503 43.795-29.699 100.32-16.356 37.662-21.544 52.104-24.068 67-1.8527 10.934-1.5148 20.121 0.7402 20.121 1.4703 0 6.4499-6.9486 11.991-16.733 5.4423-9.6089 12.81-16.592 22.562-21.382 5.9023-2.8993 8.8352-3.4655 17.957-3.4655 9.7129 0 11.661 0.4341 17.857 3.9602 18.245 10.388 25.257 32.818 16.404 52.474-4.4355 9.8483-11.564 17.513-29.02 31.206-17.327 13.59-24.624 21.651-28.212 31.161-3.1356 8.3112-10.052 31.02-9.4479 31.02 0.2487 0 7.5005-5.661 16.115-12.58 98.28-78.936 211.86-136.64 299.76-152.28 21.01-3.7385 28.726-4.4185 52.257-4.606l20.852-0.1647v9.4681c0 9.2901-0.066 9.4813-3.5271 10.126-1.9399 0.3592-11.896 0.6514-22.125 0.6434-36.668-0.049-72.836 7.7929-120.92 26.145-110.52 42.187-219.28 118.41-327.44 229.49-49.84 51.185-86.865 97.798-116.12 146.19-10.945 18.104-25.29 46.597-28.609 56.825-3.055 9.4143-2.7586 31.741 0.5894 44.414l2.6394 9.9901 18.038 9.6034c16.134 8.5895 17.967 9.2866 17.361 6.6001-4.3946-19.476-5.1664-25.679-5.2197-41.944-0.055-16.746 0.1935-18.576 4.1183-30.36 5.287-15.875 9.0813-22.81 24.554-44.88 6.8712-9.801 18.61-27.984 26.088-40.408 22.205-36.893 31.675-48.097 71.762-84.897 9.0212-8.2811 17.39-16.372 18.598-17.979 1.2079-1.6075 13.005-15.022 26.216-29.81 31.659-35.44 44.115-45.212 62.077-48.699 25.478-4.9477 44.73 12.633 40.28 36.783-3.0759 16.692-18.211 37.333-39.13 53.365-5.6282 4.3131-18.615 12.894-28.859 19.069-24.648 14.856-34.343 21.434-42.256 28.667-8.1815 7.478-14.772 15.129-13.85 16.078 0.3844 0.394 7.2432-1.4813 15.242-4.171 23.425-7.8776 32.782-6.7216 38.661 4.7771 4.5475 8.8939-0.3471 23.475-12.216 36.39-12.187 13.262-26.603 19.978-49.245 22.944-29.01 3.7996-48.162 11.596-67.241 27.372-29.957 24.771-46.146 61.014-46.117 103.25l0.013 11.255 14.422 9.8438c52.637 35.928 112.21 90.329 145.16 132.56 43.962 56.342 65.433 117.27 63.093 179.02-0.4267 11.253-1.1123 22.242-1.5238 24.42-0.6781 3.589-0.051 3.1565 6.6915-4.6198 4.092-4.7192 12.072-13.527 17.733-19.574l10.293-10.994-0.048-23.326c-0.054-26.254-1.7827-35.363-10.872-57.252-10.676-25.709-23.429-41.926-59.102-75.153-49.951-46.526-59.957-59.809-78.362-104.03-9.0451-21.731-13.677-28.803-31.385-47.918-18.244-19.694-23.944-29.611-26.051-45.323-3.6268-27.05 11.607-59.285 33.166-70.181 9.8694-4.9881 23.414-5.1562 32.847-0.409 14.22 7.1572 25.044 23.707 35.875 54.852 19.049 54.778 27.038 71.574 39.799 83.68 7.9561 7.5472 11.464 7.3507 15.143-0.8492 2.4429-5.4437 2.8013-8.4439 2.7205-22.77-0.083-14.738-0.7462-19.461-6.2086-44.221-3.3636-15.246-6.985-35.145-8.0473-44.22-7.2302-61.758 15.194-116.94 60.08-147.84 12.611-8.6812 21.665-12.574 36.212-15.57 17.992-3.7053 39.423 0.882 52.625 11.265 12.89 10.138 19.623 25.324 18.32 41.321-0.9688 11.893-6.3577 25.648-19.638 50.124-19.373 35.705-22.957 42.687-31.553 61.466-15.6 34.079-21.31 53.201-29.727 99.551-12.081 66.527-13.526 109.69-5.6321 168.3 2.4313 18.052 2.8158 26.394 2.6463 57.421-0.1094 19.965-0.5765 39.508-1.0385 43.428l-0.8402 7.1267 13.263-11.816c60.081-53.526 135.44-99.661 197.84-121.12 43.94-15.108 95.514-23.127 124.8-19.405 16.3 2.0715 16.026 1.9043 15.109 9.2134-1.5789 12.586-1.5081 12.466-6.7824 11.522-29.368-5.2524-77.49 1.0117-122.59 15.958-74.742 24.769-162.66 82.542-228.55 150.19-57.342 58.872-95.677 120.25-119.15 190.78-5.9635 17.917-12.231 40.572-12.231 44.209 0 4.0206 3.1544 1.6708 16.497-12.289 27.519-28.792 41.222-36.382 65.59-36.332 9.8905 0 14.117 0.707 22.446 3.6449 7.4151 2.6153 15.494 4.1246 29.13 5.4411 29.937 2.8912 42.821 7.3638 55.463 19.255 16.464 15.485 20.673 41.839 8.8364 55.323-5.7068 6.5011-11.253 8.3441-22.811 7.5808-10.963-0.7239-17.677-3.6716-36.519-16.034-11.994-7.8687-19.35-10.774-19.35-7.6417 0 5.0414 43.75 50.223 57.215 59.088 15.719 10.348 31.779 15.392 71.107 22.33 25.914 4.5715 56.886 11.173 69.201 14.751 21.507 6.2473 32.115 19.171 26.045 31.73-5.5226 11.425-21.652 18.56-44.643 19.746-17.255 0.8901-31.921-1.1634-73.751-10.327-42.779-9.3709-46.606-9.7361-81.071-7.7381-32.108 1.862-44.341 1.2958-59.51-2.753-25.542-6.8169-44.742-21.485-53.696-41.022-7.8127-17.047-8.737-22.561-8.5559-51.039 0.1289-20.194-0.2331-26.279-1.7393-29.276-2.9194-5.8098-6.007-6.0423-14.268-1.0742-12.664 7.6152-12.417 6.7796-12.481 42.24-0.039 22.761 0.4889 33.97 2.0382 43.088 2.3158 13.631 2.0051 16.066-2.0465 16.036-4.0885-0.049-4.6506-0.6661-15.239-17.246-14.362-22.49-28.628-34.492-48.852-41.101-26.905-8.7912-54.626 8.3362-88.062 54.407-16.308 22.471-22.351 29.619-31.926 37.77-17.821 15.168-37.664 21.721-64.933 21.442-9.1707-0.095-18.117-0.4041-19.881-0.693z" fill="#85974d" stroke-width="1.3012"/> </g> </g> </svg>