<?xml version='1.0' encoding='utf-8'?>
<svg xmlns="http://www.w3.org/2000/svg" width="1323.2mm" height="1819.2mm" version="1.1" viewBox="0 0 1323.2 1819.2"> <g transform="translate(1495.9 1329.2)"> <g transform="translate(-6197.2 -2591)"> <path d="m4701.3 1261.9h1323.2v1819.2h-1323.2z" fill="#f2e4db" stroke-width="1.4212"/> <path d="m5033.8 1539.5c-2.2297-1.4169-4.8473-4.5551-5.8171-6.9745-2.2134-5.5204-2.2778-18.9-0.1249-26.296 4.8991-16.849 16.742-33.369 23.584-32.896 1.9581 0.135 5.3496-0.1833 7.5362-0.7034 6.0119-1.4342 11.983 1.1766 15.259 6.673 2.337 3.9212 2.7934 6.4158 2.737 14.967-0.056 8.7498-0.6347 11.525-3.9179 18.838-4.6991 10.465-14.344 21.394-22.721 25.745-7.5134 3.9025-11.184 4.0461-16.533 0.6469z" fill="#b29245" stroke-width="1.2503"/> <path d="m5711.2 1662.8c-11.169-3.6394-19.288-11.297-24.442-23.052-9.0961-20.746 1.0124-41.403 20.29-41.464 17.121-0.053 33.484 17.728 35.276 38.339 1.7497 20.11-12.631 32.204-31.124 26.177z" fill="#b29245" stroke-width="1.2503"/> <g fill="#a45944" stroke-width="1.2503"> <path d="m5049.4 1463.9c-1.6345-1.6274-5.269-4.4998-8.0768-6.3822-8.4767-5.6825-11.345-10.934-17.126-31.351-7.7139-27.245-8.1369-29.988-5.979-38.767 2.169-8.8247 7.208-19.612 9.6093-20.572 2.3718-0.9485 13.574 5.1571 19.584 10.674l4.9671 4.5604-0.2731 17.139c-0.1944 12.267 0.4305 21.674 2.2052 33.094 2.9314 18.884 2.9258 33.588 0 34.178-1.0605 0.2123-3.2652-0.945-4.8992-2.5726z"/> <path d="m5079.1 1467.7c-2.5282-3.1753-3.9988-13.206-4.7181-32.18-0.68-17.944-0.5527-19.566 2.0278-25.819 3.4096-8.2601 9.5955-14.301 26.647-26.022 23.743-16.322 34.976-20.958 48.358-19.961 12.75 0.9508 13.032 1.5332 8.9784 18.564-1.8302 7.6881-4.3454 15.723-5.5897 17.856-1.2442 2.1323-6.3489 7.0271-11.344 10.877-9.3845 7.2331-14.456 13.023-22.092 25.22-4.8728 7.7831-11.865 13.63-22.187 18.555-3.6924 1.7619-8.124 5.04-9.8478 7.2843-1.7242 2.2442-3.6992 4.7988-4.3889 5.6762-1.6188 2.0585-4.1813 2.0368-5.843-0.048z"/> <path d="m5015.8 1482.3c-2.0205-1.305-8.1629-6.7778-13.649-12.161-10.956-10.75-17.811-14.274-34.803-17.895-8.5289-1.8173-48.927-6.5158-82.818-9.6318-32.353-2.9746-51.259-14.727-68.836-42.791-8.1967-13.087-6.9975-16.06 7.2162-17.894 3.7045-0.4775 18.585-2.6718 33.067-4.875 23.351-3.5525 29.519-4.0128 54.5-4.0645 30.186-0.062 36.533 0.8144 47.564 6.5761 7.7894 4.0683 14.598 11.358 23.013 24.638 3.7814 5.9672 11.493 15.774 17.137 21.794 5.6442 6.0198 11.467 13.487 12.941 16.594 11.372 23.984 16.417 36.068 16.083 38.522-0.518 3.8025-6.4155 4.4167-11.413 1.1882z"/> <path d="m5086.3 1495c-3.4807-3.6273-3.2849-6.0347 0.8392-10.333 2.3788-2.4792 5.6968-4.0751 10.716-5.1533 3.9989-0.8591 8.6897-2.3209 10.425-3.2482 5.2629-2.8139 11.794-11.401 16.852-22.157 6.4257-13.663 10.581-18.839 24.678-30.738 6.5571-5.5344 16.159-15.172 21.337-21.416 14.402-17.369 23.8-23.92 40.822-28.457 14.383-3.8337 39.72-3.1068 92.782 2.6626 12.125 1.3179 26.729 2.7846 32.455 3.2588 19.026 1.5751 18.63 3.7186-5.2051 28.172-18.945 19.437-30.146 28.397-45.62 36.49-22.196 11.609-49.633 18.479-90.628 22.693-21.087 2.1675-24.315 3.3933-43.493 16.518-16.94 11.593-21.586 13.042-44.223 13.792-18.302 0.606-19.245 0.5158-21.738-2.0831z"/> <path d="m4867.3 1573.4c-14.991-3.5573-39.126-18.258-50.433-30.718-5.9694-6.5778-6.4614-7.5741-5.899-11.944 0.5615-4.3636 16.576-34.61 25.493-48.148 7.6783-11.658 19.116-18.113 32.504-18.344 19.905-0.3426 73.652 0.9615 75.795 1.8418 1.3469 0.5535 11.267 5.1945 22.045 10.313 10.777 5.1189 26.209 11.366 34.291 13.882 19.528 6.0796 20.208 6.4239 20.208 10.238 0 3.7631-1.0425 4.3864-21.432 12.814-23.377 9.6615-36.626 16.523-47.298 24.496-5.4666 4.0838-13.594 10.163-18.062 13.51-12.148 9.1011-25.797 17.196-33.939 20.129-9.5219 3.4312-23.525 4.2431-33.272 1.9302z"/> <path d="m5258.2 1611c-27.271-2.4912-41.186-7.6668-65.46-24.347-19.305-13.266-23.094-15.254-40.358-21.176-17.75-6.0887-25.244-10.45-36.58-21.289-3.8252-3.6573-9.4621-8.521-12.526-10.809-10.338-7.716-12.386-16.153-4.7241-19.46 3.3109-1.429 6.3914-1.1679 23.136 1.9606 21.025 3.9283 21.043 3.9275 41.296-1.8111 4.8519-1.3745 14.123-3.1155 20.602-3.8685 13.088-1.5212 18.738-3.3693 36.822-12.046 13.855-6.6478 26.57-9.6934 40.716-9.7538 5.1611 0 15.997-0.8711 24.08-1.8877 30.232-3.802 37.231-2.2847 49.623 10.757 5.717 6.0175 10.178 12.569 15.716 23.081 27.592 52.371 26.827 50.081 18.549 55.527-8.4387 5.5518-42.808 23.368-52.543 27.236-18.374 7.3012-37.084 9.8301-58.351 7.8873z"/> <path d="m4829.5 1781.1c-2.0446-1.4232-3.9535-5.7477-5.2727-11.945-2.3427-11.007-7.8019-65.853-7.9375-79.747-0.1343-13.803-0.046-14.395 4.1478-22.927 5.5694-11.378 13.174-17.776 35.499-29.863 19.378-10.491 30.248-17.749 41.506-27.71 11.157-9.872 20.879-16.842 36.28-26.012 7.4092-4.4113 18.431-11.294 24.494-15.295 6.0623-4.0002 16.213-10.277 22.557-13.948 6.3438-3.6708 15.386-9.4937 20.093-12.939 9.677-7.0826 15.63-8.2745 18.025-3.6089 2.164 4.2139-3.3216 14.048-15.963 28.617-6.0914 7.0204-12.138 15.074-13.437 17.897-1.2988 2.8228-4.3696 12.875-6.8238 22.338-5.6475 21.774-11.199 32.88-24.54 49.086-12.588 15.293-17.423 23.357-25.636 42.761-9.2679 21.893-11.076 25.033-19.375 33.636-5.6254 5.8322-12.363 10.667-25.951 18.625-10.094 5.9117-25.596 15.533-34.449 21.38-15.045 9.9371-19.906 11.959-23.217 9.655z"/> <path d="m5031.2 1843.6c-2.4217-2.6833-7.1176-9.7199-10.436-15.636-8.7504-15.602-14.623-24.571-24.766-37.824-20.806-27.185-28.326-42.421-31.216-63.252-3.0374-21.895 2.1362-38.602 20.47-66.101 12.6-18.899 18.186-28.625 20.131-35.044 0.8503-2.8083 4.0123-10.85 7.0265-17.87 3.0144-7.0203 7.8078-20.231 10.653-29.358 2.8449-9.1266 6.0994-18.452 7.232-20.723 3.4975-7.0155 12.669-7.2505 16.062-0.41 1.0147 2.0449 2.6949 9.6176 3.734 16.828 1.0393 7.2114 2.2297 14.577 2.6459 16.368 1.4909 6.4168 6.752 17.445 13.722 28.762 8.422 13.677 10.27 18.33 14.963 37.677 2.6291 10.839 5.7022 19.094 11.75 31.558 7.9412 16.368 8.2046 17.218 8.6851 28.081 0.6234 14.092-1.4443 23.635-9.6015 44.313-6.0892 15.436-29.286 61.41-37.542 74.409-9.0321 14.218-15.925 16.63-23.51 8.2249z"/> <path d="m5263.2 1869.3c-13.154-2.6997-16.736-3.7606-22.044-6.5287-14.525-7.5747-24.406-18.75-40.105-45.358-12.995-22.023-16.449-26.427-30.509-38.89-23.462-20.797-32.21-38.663-48.006-98.052-6.8747-25.846-14.053-45.771-20.13-55.876-6.2942-10.467-12.962-27.097-16.185-40.369-1.4433-5.9421-3.3222-12.548-4.1752-14.679-2.8777-7.1906-4.652-17.319-3.8322-21.874 0.6248-3.4725 1.702-4.9149 4.6251-6.1958 7.4672-3.2728 14.947 1.2982 23.388 14.293 10.465 16.11 21.94 26.889 32.784 30.796 10.525 3.7918 73.223 36.87 81.413 42.952 8.8826 6.5958 19.971 18.785 23.981 26.361 2.2871 4.3212 5.2204 6.9302 13.91 12.372 18.802 11.775 35.218 23.267 42.256 29.582 15.83 14.204 35.394 49.607 65.004 117.63 6.7447 15.494 13.612 30.947 15.262 34.34 3.6419 7.4906 3.7904 11.492 0.5401 14.558-2.2209 2.0947-5.6277 2.361-35.21 2.7518-18.013 0.2365-40.467 1.0009-49.898 1.6957-17.168 1.264-28.475 1.4314-33.067 0.4887z"/> </g> <g fill="#f2ad2c" stroke-width="1.2503"> <path d="m5708.4 1584.5c-3.8617-1.4276-11.172-7.854-15.712-13.812-7.284-9.5608-14.05-15.494-32.41-28.422-27.952-19.683-33.077-25.536-47.943-54.757-5.0249-9.8778-13.083-23.602-17.906-30.499-16.716-23.902-19.445-32.71-20.431-65.966-0.537-18.1-0.3426-23.007 0.9414-23.834 0.9679-0.6239 4.8474 0.2654 9.6599 2.209 12.317 4.9791 31.513 11.293 43.658 14.36 16.679 4.2121 22.001 7.7527 29.293 19.491 33.267 53.548 34.186 55.654 37.962 87.062 2.5444 21.16 4.4366 28.672 11.47 45.537 12.07 28.944 13.654 43.738 5.1684 48.267-1.0655 0.5688-2.7527 0.7333-3.7493 0.3667z"/> <path d="m5740.5 1597.4c-3.1258-4.9725-3.5378-19.989-0.9753-35.57 1.9936-12.121 1.9968-13.691 0.06-26.823-1.1312-7.6722-2.5347-27.447-3.1183-43.945-0.9582-27.088-1.3762-31.047-4.3132-40.845-6.1137-20.395-3.9261-31.016 9.1807-44.577 7.8431-8.1148 19.644-15.448 39.528-24.564 7.5853-3.4768 17.165-8.0107 21.289-10.074 4.1244-2.0644 8.3361-3.7529 9.3595-3.7529 1.8432 0 16.242 16.934 22.268 26.189 5.0214 7.7112 4.3335 11.714-5.4787 31.889-7.9356 16.317-9.214 20.087-14.713 43.378-6.6174 28.026-8.3638 33.236-17.766 52.992-3.5077 7.3715-8.7184 19.14-11.579 26.154-6.0978 14.951-9.1066 19.849-23.854 38.832-9.1742 11.81-11.553 14.154-14.362 14.154-2.3037 0-4.0488-1.0846-5.5263-3.4349z"/> <path d="m5586.3 1607.2c-7.9361-1.2731-15.663-3.9095-34.47-11.762-25.374-10.594-29.797-11.454-64.592-12.569-20.918-0.6702-32.615-1.5826-36.924-2.8792-19.415-5.8452-36.773-21.595-81.872-74.286-10.777-12.592-24.137-27.971-29.689-34.175-13.797-15.418-14.22-18.175-4.3645-28.447 6.2433-6.5064 40.222-33.48 53.979-42.85 10.707-7.293 16.124-9.3168 22.538-8.4205 2.6537 0.3716 12.923 4.7173 22.82 9.6583 12.473 6.2268 23.865 10.752 37.118 14.744 26.052 7.8473 31.292 10.044 41.119 17.237 11.844 8.6688 18.423 16.983 43.516 54.992 20.442 30.963 38.702 52.411 53.266 62.564 7.1247 4.9661 13.051 7.6244 28.259 12.674 19.888 6.6035 36.852 15.433 39.48 20.551 1.6547 3.2226 0.5406 7.196-2.4922 8.8877-3.2749 1.8265-28.41 7.2355-38.564 8.2988-4.7149 0.4941-12.431 1.9191-17.146 3.1677-10.764 2.8501-23.848 3.9202-31.98 2.6156z"/> <path d="m5763.8 1624.5c-1.6983-1.2943-2.7555-3.4441-2.7555-5.603 0-4.2526 2.4782-10.111 4.6496-10.992 0.8735-0.3522 7.1274-4.2415 13.898-8.6384 18.602-12.082 23.187-19.906 36.606-62.465 5.2695-16.713 10.126-29.648 12.997-34.612 9.8496-17.035 26.534-29.49 44.523-33.236 11.199-2.332 46.794-5.3472 49.648-4.2057 2.4324 0.9725 2.3223 1.837-2.8694 22.495-2.0288 8.0735-4.8495 23.008-6.2683 33.187-4.0849 29.305-3.6318 28.385-24.407 49.55-18.952 19.307-29.056 27.987-38.13 32.757-5.6861 2.9886-44.826 17.477-55.742 20.635-3.3678 0.974-11.359 2.099-17.758 2.5004-9.6338 0.6036-12.109 0.3667-14.39-1.3715z"/> <path d="m5380.1 1725.4c-9.0711-2.0986-17.407-5.0264-34.968-12.285-8.1179-3.3553-17.956-7.068-21.861-8.2514-7.2473-2.196-11.754-5.574-11.754-8.8107 0-4.1894 25.583-48.989 36.172-63.342 23.296-31.578 58.12-40.915 110.18-29.543 9.4303 2.0594 21.555 4.1324 26.944 4.6056 17.642 1.5496 29.099 3.4181 48.988 7.9881 14.633 3.3626 23.626 4.6705 35.516 5.1645 20.751 0.863 50.15-1.4473 68.584-5.3893 20.312-4.3437 24.867-4.1951 26.658 0.8713 1.2706 3.5951-3.4632 8.182-11.615 11.255-4.2326 1.5954-10.726 4.2367-14.431 5.8706-13.748 6.0622-40.078 15.592-48.571 17.579-10.923 2.5564-67.119 23.044-86.482 31.529-7.9305 3.4755-27.021 12.611-42.423 20.3-31.444 15.698-43.068 20.754-52.522 22.843-8.1337 1.7981-19.652 1.6416-28.414-0.3861z"/> <path d="m5868.2 1741.6c-2.0024-1.1292-8.6155-5.9377-14.696-10.686-6.0804-4.748-18.204-13.33-26.94-19.07-8.7369-5.7409-20.31-14.037-25.719-18.436-12.058-9.8069-16.246-12.046-32.026-17.119-15.479-4.9768-24.195-10.692-24.713-16.205-0.6727-7.1641 2.6921-8.7576 20.392-9.6563 9.4099-0.4776 21.443-2.1189 30.659-4.1808 13.762-3.0793 42.839-7.2981 64.106-9.3012 19.608-1.8467 27.24 6.7482 49.663 55.931 7.2024 15.798 11.075 25.725 10.57 27.097-0.7915 2.1497-26.279 18.506-34.236 21.972-5.4281 2.3639-12.51 2.2207-17.06-0.3474z"/> <path d="m5437.3 1836.8c-3.0421-4.5266-2.5509-14.054 2.2339-43.361 6.4469-39.488 8.2795-45.026 18.352-55.474 7.0918-7.3562 15.126-12.045 34.947-20.396 7.7463-3.2632 28.138-13.063 45.314-21.778 31.599-16.031 36.291-17.816 66.746-25.387 17.242-4.2864 25.769-8.4961 42.972-21.215 7.6574-5.6617 15.456-10.752 17.329-11.312 7.9829-2.386 11.986 3.6148 8.1643 12.241-1.1924 2.6919-8.8553 11.788-17.028 20.212-14.519 14.965-15.06 15.728-23.559 33.187-12.15 24.96-18.136 33.185-42.967 59.041-14.89 15.504-24.124 26.3-29.269 34.222-17.164 26.422-27.011 31.477-74.438 38.21-12.798 1.8168-28.556 3.6465-35.019 4.0658-11.359 0.7366-11.817 0.6619-13.778-2.2554z"/> <path d="m5613.6 1966c-2.0349-2.3427-8.8729-21.17-22.543-62.066-6.3443-18.979-6.864-21.416-7.352-34.464-0.474-12.666-0.2036-15.041 2.7491-24.252 1.8012-5.616 7.8351-19.114 13.409-29.996 5.574-10.882 14.185-28.893 19.136-40.026 9.6792-21.766 15.009-30.392 30.477-49.324 10.904-13.345 17.679-25.8 22.684-41.699 4.7863-15.202 11.204-20.885 17.294-15.315 4.3279 3.959 5.8165 14.394 5.1291 35.954-0.498 15.625-0.213 19.393 2.2653 29.996 1.559 6.6692 4.5492 24.476 6.6451 39.569 2.0959 15.094 5.1334 33.852 6.7497 41.685 5.7642 27.93 5.2797 37.888-2.6722 54.885-7.5046 16.042-31.683 44.509-71.683 84.395-13.984 13.945-17.836 15.787-22.288 10.659z"/> <path d="m5881.6 1974c-9.8423-4.3462-30.86-9.8719-52.932-13.917-35.96-6.5895-46.323-10.516-61.986-23.489-10.67-8.8372-22.769-24.991-26.498-35.379-4.604-12.824-5.1242-18.78-4.2761-48.952 1.1395-40.57-0.7412-54.865-12.428-94.456-3.8696-13.108-4.9583-27.316-2.9938-39.072 1.1414-6.8311 1.1233-11.567-0.083-21.852-1.4737-12.568-1.4326-13.28 0.9651-16.63 4.6751-6.532 10.186-5.4395 19.662 3.8991 3.7067 3.6529 9.507 10.266 12.89 14.696 7.4259 9.725 17.082 16.716 42.437 30.727 10.371 5.7303 21.4 12.366 24.51 14.745 7.2894 5.577 17.265 16.584 26.685 29.443 9.3172 12.719 17.653 21.024 30.847 30.734 12.108 8.9109 17.294 16.134 21.501 29.949 6.8728 22.566 7.4283 52.466 1.92 103.34-2.0145 18.604-3.6679 34.215-3.6743 34.692-0.046 1.9201-4.0239 4.8745-6.5285 4.8238-1.4673-0.048-5.9748-1.5144-10.016-3.2988z"/> </g> <path d="m5079.1 2166.1c-16.739-8.6354-26.743-46.779-17.473-66.624 2.8564-6.1148 12.639-15.372 19.321-18.281 6.8479-2.982 18.008-1.843 24.549 2.5057 21.121 14.042 25.169 53.288 7.6422 74.093-8.8457 10.5-23.062 13.969-34.039 8.3064z" fill="#b29245" stroke-width="1.2503"/> <g fill="#f2ad2c" stroke-width="1.2503"> <path d="m5086.2 2070.1c-5.7296-4.0737-14.986-20.636-19.426-34.758-2.039-6.4848-6.8515-17.099-11.223-24.755-10.121-17.723-14.464-28.668-16.108-40.592-1.2018-8.718-1.0619-11.051 1.2408-20.676 3.586-14.99 14.407-36.866 32.199-65.098 8.1846-12.987 19.839-31.943 25.898-42.122 23.97-40.269 31.928-51.428 37.767-52.955 8.5295-2.2313 13.747 4.5406 30.473 39.553 20.855 43.654 22.482 55.527 12.93 94.364-3.0092 12.236-7.4274 33.632-9.8177 47.548-9.0284 52.558-13.319 60.352-48.395 87.907-7.0727 5.5562-14.767 11.118-17.099 12.36-6.0229 3.2083-13.266 2.9043-18.439-0.7742z"/> <path d="m5050.7 2074.8c-2.3579-1.882-6.491-5.5764-9.1854-8.2106-2.6944-2.6331-10.35-8.3117-17.012-12.619-16.852-10.894-48.194-36.623-61.408-50.41-6.0836-6.3474-15.014-17.572-19.846-24.944-11.232-17.137-16.613-22.467-30.94-30.646-22.237-12.695-28.951-19.772-32.509-34.271-2.4603-10.025-1.9738-15.289 4.5584-49.323 4.3414-22.622 4.8463-27.128 4.4335-39.569-0.4977-15.011-1.5831-18.506-8.5541-27.549-3.5577-4.6155-3.672-7.9757-0.3147-9.3179 2.1412-0.8562 27.909 6.4667 43.428 12.342 27.042 10.238 53.767 27.549 72.292 46.827 22.912 23.843 29.208 46.235 26.567 94.491-1.8909 34.558 1.6756 63.248 10.076 81.053 2.3167 4.9112 8.8415 13.663 18.189 24.398 8.0166 9.2073 14.947 18.282 15.401 20.166 2.3034 9.5651-6.9167 14.173-15.173 7.5819z"/> <path d="m5021.9 2099c-2.0209-0.2942-11.941-2.1887-22.045-4.2131-14.952-2.9949-21.219-3.6365-33.68-3.4475-17.414 0.2654-18.699-0.062-39.318-10.03-19.249-9.3041-23.802-10.198-41.683-8.1796-17.962 2.0276-28.225 1.2321-36.741-2.8479-16.49-7.9001-23.149-19.055-33.661-56.391-2.3926-8.4984-6.2303-19.571-8.5286-24.606-6.2863-13.772-6.4108-13.494 9.5993-21.508 25.31-12.67 40.308-14.11 57.255-5.4996 5.0518 2.567 12.768 7.6045 17.146 11.194 11.93 9.7813 23.777 17.967 36.741 25.386 17.132 9.8045 23.951 15.58 48.988 41.485l22.657 23.443 18.37 9.2675c22.366 11.283 26.331 14.173 26.331 19.195 0 6.7252-6.8144 8.8713-21.432 6.7502z"/> <path d="m5136 2101.1c-5.1172-1.6011-6.9636-3.6896-6.9636-7.8776 0-5.4264 1.6794-8.1126 12.35-19.756 21.655-23.63 38.271-51.812 52.565-89.155 10.081-26.334 13.944-33.333 24.347-44.102 10.93-11.316 23.723-19.43 47.904-30.388 50.665-22.958 56.975-25.019 102.26-33.398 45.703-8.4561 50.095-9.0185 55.411-7.1024 2.5296 0.9124 4.7764 2.598 4.9921 3.7461 0.6036 3.2116-19.808 43.644-27.683 54.834-3.8502 5.4717-13.175 18.719-20.721 29.438-14.575 20.702-28.386 35.668-45.065 48.831-13.044 10.295-51.869 39.436-61.848 46.422-4.3783 3.0648-10.716 8.1497-14.084 11.3-7.8295 7.3219-23.765 18.208-32.644 22.301-12.938 5.9635-20.151 7.6003-45.934 10.424-9.5386 1.0444-22.148 2.7725-28.022 3.8401-11.867 2.1569-12.012 2.1622-16.867 0.6435z"/> <path d="m5346.4 2238.6c-9.3743-2.527-19.008-8.194-40.415-23.776-24.793-18.046-31.659-22.03-45.987-26.681-14.65-4.7558-54.742-14.882-68.91-17.405-15.193-2.705-31.678-11.996-41.603-23.445-5.1869-5.984-6.1104-12.306-2.3194-15.881 2.9707-2.8025 13.627-6.5337 26.141-9.1532 5.6147-1.1752 15.72-4.5976 22.456-7.605 14.317-6.3923 18.321-7.7591 42.864-14.634 26.424-7.401 35.886-9.1228 54.552-9.9251 18.667-0.8028 31.009 1.0956 44.953 6.9132 17.725 7.3957 58.986 40.048 88.18 69.783 22.037 22.445 22.227 23.476 5.4231 29.433-13.836 4.9049-26.732 12.589-41.858 24.941-21.447 17.514-30.184 21.018-43.477 17.435z"/> <path d="m4840.3 2255.7c-13.893-5.3802-39.494-27.085-39.483-33.474 0-1.6658 1.6867-5.6131 3.7423-8.7724 4.9746-7.6461 11.343-20.73 15.866-32.598 8.1837-21.471 13.648-29.38 24.716-35.77l6.4957-3.75 30.005-0.1011c28.977-0.096 30.362-0.2172 40.415-3.5121 24.876-8.1545 29.649-8.9062 48.988-7.7156 21.138 1.3021 39.118 0.9958 55.422-0.943 10.497-1.2486 12.315-1.1681 15.002 0.6672 6.9857 4.7706 2.3865 12.581-11.392 19.347-28.229 13.861-37.099 19.033-47.953 27.964-13.231 10.887-20.992 15.49-35.554 21.085-20.968 8.0576-24.827 10.803-55.744 39.646-19.306 18.012-35.485 23.751-50.528 17.925z"/> <path d="m5273.6 2374.3c-7.0723-0.5412-19.472-1.0646-27.556-1.1626-40.376-0.4906-53.855-11.762-70.378-58.85-6.9381-19.773-11.964-29.283-22.13-41.877-9.0816-11.25-11.577-15.749-20.856-37.596-3.2092-7.5554-7.9147-16.746-10.457-20.423-9.1428-13.225-10.283-15.397-10.283-19.599 0-3.2274 0.8059-4.8084 3.3264-6.5229 6.8788-4.6806 39.505-1.4487 53.623 5.3116 3.368 1.6126 10.808 6.1881 16.533 10.168 19.153 13.312 34.635 20.653 64.91 30.778 35.196 11.771 46.703 24.18 56.803 61.253 6.7974 24.951 13.005 54.558 13.005 62.029 0 15.844-9.7706 19.306-46.539 16.492z"/> <path d="m4873.9 2428c-4.1294-5.1147-7.0108-13.515-15.767-45.971-8.7864-32.566-10.139-44.485-6.1216-53.951 3.3504-7.8935 10.705-15.965 25.359-27.83 16.385-13.267 23.303-20.967 33.178-36.927 8.9424-14.454 17.355-24.492 26.173-31.232 3.0573-2.3369 14.481-9.1552 25.385-15.151 25.146-13.828 40.741-24.625 57.334-39.692 21.892-19.879 32.949-24.022 41.549-15.57 6.728 6.6132 6.2263 11.913-2.3755 25.079-3.7118 5.6815-8.0447 13.028-9.6292 16.324-6.5428 13.614-16.696 39.958-19.72 51.166-1.7789 6.5914-6.246 19.934-9.9278 29.65-3.6817 9.7157-8.6484 25.001-11.037 33.966-8.1856 30.725-10.294 37.081-14.354 43.28-5.5421 8.4617-12.668 13.146-29.79 19.584-22.097 8.3083-41.692 20.15-65.269 39.442-5.68 4.6478-11.466 9.148-12.86 10.001-4.4497 2.7238-8.8044 1.9452-12.126-2.169z"/> <path d="m5050.3 2479.7c-6.7075-3.7176-36.419-26.065-42.268-31.791-13.562-13.279-13-31.725 1.8835-61.836 11.044-22.344 13.334-29.227 18.925-56.878 5.6138-27.765 8.459-36.679 18.183-56.968 10.039-20.946 13.078-30.742 15.933-51.369 2.9338-21.196 4.0918-25.6 8.2614-31.415 5.8161-8.1113 16.867-9.9754 23.079-3.8928 3.3494 3.2795 4.5756 9.3403 6.559 32.429 1.6234 18.893 1.3229 18.165 17.875 43.399 13.251 20.202 14.339 22.623 27.233 60.63 12.119 35.721 14.404 45.178 13.392 55.404-1.4492 14.634-7.792 23.038-34.9 46.242-30.549 26.15-37.881 33.206-47.012 45.241-11.334 14.938-16.195 16.873-27.144 10.806z"/> </g> <path d="m5576.5 2596.4c-11.765-2.8255-19.651-13.356-24.391-32.572-5.3167-21.551-2.9328-37.006 7.5782-49.132 18.584-21.439 46.108-7.3681 52.183 26.678 1.0387 5.8225 1.0022 9.788-0.1528 16.526-4.2325 24.683-20.174 42.111-35.216 38.499z" fill="#b29245" stroke-width="1.2503"/> <path d="m5282.3 2976.7c-5.6504-0.6619-20.531-3.5308-33.067-6.3758-49.599-11.256-57.628-12.513-114.65-17.948-58.542-5.5802-96.816-5.7742-134.57-0.6811-30.191 4.0728-47.608 4.423-72.879 1.4642-17.654-2.0667-19.165-2.0624-30.484 0.086-24.364 4.6294-31.944 3.788-41.04-4.5572-6.1939-5.6825-14.356-19.462-18.234-30.785-2.4649-7.1959-2.781-10.516-2.781-29.181 5e-4 -17.638 0.6277-25.003 3.8577-45.313 6.2702-39.422 7.0232-47.288 6.9658-72.757-0.056-25.29 0-24.812-8.249-71.48-4.2885-24.27-6.9329-46.382-11.982-100.2-2.0792-22.164-2.7004-37.315-2.723-66.375-0.051-65.887 1.0549-122.42 2.4208-123.85 2.5495-2.6571 5.112 0.483 15.431 18.909 28.888 51.58 32.921 63.918 40.152 122.81 2.1122 17.2 6.2457 44.196 9.1859 59.992 9.8361 52.839 10.942 70.648 7.4117 119.35-0.9676 13.339-2.0969 31.145-2.5103 39.569-1.9001 38.732-4.3959 50.61-17.116 81.459-4.9741 12.063-10.957 28.538-13.296 36.611-4.227 14.593-8.7929 35.531-7.9416 36.418 0.2453 0.2557 4.2376-0.798 8.8729-2.3408 8.1763-2.7214 8.5905-3.0664 13.896-11.577 7.8343-12.566 17.623-34.711 23.311-52.733 6.1174-19.384 21.317-81.697 24.618-100.93 4.1747-24.318 5.3875-50.063 3.7803-80.249-6.453-121.19-0.6906-171.5 26.704-233.11 3.7484-8.4306 5.5494-11.169 7.3445-11.169 3.6753 0 4.7667 2.4445 5.4143 12.126 0.4351 6.5163 3.1207 16.883 9.9181 38.293 13.626 42.921 14.795 50.092 16.749 102.75 0.6902 18.604 2.4066 46.462 3.8142 61.906 4.6991 51.569 1.7298 73.926-16.173 121.79-3.2593 8.7133-5.4796 15.319-4.9344 14.679 0.5453-0.6393 5.5532-8.0557 11.129-16.48 16.552-25.01 28.995-40.905 47.795-61.054 26.409-28.304 32.967-32.085 31.39-18.099-1.1904 10.555-5.7568 22.198-13.404 34.177-5.2694 8.2534-13.346 17.288-34.07 38.108-31.611 31.759-51.966 54.527-59.203 66.222-5.685 9.1873-23.298 40.933-27.487 49.543-2.3907 4.9135-2.4412 5.3689-0.4707 4.2356 6.3822-3.6707 25.749-21.49 48.114-44.268 34.786-35.431 50.239-47.61 73.484-57.92 33.444-14.833 77.044-16.784 128.93-5.7708 8.093 1.718 16.182 3.1237 17.976 3.1237 6.7908 0 8.2855 5.9368 2.5634 10.183-2.0002 1.4846-8.9604 10.16-15.468 19.279-6.5076 9.1199-14.638 19.14-18.068 22.267-9.1683 8.3591-21.117 13.894-41.209 19.089-24.583 6.3565-30.612 8.5218-55.112 19.791-28.979 13.33-34.304 15.061-59.398 19.305-20.721 3.5044-29.851 6.3787-56.336 17.738-23.346 10.012-44.916 17.567-66.911 23.435-6.4891 1.7316-13.93 4.3193-16.533 5.7511l-4.7348 2.6028 11.18 0.058c12.57 0.063 23.591-1.8039 70.449-11.937 68.334-14.778 91.392-16.398 156.58-11.006 37.148 3.0727 63.476 3.7867 145.13 3.9353 92.986 0.1689 91.093 0.275 116.96-6.4396 5.7253-1.4858 15.65-3.0362 22.056-3.4463 22.141-1.4165 37.933 5.0143 78.37 31.912 30.993 20.615 32.826 24.354 13.472 27.48-5.0519 0.8158-15.247 2.6105-22.657 3.9888-14.393 2.677-41.852 3.2332-72.87 1.4767-18.258-1.0339-35.645 0.068-56.035 3.5487-18.468 3.1532-39.217 4.162-52.826 2.568z" fill="#ba9948" stroke-width="1.2503"/> <g fill="#a45944" stroke-width="1.2503"> <path d="m5558.2 2476.6c-14.593-9.2745-27.676-42.385-40.994-103.74-6.6261-30.528-9.4195-40.265-23.714-82.654-5.4-16.014-7.4296-27.942-9.9047-58.2-3.5803-43.771-6.0688-51.003-26.134-75.948-9.7196-12.084-13.156-18.253-23.348-41.907-3.8521-8.9404-8.8826-19.108-11.18-22.595-2.2968-3.487-12.243-15.006-22.102-25.598-30.775-33.063-33.302-43.469-17.544-72.226 9.8395-17.956 15.142-25.478 26.704-37.878 21.211-22.75 32.34-31.25 67.944-51.895 25.511-14.793 41.705-22.352 49.96-23.322 7.8685-0.9244 10.506 2.7595 21.722 30.346 5.2809 12.987 16.364 38.26 24.629 56.163 15.545 33.671 21.327 48.702 29.805 77.482 6.2947 21.369 8.0051 31.686 7.1349 43.035-0.8582 11.191-3.7448 19.937-12.613 38.211-20.446 42.135-23.493 53.859-29.245 112.51-1.721 17.551-4.8251 44.547-6.8987 59.992-6.4929 48.363-6.1383 90.07 0.9442 111.05 5.4754 16.218 11.441 42.558 11.441 50.515 0 15.961-6.8678 22.849-16.608 16.658z"/> <path d="m5622.9 2486.3c-1.858-2.471-18.195-46.459-20.977-56.482-7.7398-27.886-8.155-53.287-1.5127-92.541 2.0788-12.286 4.8972-33.538 6.2631-47.228 4.4498-44.603 7.3668-57.468 22.826-100.66 13.269-37.076 16.442-49.082 18.766-71.018 4.5307-42.75 7.3066-55.551 15.89-73.274 8.8624-18.297 26.671-41.881 47.363-62.721 29.152-29.36 39.524-31.922 51.464-12.71 11.144 17.932 22.262 32.625 46.42 61.342 37.14 44.151 40.264 49.785 40.297 72.683 0.046 22.221-5.1231 36.132-25.309 68.289-21.96 34.982-27.134 46.362-40.923 89.988-17.898 56.629-26.644 69.663-96.926 144.46-34.749 36.979-44.338 49.186-52.466 66.794-5.481 11.873-7.1918 14.679-8.9489 14.679-0.5647 0-1.5664-0.718-2.226-1.5955z"/> <path d="m5523.5 2507.6c-7.6926-2.4629-20.369-7.1039-28.168-10.312-21.504-8.8472-79.08-39.071-88.614-46.516-10.561-8.2472-21.177-22.432-28.992-38.741-9.5807-19.991-10.066-22.842-11.096-65.133-0.5769-23.664-1.6637-42.386-3.0139-51.901-3.1105-21.925-0.7337-25.344 15.273-21.962 20.536 4.338 52.121 17.781 68.595 29.195 17.738 12.29 24.892 24.382 38.514 65.09 20.42 61.026 30.194 83.165 46.501 105.33 12 16.312 16.823 25.212 16.99 31.354 0.2592 9.51-5.1685 10.261-25.989 3.5955z"/> <path d="m5622.7 2545.9c-2.712-2.3788-3.7683-4.4113-3.7683-7.2529 0-3.3301 2.0608-6.0625 13.166-17.462 7.2413-7.4329 18.183-17.404 24.316-22.158 10.041-7.7845 12.534-10.639 25.054-28.695 17.55-25.309 20.828-29.556 42.08-54.514 22.993-27.004 29.934-36.279 47.284-63.189 8.0185-12.436 18.196-27.281 22.618-32.988 18.763-24.221 39.754-36.108 70.297-39.809 12.725-1.5418 40.542-1.141 44.531 0.6421 3.3896 1.5149 3.8711 6.4583 2.2991 23.627-0.8045 8.7918-2.5389 30.244-3.8535 47.67-2.6522 35.159-3.2554 38.53-8.4059 46.994-4.3811 7.2004-12.619 14.166-47.305 39.999-41.727 31.077-47.638 34.225-91.122 48.514-43.601 14.328-78.117 30.763-102.49 48.799-15.441 11.428-18.736 13.126-25.456 13.126-4.1066 0-6.4216-0.8273-9.2461-3.3042z"/> <path d="m5429.7 2563.1c-16.774-3.4252-21.777-3.8501-57.561-4.8919-42.183-1.2282-46.179-1.7951-64.486-9.1536-24.007-9.6491-48.321-26.03-110.93-74.734-34.562-26.886-34.809-27.34-21.653-39.872 8.6312-8.2214 44.232-32.996 56.475-39.301 8.3551-4.3022 10.414-4.843 18.064-4.7408 7.712 0.1011 10.268 0.8761 23.942 7.237 8.4198 3.9168 22.973 9.5028 32.339 12.414 27.306 8.4855 29.841 10.136 63.427 41.308 19.325 17.936 40.171 32.769 60.384 42.966 29.857 15.062 52.25 22.014 77.796 24.148 17.855 1.4922 22.017 3.0891 22.017 8.4475 0 4.2367-7.8559 13.055-20.207 22.681-23.411 18.246-41.393 21.294-79.606 13.491z"/> <path d="m5854.7 2682.1c-4.0414-2.0329-13.686-8.4039-21.432-14.157-20.446-15.185-34.268-21.768-58.786-27.994-19.461-4.9415-31.839-8.937-49.166-15.87-13.408-5.3646-26.329-8.2634-46.361-10.402-37.758-4.0297-53.636-7.8882-62.996-15.308-5.9887-4.7481-6.9594-9.1073-2.8879-12.968 2.7708-2.6263 5.5282-3.7176 32.204-12.746 7.4094-2.5078 23.189-9.0568 35.067-14.554 25.212-11.669 34.885-15.207 57.398-20.995 57.515-14.788 65.97-15.678 80.244-8.4464 16.504 8.3624 39.248 35.649 70.135 84.144 14.999 23.55 24.753 41.629 24.753 45.879 0 3.5353-4.6102 8.277-14.591 15.007-19.803 13.351-29.891 15.298-43.582 8.4105z"/> <path d="m5171.9 2733.3c-2.3574-1.181-16.962-15.437-32.454-31.681-24.958-26.168-30.929-31.669-52.393-48.267-13.323-10.303-24.829-20.116-25.568-21.806-2.6221-5.998-0.5401-8.926 12.125-17.051 6.572-4.2159 16.299-11.598 21.616-16.404 31.598-28.56 33.954-29.755 65.125-33.02 9.8848-1.0359 23.232-2.8175 29.658-3.9587 7.8462-1.3944 15.542-1.8651 23.425-1.4334 12.277 0.672 13.846 1.1579 48.343 14.96 24.622 9.8518 45.204 13.704 65.659 12.289 6.3989-0.4439 26.239-1.6596 44.089-2.7051 87.83-5.1418 85.234-4.7448 124.7-19.061 23.607-8.5641 35.74-9.2037 35.74-1.8839 0 4.6974-4.5904 7.3141-47.763 27.227-12.462 5.7473-28.168 14.111-34.904 18.584-25.336 16.828-34.347 22.113-74.21 43.53-22.502 12.089-45.085 24.16-50.185 26.823-11.396 5.9523-32.411 14.748-40.818 17.084-5.4364 1.5104-28.397 10.667-83.002 33.104-15.648 6.4292-22.06 7.2354-29.18 3.6693z"/> <path d="m5256.3 2878.2c-4.4856-3.5898-5.4087-7.6046-5.2231-22.72 0.2222-18.168 3.673-58.652 6.0253-70.708 3.7484-19.212 12.084-30.158 35.433-46.528 21.413-15.013 27.007-19.798 47.151-40.328 20.361-20.751 24.716-24.185 50.213-39.588 9.0932-5.4933 28.106-17.452 42.252-26.574 14.145-9.1227 34.578-21.013 45.407-26.423 10.829-5.4096 25.264-13.366 32.078-17.681 15.19-9.6182 19.631-11.605 25.935-11.605 3.9321 0 5.324 0.6585 6.99 3.3089 1.9607 3.1185 1.9565 3.6892-0.065 9.8938-1.3913 4.2656-5.3402 10.585-11.215 17.948-10.268 12.869-18.731 29.474-22.504 44.158-1.353 5.2652-4.1521 19.625-6.2197 31.911-2.0681 12.286-7.307 38.42-11.642 58.077-9.6515 43.765-12.974 51.969-26.229 64.759-12.198 11.77-28.614 20.564-57.923 31.027-23.478 8.3811-139.67 42.713-144.4 42.666-2.2658 0-4.994-0.7407-6.0628-1.5955z"/> <path d="m5838.2 2953.8c-27.623-1.5954-32.922-4.9453-50.105-31.677-13.987-21.76-25.501-35.63-43.866-52.84-28.226-26.454-35.249-35.806-48.194-64.185-3.9863-8.7397-10.459-22.927-14.384-31.527-3.9243-8.5998-14.306-27.698-23.069-42.441-8.7638-14.743-19.97-33.985-24.903-42.761-12.618-22.446-17.178-29.192-27.523-40.722-4.9894-5.5606-10.524-13.098-12.3-16.75-2.7839-5.726-3.0329-7.1317-1.8077-10.214 1.8146-4.5658 7.4631-7.0498 15.35-6.7508 7.5478 0.2846 15.156 3.3221 30.136 12.024 6.2969 3.6584 18.614 9.7954 27.37 13.638 13.205 5.7948 18.847 7.4988 33.067 9.9872 52.47 9.183 69.034 16.758 94.394 43.169 30.466 31.729 47.096 62.273 68.849 126.45 9.72 28.678 32.13 90.907 38.931 108.11 5.9865 15.139 6.6026 19.934 2.9971 23.334-4.3988 4.1489-27.937 5.2928-64.943 3.1561z"/> <path d="m5572.6 2976.5c-2.0889-1.5795-9.5422-7.754-16.563-13.722-7.021-5.9671-20.136-16.001-29.144-22.298-22.352-15.623-34.341-25.317-36.893-29.83-3.3337-5.8972-2.6398-14.929 2.6459-34.42 5.3378-19.686 7.9657-35.934 9.9499-61.518 1.7808-22.96 5.4658-39.409 15.012-67.013 14.618-42.269 17.718-55.813 20.455-89.35 1.7664-21.655 4.5144-31.147 11.743-40.562 9.2035-11.987 16.154-13.92 19.554-5.4379 0.9202 2.2953 2.8828 15.307 4.3612 28.916 3.4532 31.775 4.7579 34.731 31.412 71.15 27.284 37.279 53.683 86.732 63.044 118.1 3.5244 11.81 3.71 28.957 0.4212 39.083-7.5967 23.402-25.711 50.258-52.273 77.501-18.085 18.548-34.47 32.253-38.579 32.267-0.7425 0-3.0587-1.2876-5.1472-2.8671z"/> </g> </g> </g> </svg>