<?xml version='1.0' encoding='utf-8'?>
<svg xmlns="http://www.w3.org/2000/svg" width="1323.2mm" height="1819.2mm" version="1.1" viewBox="0 0 1323.2 1819.2"> <g transform="translate(1486.1 1614.4)"> <g transform="translate(-4742.9 -2876.2)"> <path d="m3256.8 1261.9h1323.2v1819.2h-1323.2z" fill="#2f3e43" stroke-width="1.4212"/> <path d="m3354.9 1450.9c-14.491-4.0192-23.521-10.528-28.914-20.843-3.1242-5.9756-3.5153-8.1758-3.5258-19.848-0.013-10.087 0.6954-15.394 3.0424-22.916 6.1569-19.732 16.073-35.356 24.739-38.977 5.6056-2.3423 23.584-2.235 35.178 0.2084 24.974 5.2665 42.774 22.764 42.62 41.898-0.1672 20.857-24.207 51.049-47.068 59.115-8.3118 2.9326-18.49 3.464-26.072 1.3608z" fill="#ffb040" stroke-width="1.3127"/> <path d="m4323.3 1661.7c-22.994-8.9961-36.561-31.7-36.615-61.274-0.021-11.952 2.4881-22.057 7.6408-30.759 1.9238-3.2493 4.7237-8.2703 6.2219-11.158 6.0564-11.674 20.991-18.076 35.257-15.114 24.941 5.1777 42.778 33.628 42.735 68.161-0.025 19.281-3.4396 29.491-13.551 40.505-10.536 11.477-27.165 15.322-41.689 9.6401z" fill="#ffb040" stroke-width="1.3127"/> <g transform="matrix(.98563 0 0 .98563 47.767 19.203)" fill="#f4f0e5" stroke-width="1.3127"> <path d="m3780.7 1452.8c-11.868-1.8328-27.911-7.0789-55.939-18.292-31.466-12.589-41.187-15.875-66.364-22.433-46.334-12.068-134.39-27.727-169.92-30.218-35.535-2.4912-53.798-6.7262-55.768-12.933-0.938-2.9555 0.7706-5.9095 4.604-7.9611 3.6721-1.9652 35.194-5.1568 142.4-14.418 75.588-6.5297 72.415-6.2841 110.91-8.5852 37.875-2.2639 71.182-2.4688 86.691-0.5329 20.62 2.574 39.767 11.644 46.054 21.817 8.5071 13.764-9.0646 30.365-36.342 34.334l-6.4651 0.9406 8.5327 4.0564c21.877 10.401 35.412 26.716 32.334 38.977-2.9821 11.881-20.365 18.39-40.718 15.248z"/> <path d="m3693.9 1576.3c-28.036-6.0897-50.013-17.594-88.104-46.12-25.624-19.189-32.907-24.01-64.171-42.478-44.427-26.244-97.96-62.971-102.06-70.02-4.4813-7.6996-1.6019-14.295 8.0555-18.449 10.507-4.5204 26.664-3.8481 73.697 3.0646 91.175 13.401 113.05 17.028 143.65 23.821 51.73 11.481 81.811 23.004 96.978 37.15 7.9811 7.4436 10.059 11.455 10.059 19.418 0 9.1627-4.3066 14.847-15.381 20.3-8.1642 4.0207-9.8162 4.3551-21.525 4.3551h-12.682l8.9802 9.457c15.855 16.696 22.072 31.617 17.816 42.759-6.2882 16.466-27.305 22.827-55.315 16.743z"/> <path d="m3545.6 1701.9c-29.813-11.087-53.659-44.476-76.559-107.2-7.5848-20.775-19.173-51.715-25.074-66.948-1.5383-3.9708-9.0085-19.625-16.601-34.786-15.473-30.9-17.69-38.653-12.531-43.812 2.142-2.1425 4.4031-2.7895 9.7499-2.7895 10.785 0 25.376 7.5807 64.888 33.711 22.08 14.602 34.757 21.24 66.877 35.02 38.323 16.441 57.125 28.34 77.891 49.292 17.96 18.121 27.278 34.713 30.249 53.865 4.709 30.35-11.236 46.581-39.568 40.278-5.3837-1.1977-13.878-4.2352-18.876-6.7501-4.9981-2.5145-9.1212-4.5719-9.1626-4.5719-0.04 0-0.076 6.6459-0.076 14.768 0 17.135-1.9977 23.056-11.119 32.951-9.3819 10.178-24.428 12.793-40.09 6.9687z"/> <path d="m3428.9 1706.9c-12.34-4.3978-25.377-16.549-33.466-31.191-3.4765-6.293-5.4033-7.8377-5.4033-4.3313 0 1.0578-0.9429 4.7009-2.0955 8.0955-6.211 18.294-20.261 26.961-36.19 22.324-16.434-4.7839-25.602-21.654-27.919-51.377-0.8672-11.123 1.0011-49.343 3.2726-66.948 1.3905-10.777 5.7704-36.172 13.81-80.075 6.8823-37.582 7.166-38.775 9.8626-41.472 6.7036-6.7039 13.456-0.6049 24.077 21.747 9.0203 18.984 16.458 30.658 31.938 50.133 44.292 55.721 55.718 76.365 61.293 110.74 3.5972 22.181 1.6218 40.806-5.5603 52.423-6.6924 10.824-20.042 14.767-33.619 9.9283z"/> </g> <g fill="#f4f0e5" stroke-width="1.3127"> <path d="m4354.2 1537.1c-5.6707-3.5156-6.5069-4.7976-14.833-22.745-15.008-32.349-22.057-42.681-61.22-89.733-25.165-30.234-29.946-38.344-30.724-52.117-0.5848-10.35 1.0736-15.436 6.532-20.029 17.464-14.695 75.631 11.777 97.849 44.532l3.5294 5.2031 2.8141-9.1414c3.5541-11.546 6.1475-16.488 12.119-23.098 7.2584-8.0347 13.735-10.905 24.629-10.916 6.341 0 10.743 0.7535 14.204 2.4518 20.956 10.283 27.15 40.864 15.708 77.554-7.3643 23.617-29.646 64.349-44.25 80.89-4.7038 5.3282-10.196 11.586-12.204 13.906-4.6662 5.3931-9.0597 6.3992-14.153 3.2422z"/> <path d="m4286.6 1540.7c-3.9711-0.5905-20.216-2.0103-36.1-3.1549-45.278-3.2637-89.394-8.7786-127.33-15.919-81.293-15.3-118.8-36.724-118.8-67.862 0-6.9216 0.6381-9.2956 3.8663-14.386 7.843-12.367 25.576-18.302 46.402-15.531 15.866 2.1111 32.858 7.4004 47.074 14.653 5.9861 3.0543 5.7947 2.4341-2.341-7.582-3.0481-3.7528-8.0966-11.977-11.219-18.276-5.5609-11.219-5.6768-11.723-5.6768-24.682 0-12.406 0.2351-13.576 3.7733-18.792 2.5783-3.8006 6.1124-6.7109 11.158-9.1892 6.7061-3.2929 8.6509-3.6163 21.168-3.5157 15.263 0.124 29.701 2.7135 48.57 8.7158 41.707 13.268 73.704 38.897 110.6 88.596 16.517 22.245 25.879 40.737 31.243 61.709 4.1739 16.32 3.1937 21.448-4.733 24.76-4.8394 2.0218-6.7915 2.0724-17.658 0.4564z"/> <path d="m4390.6 1580.2c-5.092-3.1043-7.3402-8.1531-6.362-14.287 0.3901-2.446 4.5091-10.716 9.1533-18.378 10.032-16.551 14.564-25.451 21.751-42.721 7.9356-19.067 15.135-42.687 18.432-60.474 7.7221-41.655 13.924-60.164 24.681-73.671 13.388-16.809 35.711-18.409 43.824-3.143 2.9703 5.5895 3.2141 17.431 0.5691 27.628-1.0237 3.9467-1.6651 7.3726-1.4251 7.6123 0.2401 0.2382 1.6295-0.2035 3.0878-0.9824 5.3792-2.879 11.971-1.7241 16.604 2.9084 5.3285 5.3285 7.2071 11.741 7.2166 24.633 0.02 26.639-16.549 60.544-46.42 94.994-37.718 43.498-74.46 66.034-91.111 55.881z"/> <path d="m4463.2 1650.6c-6.4978-1.7439-21.214-6.4835-32.703-10.533-11.489-4.0485-24.484-8.2886-28.88-9.4217-9.4818-2.445-12.586-4.8806-12.586-9.8751 0-4.9799 6.2713-11.043 19.194-18.556 6.3292-3.6795 13.907-9.6773 19.53-15.459 12.019-12.357 27.237-24.538 35.443-28.37 20.732-9.6812 41.887 3.0081 41.902 25.133 0 9.7362-2.881 16.062-11.336 24.834-3.4372 3.5658-6.1087 6.583-5.9367 6.7045 0.1721 0.1185 3.4546 1.9042 7.2947 3.9617 7.804 4.1809 14.206 10.734 15.492 15.858 0.5165 2.0586 0.025 5.1321-1.249 7.8029-4.9932 10.471-24.314 13.786-46.167 7.9209z"/> <path d="m4006.4 1717.4c-15.752-5.6114-25.712-23.133-25.642-45.109 0.066-20.429 4.9365-31.529 21.016-47.888 6.2701-6.3794 10.745-11.828 9.9438-12.108-0.8009-0.2829-6.1035-1.4493-11.784-2.5984-22.451-4.5401-37.279-12.703-44.608-24.558-7.4942-12.121-7.0045-25.28 1.3018-34.984 16.294-19.036 50.531-22.628 107.54-11.282 27.12 5.398 58.403 14.338 114.12 32.613 23.104 7.5775 51.11 16.511 62.237 19.851 26.473 7.9476 30.63 10.248 32.306 17.881 2.359 10.74-15.381 22.472-51.376 33.975-16.686 5.3325-37.521 14.118-65.483 27.61-53.75 25.936-66.67 31.651-87.751 38.82-26.529 9.0219-50.027 11.978-61.822 7.7761z"/> <path d="m4488.8 1817.3c-11.58-6.1799-17.269-13.69-51.81-68.4-11.396-18.05-28.908-45.107-38.917-60.126s-18.197-28.346-18.197-29.613c0-1.2678 0.8429-3.4513 1.8731-4.8529 1.619-2.2024 3.3555-2.5189 12.799-2.3349 9.0373 0.1738 14.783 1.3893 33.242 7.0186 12.274 3.7428 31.103 9.4341 41.842 12.646 22.356 6.688 30.546 10.445 35.437 16.258 6.8695 8.164 2.9524 17.921-8.4247 20.984-5.1374 1.3838-9.4443 1.1515-18.309-0.9858-2.8809-0.6946-2.5028 0.069 3.1369 6.3248 20.8 23.078 37.06 56.06 38.51 78.118 0.8197 12.47-0.7105 18.244-6.2383 23.54-5.5514 5.3182-16.477 5.9423-24.943 1.4239z"/> <path d="m4178.3 1944c-17.728-4.5689-32.941-22.07-38.061-43.788-2.502-10.612-2.5019-33.508 6e-4 -50.11 1.0785-7.1573 1.9612-13.257 1.9612-13.555 0-0.2977-5.4641 5.0502-12.142 11.886-15.892 16.266-22.624 19.872-37.152 19.908-9.6436 0-11.466-0.4167-20.8-5.0308-12.079-5.9696-25.053-18.026-29.574-27.483-4.4689-9.3467-3.581-22.199 2.3689-34.285 9.6376-19.577 34.733-47.846 57.193-64.426 29.068-21.458 56.484-35.025 131.34-64.993 45.987-18.41 50.012-19.449 58.458-15.081 10.466 5.4114 10.195 16.66-1.1591 48.196-8.1701 22.692-11.197 35.705-20.538 88.303-7.1145 40.06-16.325 70.391-30.675 101.01-13.913 29.689-32.555 47.943-50.867 49.808-3.5285 0.3573-8.1876 0.1985-10.354-0.3621z"/> <path d="m4427 2008.3c-17.582-6.8786-31.72-22.196-47.689-51.668-3.423-6.3175-6.6587-11.486-7.1903-11.486s-2.0202 3.3965-3.3078 7.5482c-6.54 21.086-17.156 35.38-30.837 41.519-24.765 11.114-57.316 0.6991-68.221-21.828-1.6419-3.3917-3.9365-10.995-5.0992-16.898-4.0163-20.386 1.6237-54.836 15.662-95.668 27.831-80.947 41.886-124.29 46.821-144.4 8.1898-33.362 8.1443-33.2 10.246-36.49 5.0592-7.9191 16.134-10.25 25.646-5.3977 7.1694 3.6576 21.557 18.422 29.297 30.064 9.0805 13.659 39.085 77.652 54.476 116.18 14.554 36.438 27.936 83.056 32.265 112.41 6.8117 46.182-8.9927 78.698-38.164 78.518-4.3522-0.05-10.573-1.104-13.905-2.4073z"/> </g> <path d="m3512.3 2220.7c-15.588-2.6505-25.74-9.4248-31.552-21.055-6.915-13.838-5.4292-30.552 4.6037-51.787 4.3621-9.2327 11.277-15.911 21.449-20.717 27.202-12.85 51.586 4.7139 53.537 38.565 2.0949 36.338-18.577 60.003-48.038 54.994z" fill="#ffb040" stroke-width="1.3127"/> <g fill="#f4f0e5" stroke-width="1.3127"> <path d="m3523.8 2105.1c-9.2092-6.546-12.699-10.171-23.216-24.117-28.137-37.312-39.034-58.526-47.532-92.535-5.7522-23.021-7.0938-34.095-7.0773-58.427 0.013-16.589 0.5905-24.64 2.2569-31.373 4.8165-19.46 15.264-34.839 28.597-42.096 13.564-7.3822 28.9-4.2713 41.095 8.3361l5.1495 5.3237 11.375-11.605c9.3-9.4877 13.449-12.633 22.74-17.236 10.206-5.0573 12.335-5.6339 20.887-5.6546 11.828-0.05 19.794 3.4515 27.227 11.897 8.2249 9.3433 10.963 18.052 11.052 35.151 0.1057 20.013-2.1144 29.08-20.385 83.295-8.6493 25.665-19.243 58.894-23.542 73.843-12.1 42.077-19.766 60.883-27.205 66.734-5.2615 4.1383-14.356 3.4864-21.422-1.5361z"/> <path d="m3378.6 2117c-34.14-2.2928-50.734-13.855-50.721-35.339 0.015-21.986 11.54-35.754 31.57-37.708 4.216-0.4119 8.3385-1.1124 9.1612-1.5579 1.009-0.5467-1.0497-6.9166-6.3251-19.572-12.018-28.831-14.613-40.118-14.699-63.939-0.063-17.453 0.265-20.534 2.8857-27.117 16.9-42.449 50.511-21.726 73.664 45.419 2.892 8.3872 9.1764 27.785 13.965 43.106 4.7889 15.321 13.407 38.928 19.152 52.459 11.483 27.047 12.759 31.775 10.225 37.891-2.9489 7.1196-6.5322 7.7596-42.235 7.5433-17.532-0.1036-38.521-0.6394-46.644-1.1852z"/> <path d="m3577 2122.9c-15.654-5.3816-14.861-27.661 2.1037-59.131 3.6453-6.762 10.38-23.075 14.967-36.252 12.482-35.857 20.946-55.852 38.464-90.858 15.579-31.132 26.59-45.022 41.426-52.257 22.205-10.829 40.018-5.4476 50.097 15.135 7.4556 15.225 8.7831 32.605 3.8597 50.53-0.9809 3.5718-1.0627 3.5663 16.018 0.9934 10.131-1.5262 14.757-1.6477 20.889-0.5483 21.547 3.863 34.768 19.746 33.156 39.832-0.7418 9.2431-3.0727 14.432-9.8544 21.938-6.2417 6.9088-10.478 9.7433-42.852 28.671-14.96 8.7465-39.181 23.512-53.826 32.814-61.704 39.19-98.02 54.78-114.45 49.132z"/> <path d="m3767.5 2256.2c-23.818-5.0077-41.47-12.807-68.544-30.284-25.278-16.317-43.56-26.546-58.476-32.717-37.079-15.339-49.078-22.775-52.247-32.378-4.7021-14.248 4.7585-20.689 52.591-35.804 13.357-4.2207 33.545-11.852 44.863-16.958 43.81-19.766 61.203-25.236 80.411-25.289 16.891-0.05 25.552 2.9515 35.794 12.391 7.4382 6.8561 11.009 13.855 11.86 23.248 1.7988 19.839-13.243 41.905-37.402 54.868l-7.1336 3.8277 9.9175 5.4432c21.486 11.792 39.15 36.566 39.245 55.041 0.093 18.194-19.234 25.264-50.878 18.611z"/> <path d="m3345.4 2341.9c-5.702-5.7021-7.8125-11.648-8.7254-24.584-1.3024-18.452 9.7095-48.447 27.246-74.216 4.6199-6.7887 8.8358-13.034 9.3688-13.879 0.5577-0.8841-3.2248-0.2034-8.9107 1.601-15.981 5.0752-30.357 3.4269-39.104-4.4831-8.1108-7.3344-9.96-23.547-4.0408-35.425 8.3664-16.789 37.752-35.011 70.777-43.889 8.6094-2.3145 14.763-2.8787 34.152-3.1308 13.007-0.1686 24.231-0.4217 24.942-0.565 4.0646-0.8112 7.8449 0.4971 11.238 3.8901 6.6529 6.6529 5.6473 12.155-6.5394 35.777-5.7071 11.062-15.216 31.633-21.131 45.712-32.15 76.525-60.028 118.14-79.14 118.14-4.2414 0-6.0779-0.8975-10.133-4.9521z"/> <path d="m3627.9 2414.3c-14.639-7.2947-25.441-24.007-40.528-62.699-11.794-30.248-17.616-52.671-24.592-94.712-7.3755-44.453-7.3851-54.697-0.058-62.026 3.2087-3.2095 5.4187-4.2662 8.9206-4.2662 6.2869 0 20.852 7.7096 38.278 20.261l14.112 10.165 46.761 15.725c65.323 21.967 77.443 28.124 97.654 49.609 10.83 11.513 18.575 24.938 20.046 34.75 2.9222 19.486-14.484 37.148-41.075 41.68-13.658 2.3279-26.934 0.1339-45.462-7.513-22.514-9.2918-25.589-10.378-26.576-9.3905-0.505 0.505-1.3678 9.7-1.9173 20.434-1.0326 20.173-2.4041 27.729-6.4643 35.619-7.4558 14.488-24.207 19.786-39.1 12.364z"/> <path d="m3525.2 2481.6c-20.336-5.7472-39.456-27.598-52.993-60.562l-2.1257-5.1763-7.3778 12.396c-13.251 22.265-24.636 34.939-34.232 38.106-7.6322 2.5189-17.972 0.9307-23.632-3.6297-12.502-10.074-18.075-24.866-17.962-47.678 0.1306-26.543 6.0664-43.157 32.358-90.577 30.434-54.893 47.614-77.726 65.096-86.518 12.956-6.5165 22.204-5.5534 29.406 3.0617 3.5342 4.2275 10.822 22.414 18.887 47.131 4.0456 12.398 10.795 31.993 14.999 43.545 10.214 28.065 20.064 59.919 23.747 76.793 3.895 17.846 4.2376 39.543 0.7807 49.451-6.4267 18.42-27.648 29.112-46.951 23.657z"/> </g> <path d="m4444.4 2980.8c-44.379-11.626-60.58-51.236-38.161-93.297 4.5681-8.5704 29.532-36.494 36.661-41.008 3.6979-2.3413 6.4626-2.8433 15.662-2.8433 10.196 0 11.884 0.3869 19.324 4.4215 16.178 8.7743 29.786 27.867 33.338 46.774 3.2107 17.092-1.1049 49.517-8.7376 65.652-9.291 19.64-31.278 27.324-58.086 20.301z" fill="#ffb040" stroke-width="1.3127"/> <g fill="#f4f0e5" stroke-width="1.3127"> <path d="m4456.5 2828.6c-8.1915-4.698-16.03-13.589-22.032-24.991-2.4705-4.693-11.57-25.663-20.222-46.601-8.6516-20.938-20.769-49.977-26.928-64.532-29.245-69.11-50.734-127.99-59.877-164.06-13.344-52.649-15.424-107.68-5.1044-135.02 3.1333-8.302 9.3889-16.542 15.099-19.888 4.7858-2.8047 6.9979-3.2978 12.636-2.819 17.308 1.4696 30.381 14.652 48.842 49.252 3.837 7.191 5.8929 7.8603 5.9274 1.9299 0.029-5.2988 4.623-26.031 7.9083-35.704 4.4477-13.096 10.094-22.852 18.595-32.129 20.81-22.71 54.86-25.063 73.294-5.0642 16.857 18.288 21.504 49.15 18.45 122.53-2.1914 52.643-6.412 93.48-15.331 148.34-1.8194 11.191-4.4299 33.048-5.801 48.57-1.3711 15.523-3.4272 35.903-4.5691 45.289-12.586 103.45-13.183 106.67-21.339 115.19-4.6461 4.8513-10.757 4.7641-19.548-0.2778z"/> <path d="m4391.6 2850.3c-14.376-5.2988-33.11-17.386-58.467-37.724-28.903-23.182-37.008-28.975-81.482-58.23-70.452-46.344-90.615-61.834-124.63-95.741-30.554-30.462-47.85-53.761-62.392-84.051-11.954-24.899-16.925-42.812-16.925-60.988 0-20.13 8.007-36.124 21.31-42.568 9.7268-4.7114 16.071-5.4059 26.045-2.8508 15.628 4.0038 30.324 13.528 53.396 34.604 7.4003 6.7604 13.455 11.853 13.455 11.316s-2.0484-9.5934-4.552-20.127c-7.5581-31.8-9.0726-42.38-9.1298-63.784-0.076-28.395 4.6715-43.946 17.585-57.6 9.5967-10.147 19.724-14.516 33.509-14.456 30.133 0.1339 56.307 23.663 75.77 68.117 11.259 25.715 18.408 51.611 35.191 127.46 11.224 50.726 20.727 88.548 27.435 109.19 13.927 42.854 34.405 89.008 47.893 107.94 11.085 15.56 22.003 33.137 27.978 45.041 7.7761 15.494 7.3219 30.099-1.071 34.44-4.4911 2.3224-14.641 2.3295-20.922 0z"/> <path d="m4320.1 2904.9c-8.8755-3.2035-12.803-5.3017-33.8-18.056-47.198-28.669-86.157-43.608-156.65-60.068-52.951-12.364-67.55-16.632-90.469-26.452-57.256-24.531-103.33-69.354-112.87-109.79-5.8083-24.638 2.0508-36.518 24.157-36.518 15.686 0 21.809 2.0897 56.951 19.436 0.5818 0.2877-2.4541-4.4117-6.7462-10.442-22.375-31.434-34.653-62.815-30.545-78.07 5.4781-20.344 30.631-23.362 58.495-7.019 20.156 11.823 31.629 23.292 72.134 72.114 69.051 83.228 121.78 129.67 193.74 170.65 31.905 18.167 43.683 25.173 50.539 30.058 19.247 13.716 26.607 22.528 28.118 33.663 0.9437 6.9539 0.8567 7.2262-3.7306 11.699-10.437 10.176-33.914 14.365-49.329 8.8z"/> <path d="m4022.8 2995.9c-41.649-4.7377-56.646-8.3-75.009-17.816-23.658-12.26-30.762-27.929-18.309-40.382 10.119-10.118 26.59-15.656 50.655-17.029 17.754-1.0136 18.111-0.1488-4.0163-9.7178-29.027-12.552-51.641-29.954-59.586-45.853-9.5535-19.119-1.8893-38.512 18.806-47.586 11.809-5.1783 20.22-6.6111 38.233-6.515 36.741 0.1984 89.226 12.123 166.71 37.881 47.323 15.732 69.548 24.869 112.68 46.324 39.478 19.636 62.178 29.66 70.799 31.262 2.725 0.5061 13.668 0.2033 24.317-0.6744 23.261-1.9166 28.508-0.967 35.988 6.5135 8.8557 8.8555 6.0974 17.611-9.1937 29.186-14.748 11.163-28.293 13.392-90.196 14.838-69.731 1.63-85.73 2.9144-147.02 11.807-42.498 6.1661-55.26 7.3737-82.701 7.8282-15.162 0.253-29.634 0.2231-32.161-0.069z"/> </g> <path d="m3415.8 3005.1c-32.557-5.0615-60.465-17.319-77.478-34.028-19.922-19.567-24.453-39.673-19.966-88.608 4.8604-53.006 5.7063-106.29 1.9304-121.61-1.1135-4.516-2.2055-5.8238-6.4712-7.7473-4.5304-2.0427-5.1316-2.8454-5.1316-6.8498 0-3.4716 0.4575-4.36 1.949-3.7875 2.4448 0.9382 3.1409-0.4366 9.0493-17.871 11.917-35.164 14.63-52.079 14.471-90.238-0.1025-24.877-0.8042-36.312-3.6209-59.072-9.2562-74.796-10.341-86.086-10.343-107.64 0-30.102 4.2177-48.701 16.745-73.797 7.984-15.995 12.318-22.031 15.816-22.031 3.8482 0 5.8165 3.4854 5.8165 10.3 0 7.0679 3.309 23.881 6.7533 34.314 1.5528 4.7031 7.9778 19.515 14.278 32.914 14.576 31.003 20.385 45.567 24.247 60.79 13.664 53.864 4.3313 91.814-39.264 159.67-8.5817 13.357-18.943 29.897-23.025 36.756-4.0823 6.8593-10.785 17.379-14.896 23.379-9.0639 13.229-9.3408 15.399-2.2098 17.319 4.8453 1.3048 5.7064 1.1123 10.83-2.4192 9.1898-6.3342 18.262-17.044 28.535-33.684 27.831-45.081 46.301-58.533 84.802-61.766 9.2114-0.7729 10.743-0.6013 11.467 1.286 0.9926 2.5869-14.193 33.619-19.59 40.033-4.9229 5.8505-10.272 8.9508-29.418 17.05-22.542 9.5358-35.992 17.023-51.03 28.405-7.0368 5.3261-15.341 10.823-18.453 12.217l-5.6586 2.5333 7.3362 2.1329c14.106 4.1007 14.818 4.0897 19.814-0.2977 5.8284-5.1172 13.588-9.5909 24.363-14.046 14.926-6.1709 28.618-15.286 45.722-30.436 19.622-17.381 28.247-22.796 42.386-26.611 20.329-5.4854 23.968-2.0292 13.465 12.79-19.94 28.136-32.204 36.686-66.448 46.326-42.414 11.941-55.803 16.521-53.889 18.434 0.5951 0.5949 9.7216 2.6529 20.281 4.5734l19.199 3.4919 5.0127-5.5484c12.014-13.298 35.169-27.09 56.304-33.537 16.828-5.1326 19.521-2.6023 9.0942 8.5445-6.5161 6.9663-18.06 13.421-43.654 24.408-18.034 7.7417-17.723 7.9423 14.319 9.2432l21.84 0.8866 0.9378-3.803c3.5285-14.305 23.145-36.854 39.481-45.384 10.702-5.5881 22.583-10.269 26.068-10.27 3.2706 0 2.0343 5.0612-3.2612 13.354-4.8983 7.6708-10.787 13.087-30.713 28.248-8.6804 6.6047-16.894 13.237-18.253 14.739l-2.4706 2.7298h8.5343c4.694 0 13.797-0.3721 20.229-0.8301l11.694-0.8299 7.2132-8.9584c8.6184-10.704 19.555-28.691 24.456-40.222 3.0633-7.2079 3.294-8.6035 1.6858-10.203-1.0248-1.0191-10.059-5.4397-20.076-9.8237-21.135-9.2491-33.028-15.868-46.766-26.028-13.014-9.6242-35.262-32.019-47.076-47.386-15.635-20.336-11.354-22.843 16.236-9.5066 41.12 19.878 75.302 43.733 89.158 62.222 2.0275 2.7056 5.9226 9.45 8.6561 14.988l4.9698 10.069 2.7573-9.0803c4.8726-16.047 7.4527-30.542 5.8858-33.068-2.2041-3.5529-12.774-11.135-25.053-17.973-21.954-12.225-42.704-27.131-55.71-40.02-13.208-13.09-20.854-23.755-29.688-41.414-7.1413-14.276-17.892-43.406-16.938-45.893 1.8313-4.7724 12.052-1.3127 37.653 12.746 7.5593 4.1508 18.765 11.323 24.902 15.937 13.293 9.9953 36.275 33.351 45.135 45.87 7.7366 10.931 16.511 27.874 19.722 38.083 1.3099 4.1645 2.5716 7.382 2.8039 7.1498 0.2321-0.2332 0.548-13.354 0.7019-29.159l0.2799-28.736-12.278-7.0624c-23.714-13.641-33.33-23.147-43.183-42.689-6.2065-12.31-10.338-28.981-7.9081-31.909 2.6576-3.2026 5.3183-2.3319 20.208 6.6111 24.245 14.562 33.309 23.961 40.208 41.693l3.6572 9.3999 0.8598-5.2095c4.2046-25.475 15.609-64.974 22.645-78.43 6.5004-12.431 19.236-25.66 34.302-35.628 22.623-14.969 64.286-37.098 86.521-45.954 17.228-6.8627 20.974-4.8439 16.361 8.8183-5.2196 15.461-19.016 33.358-33.06 42.884-9.1316 6.194-18.751 11.061-45.537 23.039-43.964 19.66-61.918 36.361-66.81 62.148-2.9802 15.71-2.306 17.922 2.9715 9.7492 5.7183-8.8547 19.827-21.94 33.374-30.954 22.514-14.981 57.992-29.25 70.224-28.245 4.666 0.3819 5.0838 0.7486 5.471 4.7872 0.3776 3.9384-0.6005 5.3708-9.8607 14.44-5.8104 5.6903-20.534 17.202-33.863 26.477-27.574 19.185-44.4 32.442-59.372 46.775l-10.788 10.328-0.3701 37.772c-0.2034 20.775 0.04 36.724 0.5379 35.443 10.676-27.385 16.551-38.304 30.893-57.413 22.758-30.323 51.452-54.482 84.137-70.839 12.958-6.4845 16.72-6.8114 18.036-1.5668 0.971 3.8684-4.6651 18.73-11.51 30.35-14.422 24.483-29.335 38.632-60.111 57.031-7.5809 4.5321-17.623 11.076-22.316 14.543-10.629 7.8509-25.625 23.261-31.907 32.787-4.0529 6.1456-22.716 52.144-21.606 53.253 0.2089 0.2083 3.6217-3.466 7.5841-8.1665 25.973-30.81 76.382-60.2 110.39-64.358 5.3498-0.6543 6.1227-0.4266 6.76 2.0123 1.8755 7.1723-8.759 31.995-19.01 44.374-12.857 15.525-25.307 22.876-57.456 33.928-11.913 4.0946-26.09 9.7463-31.505 12.558-11.923 6.1929-50.012 34.449-48.407 35.911 0.9785 0.8915 55.103-6.046 61.715-7.9105 1.1828-0.3323 3.6303-2.8423 5.439-5.5757 11.322-17.108 31.708-35.486 49.81-44.904 32.145-16.724 45.351-12.688 24.417 7.462-8.2469 7.9382-20.045 16.494-39.552 28.682-7.7995 4.8737-14.002 9.0045-13.783 9.1796 0.219 0.1737 13.394-2.2431 29.277-5.3742 32.218-6.3516 30.55-5.5046 38.768-19.688 3.0672-5.2944 3.8953-8.3025 3.8953-14.15 0-9.448 3.4169-42.489 5.9868-57.89 3.2929-19.735 5.882-30.645 11.993-50.539 12.378-40.294 23.343-65.856 40.514-94.452l8.3569-13.917-6.3961-12.435c-17.374-33.78-21.752-60.154-14.392-86.714 7.5385-27.204 15.342-28.346 24.16-3.5365 7.0652 19.877 9.861 35.967 9.7946 56.362-0.029 9.6335-0.571 20.174-1.1988 23.423-0.628 3.2488-1.0187 6.0322-0.8683 6.185 0.7401 0.7526 36.868-47.731 45.683-61.306l10.085-15.53-11.17-20.036c-20.248-36.32-24.779-51.103-24.708-80.62 0.056-23.109 2.8832-31.332 9.3566-27.213 4.4962 2.8606 21.189 37.699 27.82 58.062 5.571 17.107 6.8241 23.398 7.8442 39.381l0.8797 13.783 4.4293-7.1766c2.4362-3.9469 8.276-14.486 12.978-23.421l8.5482-16.245-0.8459-10.053c-1.6843-20.014-7.9888-39.536-23.171-71.75-15.344-32.558-18.891-45.637-18.867-69.574 0.026-26.485 4.0438-41.596 10.512-39.543 2.9254 0.9287 18 25.13 27.084 43.481 7.4012 14.952 11.992 27.193 15.506 41.35 3.5204 14.179 4.9731 52.594 2.6494 70.056-0.8513 6.3973-1.3431 11.836-1.0928 12.087 1.8317 1.8317 29.089-59.89 35.724-80.896 3.1428-9.9493 3.1593-10.242 0.9107-16.166-1.4219-3.746-4.4517-7.8838-7.9903-10.913-8.2898-7.0959-30.458-32.035-40.632-45.711-12.424-16.701-20.325-29.415-28.035-45.117-6.5908-13.423-7.083-16.736-2.7021-18.196 2.2509-0.7507 26.461 17.996 40.405 31.286 21.042 20.056 34.693 40.894 40.973 62.546 1.3087 4.5113 2.7383 8.2036 3.1769 8.2047 2.4182 0 3.1176-27.59 1.1476-45.287-2.9756-26.733-8.7908-38.855-27.301-56.909-13.348-13.019-14.128-13.56-18.574-12.857-2.5522 0.4019-8.48 1.3386-13.173 2.0778-19.927 3.1391-59.196-0.4614-60.149-5.5197-1.333-7.0744 37.535-11.163 59.349-6.2429 7.9235 1.7872 5.3601-0.6622-7.4046-7.075-24.024-12.07-40.541-14.518-67.276-9.971-15.62 2.6564-29.549 3.0632-31.687 0.9254-1.6298-1.6299 5.8517-9.5548 12.369-13.102 19.162-10.429 53.778-12.291 75.764-4.0742 1.783 0.6661 0.9191-0.8893-2.692-4.8479-20.048-21.976-33.478-55.112-35.649-87.961-0.6617-10.013-0.4832-11.377 1.5944-12.174 5.0214-1.9272 9.2519 4.9271 38.377 62.175 26.696 52.473 29.816 57.753 37.939 64.208 3.7133 2.951 7.0527 5.3653 7.4208 5.3653 0.3682 0-1.3493-3.9875-3.8168-8.8606-9.9672-19.687-16.24-46.789-19.064-82.363-1.6345-20.59-1.1103-25.607 2.6758-25.607 3.1291 0 4.9925 2.9788 11.692 18.692 7.5379 17.679 13.245 34.418 24.51 71.885 10.447 34.748 23.109 70.956 29.05 83.068 4.672 9.5259 4.8768 9.0423 7.8783-18.623l2.2921-21.123-4.1586-5.5808c-10.669-14.317-27.874-46.864-33.136-62.683-3.9015-11.73-4.8252-22.515-2.1207-24.76 7.1159-5.9055 18.288 12.465 32.321 53.144l7.5327 21.837 0.858-6.2594c1.2006-8.7603 1.0047-29.746-0.4659-49.869-2.1083-28.848-2.6259-31.728-6.8489-38.104-6.6702-10.071-21.305-24.691-33.391-33.359-26.806-19.225-48.592-24.271-82.824-19.181-7.0347 1.0459-24.605 3.1441-39.044 4.6627-14.44 1.5193-29.597 3.6189-33.682 4.6673-13.552 3.476-14.752 0-5.5058-15.854 16.507-28.342 42.788-43.123 76.6-43.08 16.752 0 27.707 2.5689 44.137 10.264 26.838 12.57 46.238 30.23 66 60.083 3.7039 5.5953 6.9499 10.173 7.213 10.173 0.7112 0-2.8143-18.427-6.53-34.13-4.0471-17.104-12.135-43.296-13.396-43.386-0.5168-0.05-11.868-0.2728-25.225-0.5267-34.783-0.6599-52.447-5.2101-93.859-24.178-16.31-7.4707-20.684-10.976-15.499-12.421 5.7573-1.6041 44.238-2.2301 57.72-0.9392 26.565 2.5442 50.528 10.426 66.431 21.852 5.9422 4.2691 6.3633 4.3917 5.4749 1.5915-1.3303-4.1918-10.734-24.474-17.328-37.373l-5.4758-10.711-4.8201 2.4575c-13.618 6.9425-43.726 8.4874-59.592 3.0577-9.2708-3.1723-9.977-6.8076-1.7832-9.1802 17.03-4.9301 44.636-7.1786 55.932-4.5555 2.7075 0.629 4.9227 0.7546 4.9227 0.2778 0-0.4763-1.9843-3.8093-4.4096-7.4099-3.6525-5.4218-6.4782-7.636-16.46-12.898l-12.051-6.3521-13.427 12.916c-28.793 27.697-61.283 48.112-89.517 56.249-14.537 4.1894-32.563 6.8771-49.883 7.4371-12.742 0.4118-13.139 0.3374-13.545-2.5135-0.3494-2.4598 2.0013-4.5099 14.44-12.593 43.906-28.532 77.218-44.238 121.71-57.38 9.6717-2.8573 19.011-5.1951 20.753-5.1951 5.7037 0 1.887-2.3467-10.456-6.4295-11.94-3.9498-29.883-8.5142-30.449-7.7462-0.1594 0.2133-2.1073 3.0845-4.3292 6.3748-8.3617 12.382-28.486 26.636-53.688 38.027-15.081 6.8166-18.835 7.3807-18.835 2.8295 0-7.9943 21.736-26.24 51.514-43.244 10.843-6.1913 11.266-6.5952 7.6633-7.3156-7.4428-1.4884-27.421-2.5264-32.021-1.6637-12.617 2.3672-28.868 20.313-44.959 49.646-17.27 31.482-31.052 49.904-45.412 60.698-11.611 8.7281-25.402 16.524-30.772 17.396l-4.6057 0.7473 0.868-7.0746c3.1951-26.045 24.99-66.028 49.688-91.153 11.996-12.203 27.851-23.6 38.519-27.689 3.0684-1.1764 5.5789-2.5061 5.5789-2.9546 0-0.9963-24.998 0.4067-47.12 2.6434-19.509 1.9731-20.522 2.6127-30.545 19.291-8.2126 13.666-28.436 34.497-38.926 40.096-5.3629 2.8623-9.3935 3.8913-17.393 4.4394-12.699 0.8703-12.767 0.6688-4.8748-14.5 9.0473-17.39 20.689-30.302 34.753-38.544 3.1748-1.8605 5.5467-3.6084 5.2711-3.8842-0.7052-0.705-36.065 4.7-39.474 6.0336-8.2091 3.213-24.495 21.839-36.383 41.612-12.307 20.47-28.267 33.068-40.165 31.705-4.9704-0.5695-5.3457-4.1602-1.4448-13.818 6.3475-15.715 22.519-35.161 37.794-45.448 3.9409-2.6538 6.447-4.8249 5.5689-4.8249-2.1931 0-43.583 8.7574-53.345 11.287-6.3565 1.6471-9.963 3.7727-18.214 10.736-11.449 9.6619-18.835 18.405-35.176 41.643-6.157 8.7554-16.681 21.37-23.694 28.4-10.734 10.761-14.456 13.556-24.948 18.731-22.346 11.024-69.118 19.681-71.586 13.25-3.5761-9.3186 25.954-44.265 56.559-66.934 17.457-12.93 25.528-18.132 45.358-29.232 8.3029-4.6473 13.915-8.17 12.471-7.828-1.4441 0.3424-11.486 3.083-22.316 6.091-30.898 8.5823-46.188 10.902-73.139 11.095-20.669 0.1489-23.515-0.095-25.588-2.1651-2.2347-2.2346-2.2227-2.5343 0.2834-7.1558 3.0544-5.6322 10.9-10.099 21.65-12.327 4.2889-0.8887 24.307-1.6324 49.311-1.8318 37.908-0.3027 43.518-0.633 56.446-3.3228 14.822-3.0833 19.979-5.187 12.716-5.187-8.1906 0-34.328-3.99-46.706-7.1301-16.881-4.2821-36.895-12.447-49.94-20.374-19.878-12.078-40.046-32.266-48.714-48.761-7.2823-13.858-4.3807-17.644 10.598-13.828 4.2661 1.0865 18.094 4.1174 30.729 6.735 33.416 6.9228 104.46 24.683 122.74 30.683 8.6638 2.8438 25.204 8.5208 36.756 12.614 35.401 12.546 41.709 13.955 65.635 14.664l21.003 0.6221-9.8454-4.3998c-18.346-8.1981-37.909-22.426-60.265-43.828-8.6926-8.3219-10.925-11.159-9.7401-12.375 2.9142-2.9922 32.707 7.9125 50.805 18.596 12.52 7.39 22.603 15.214 37.578 29.158l12.471 11.612 10.502-0.6935c8.8995-0.5875 20.495-3.1446 15.428-3.402-0.9004-0.05-6.0054-4.2333-11.345-9.3047-14.891-14.146-27.498-33.817-33.087-51.63-2.345-7.4738-2.3444-7.7358 0.021-9.4664 3.125-2.2848 5.2744-1.1273 13.135 7.0755 12.433 12.973 37.406 49.936 39.574 58.574 0.4664 1.859 1.3049 3.6626 1.8628 4.0074 0.8421 0.5199 28.223-2.6703 32.03-3.7325 0.6457-0.1786-4.0197-3.2428-10.368-6.8055-20.37-11.433-36.695-29.371-48.944-53.781-8.5169-16.972-10.148-25.597-4.8409-25.597 10.69 0 60.251 51.101 74.948 77.276l3.7839 6.7391 20.347-0.839c11.191-0.4614 20.527-0.9868 20.747-1.1669 0.2198-0.1786-4.506-2.7134-10.502-5.6302-24.857-12.09-44.613-35.558-58.166-69.091-5.5045-13.62-5.2514-16.275 1.393-14.607 5.2118 1.3084 28.479 25.216 42.255 43.418 13.533 17.882 35.307 44.227 37.558 45.443 0.8257 0.4466 8.5898 1.2239 17.254 1.7286 8.6639 0.5046 18.706 1.405 22.316 2.0003 3.61 0.596 6.7528 0.9091 6.9843 0.6952 0.2312-0.2133-3.0176-2.2326-7.2199-4.4876-11.338-6.0828-29.847-19.701-42.024-30.92-13.742-12.66-25.4-27.215-38.636-48.238-13.375-21.243-12.666-23.492 4.5665-14.483 22.19 11.601 51.116 36.838 87.452 76.299 8.2166 8.9238 19.117 19.347 24.224 23.162 9.6572 7.2159 33.411 20.938 34.449 19.901 1.7449-1.745-34.561-43.472-56.197-64.589-19.611-19.14-80.497-68.447-87.703-71.024-8.123-2.905-16-2.1717-25.765 2.3977-5.1706 2.4198-11.865 4.4227-15.9 4.757-6.2734 0.5204-6.9693 0.3176-6.9693-2.0307 0-5.3479 12.766-15.025 24.722-18.738l7.0002-2.1745-13.564-8.8502c-14.248-9.2963-16.039-11.052-14.738-14.442 2.0811-5.4234 17.968-0.05 39.675 13.442 6.0136 3.7353 11.035 6.7901 11.158 6.7881 0.1226 0 0.2242-3.8288 0.2242-8.5039 0-8.0052 0.5936-9.6703 10.18-28.548 11.363-22.377 18.62-32.96 23.041-33.597 7.1913-1.0375 8.9171 18.628 3.6661 41.773-3.7733 16.632-9.2222 33.246-12.809 39.055-1.4495 2.3484-2.4389 4.8429-2.1987 5.5445 0.4535 1.3236 40.881 31.538 41.456 30.982 0.179-0.1736-1.0789-4.4429-2.7953-9.4892-4.6639-13.712-6.6271-26.891-6.6195-44.433 0.013-16.582 1.3318-21.66 5.6505-21.66 9.5931 0 19.028 32.649 20.745 71.786l0.8167 18.621 7.0087 6.9218c4.2801 4.227 7.4543 6.4324 8.1528 5.6644 2.4596-2.704 4.1279-10.602 4.1279-19.542 0-12.638 3.2907-38.54 7.4334-58.509 4.5608-21.985 4.6104-21.038-1.2027-23.078-10.705-3.7568-26.649-16.268-35.668-27.989-10.916-14.186-18.206-29.652-23.767-50.422-3.2512-12.143-3.1239-15.342 0.6106-15.342 6.2848 0 32.435 22.915 42.953 37.64 5.4892 7.6841 17.811 32.124 21.56 42.763 0.954 2.7075 2.0591 4.9024 2.4555 4.8781 0.6798-0.05 13.241-37.673 13.207-39.566-0.013-0.4864-4.5939-3.6587-10.189-7.0472-14.397-8.7183-25.887-18.364-32.772-27.51-7.1302-9.4728-20.515-35.658-19.534-38.215 1.1044-2.8777 9.8542-2.1569 17.602 1.4501 13.636 6.3482 27.092 22.943 40.986 50.548l6.9374 13.784 2.5468-5.9076c1.4006-3.2488 5.2082-11.932 8.4615-19.297l5.9151-13.39-2.4368-4.4906c-1.34-2.4703-5.7695-9.4406-9.8432-15.49-4.0739-6.0494-10.363-16.906-13.975-24.126-12.152-24.286-15.245-39.604-15.24-75.481 0-32.724 2.214-36.769 12.367-22.644 16.178 22.506 24.535 51.784 29.507 103.38 3.2632 33.857 1.7512 33.032 15.252 8.3167 14.466-26.483 14.508-26.895 5.0272-49.952-8.3408-20.285-11.352-31.756-13.249-50.465-1.6815-16.586-1.0212-18.823 5.5541-18.823 13.309 0 24.286 30.656 23.319 65.125-0.3204 11.424-0.06 15.765 0.8508 14.172 8.5256-14.907 21.431-31.966 32.74-43.278 23.048-23.053 58.634-43.924 82.431-48.347 5.4175-1.0073 10.192 0.7942 10.192 3.845 0 1.0598-6.9411 8.8948-15.424 17.411-19.773 19.849-40.446 33.883-78.722 53.438l-14.728 7.524-13.596 23.142c-18.188 30.956-19.327 32.987-18.509 32.987 0.3875 0 7.1776-3.5767 15.089-7.9482 25.832-14.272 43.542-20.972 55.828-21.119 13.015-0.1539 15.84 2.814 9.5234 10.008-12.781 14.557-43.593 27.505-74.065 31.124l-13.804 1.6392-3.4055 7.2595c-6.8107 14.518-13.588 30.397-13.588 31.839 0 0.8118 1.3291 0.2879 2.9536-1.1664 15.577-13.933 58.242-28.511 93.72-32.024 16.83-1.6659 24.109-1.0994 26.749 2.0824 2.2304 2.6871 0.1841 4.8974-11.782 12.727-29.763 19.474-63.103 29.21-97.201 28.389-9.0249-0.2184-17.156 0.074-18.07 0.6478-0.9134 0.5746-2.5964 3.2192-3.74 5.877-3.1137 7.237-14.946 40.874-14.946 42.488 0 0.7725 4.3081-2.688 9.5737-7.6902 17.458-16.583 42.087-30.899 57.783-33.588 10.173-1.7424 12.718-0.9452 12.718 3.984 0 8.362-8.0944 15.32-44.632 38.367-36.415 22.969-39.693 24.94-41.492 24.94-0.8852 0-2.2807 3.1014-3.1011 6.8919-2.6648 12.312-6.814 37.966-6.2341 38.546 0.3106 0.3126 2.8656-3.3744 5.6775-8.1889 7.0892-12.138 23.944-28.645 40.672-39.83 15.463-10.34 23.414-14.553 39.604-20.983 8.8169-3.5023 11.206-4.0024 12.799-2.6807 5.7071 4.7366-1.2286 22.888-13.276 34.744-9.2481 9.1017-13.719 12.217-33.992 23.686-29.802 16.86-44.915 28.522-51.481 39.726-2.8766 4.9084-3.2398 6.7402-2.5883 13.052 0.6765 6.5541 1.4298 8.0251 7.0092 13.69 3.4382 3.4904 6.6205 5.9072 7.072 5.3704 0.4514-0.5368 1.5603-3.6348 2.4644-6.8835 7.015-25.21 39.617-56.58 77.674-74.739 16.215-7.7378 26.339-10.587 37.617-10.587 12.426 0 12.681 3.3245 1.5624 20.356-15.643 23.962-34.595 38.271-68.51 51.723-15.238 6.0434-29.523 13.545-38.754 20.349l-8.2433 6.0767 7.5872 8.8398c4.1727 4.8616 8.9771 10.609 10.676 12.773 3.0254 3.8521 3.1281 3.8794 4.9788 1.3079 19.58-27.202 34.946-44.29 50.348-55.989 10.267-7.7994 31.564-18.545 35.574-17.95 7.9227 1.1757 5.1945 10.119-7.6722 25.15-12.478 14.577-48.969 42.759-67.612 52.218-4.1515 2.1061-7.548 4.183-7.548 4.6151 0 0.4316 2.6495 4.3099 5.8878 8.618 3.2382 4.3075 8.7023 12.177 12.142 17.488 3.4401 5.3106 6.6459 9.6941 7.124 9.7408 0.4782 0.05 1.288-2.4252 1.8001-5.4934 2.2418-13.433 11.745-34.705 23.899-53.493 8.0432-12.434 28.976-34.13 32.93-34.13 5.2487 0 6.0974 3.2244 3.7259 14.153-4.509 20.778-25.586 56.346-45.734 77.177-6.9363 7.1713-11.05 12.394-10.339 13.127 0.6499 0.6687 4.7375 7.9884 9.0836 16.266 7.8555 14.961 7.9104 15.026 9.3799 11.158 9.1749-24.154 21.915-51.038 33.078-69.801 8.8803-14.927 23.407-31.886 27.312-31.886 6.3519 0 6.6166 19.837 0.4936 37.013-6.1717 17.312-12.388 26.854-40.222 61.742l-16.474 20.649 4.9956 12.882c2.7476 7.0849 6.8664 19.059 9.1532 26.608 2.2868 7.5499 4.474 14.613 4.8604 15.696 0.3866 1.083 2.334-4.5289 4.3277-12.471 6.5184-25.967 22.415-62.689 36.366-84.013 7.123-10.887 7.8577-12.714 9.3567-23.269 1.9287-13.582 5.6069-26.17 10.94-37.444 3.1399-6.6368 4.4712-8.2047 6.9678-8.2047 5.6686 0 7.6175 11.213 4.0137 23.093-1.0752 3.5439-1.9612 6.6502-1.9691 6.9033-0.013 0.253 5.0944-4.6494 11.338-10.893 22.666-22.666 50.029-42.131 80.418-57.208 19.688-9.768 26.596-11.978 28.385-9.0839 1.3941 2.256-1.3191 4.2932-23.892 17.94-25.311 15.302-43.7 29.273-62.668 47.612-29.787 28.799-51.474 59.359-65.686 92.562-8.6936 20.311-8.6718 20.826 0.4648 10.906 8.0259-8.7142 21.571-20.197 27.482-23.298 7.6591-4.0183 12.768 2.4033 8.7125 10.95-2.9093 6.1307-17.105 19.326-28.773 26.744-24.071 15.305-22.48 13.66-24.873 25.711-1.9908 10.024-5.3314 45.322-4.3794 46.274 0.2347 0.2332 3.3503-4.0471 6.9234-9.5151 16.278-24.911 43.748-43.232 77.665-51.798 17.718-4.4741 35.25-6.2231 39.514-3.9409 3.857 2.0646 3.7162 7.458-0.3509 13.443-5.2858 7.7785-36.42 29.611-76.858 53.896-12.225 7.3413-41.723 23.347-46.97 25.486-1.9095 0.7784-1.7112 6.5224 1.8712 54.211l0.7309 9.7288 4.815-9.7288c11.973-24.193 30.762-44.434 54.613-58.834 6.898-4.1645 7.5572-4.3228 9.5837-2.296 2.0267 2.0266 2.0203 2.5977-0.093 8.3014-1.2485 3.3683-5.2988 11.195-9.0003 17.392-6.8505 11.468-34.461 49.248-38.352 52.477-5.4492 4.5223-0.755 2.9893 15.255-4.9822l17.393-8.6608 9.7031-19.377c5.3367-10.657 13.311-24.807 17.722-31.444 9.8934-14.89 28.243-34.38 42.022-44.635 10.589-7.8806 14.364-8.9255 17.007-4.7078 4.2771 6.8239-36.806 64.233-60.909 85.114-4.355 3.7732-7.6396 7.1385-7.2992 7.4788 0.9631 0.9632 13.673-3.5716 18.752-6.6909 2.5105-1.5415 9.981-7.714 16.601-13.716 15.617-14.159 32.978-25.719 53.387-35.547 29.746-14.324 54.499-20.564 60.398-15.226 3.9154 3.5435 3.1956 6.5035-2.8378 11.667-9.3005 7.9612-62.344 33.852-87.753 42.832-11.938 4.2192-12 4.8726-0.3155 3.2854 7.4124-1.0072 12.114-2.5337 17.381-5.6456 20.06-11.851 49.883-14.154 49.883-3.852 0 6.2369-6.6048 9.2123-26.91 12.124-7.2199 1.0349-16.327 1.8927-20.238 1.9062-8.8455 0.05-7.7119 1.4189 2.9212 3.5796 10.339 2.1006 22.424 8.212 30.609 15.48 5.4155 4.8091 6.1776 6.0475 4.9605 8.0629-3.6615 6.0623-18.046 4.499-37.196-4.0431-18.055-8.0539-23.126-9.775-34.625-11.752l-10.249-1.7624-15.127 5.0692c-19.026 6.3759-21.312 7.6122-14.17 7.666 16.4 0.1238 46.514 9.5714 46.514 14.595 0 3.8253-5.1084 5.5934-15.752 5.4521-8.0536-0.1036-13.548-1.3401-30.192-6.7773-11.191-3.6561-21.233-6.6459-22.316-6.6448-5.0265 0-49.841 24.087-48.088 25.839 0.3333 0.3325 1.7213 0 3.0848-0.7208 1.3633-0.7292 7.4206-2.3279 13.461-3.5519 21.864-4.43 58.272-0.382 66.261 7.3712 2.5315 2.4564 2.5267 2.5125-0.4941 5.728-7.2897 7.7597-29.523 10.239-65.36 7.2893-11.394-0.9378-22.178-1.7579-23.966-1.8223-3.217-0.1146-3.2658 0.055-4.8814 16.948-0.8977 9.386-2.1765 20.61-2.8419 24.942-0.6653 4.3318-1.058 8.0434-0.8726 8.2483 0.1856 0.2035 5.2387-3.5215 11.229-8.2801 12.649-10.047 30.766-19.273 44.082-22.448 31.979-7.6248 4.1802 17.877-41.93 38.466l-16.08 7.1802-2.3093 11.389c-4.2058 20.744-12.557 52.214-19.1 71.975-6.9114 20.875-20.495 55.733-25.792 66.185-1.7785 3.5102-3.2336 6.7386-3.2336 7.1751 0 0.4367 5.4052-3.8262 12.012-9.4734 18.054-15.432 24.075-26.399 36.625-66.716 9.7626-31.363 16.552-49.696 23.72-64.055 6.3367-12.693 17.865-30.442 22.718-34.978 3.17-2.963 3.595-3.0448 5.5681-1.0717 1.8971 1.8968 1.9548 3.2855 0.5171 12.397-6.9591 44.103-23.805 87.188-45.329 115.93-2.9735 3.9711-5.8585 7.9585-6.4113 8.8616-0.5529 0.9024 4.4939-1.8125 11.215-6.0331 6.7212-4.2207 15.764-9.7106 20.096-12.2 7.0542-4.054 8.1915-5.3172 10.897-12.1 1.6614-4.1661 5.3877-18.813 8.2805-32.548 6.2877-29.856 10.305-44.14 16.373-58.216 9.5269-22.101 24.187-38.247 27.319-30.086 0.4381 1.1415 0.1797 9.2639-0.5746 18.05-4.0136 46.766-10.807 68.874-28 91.127-4.0443 5.2343-7.048 9.5169-6.6748 9.5169 0.3731 0 4.0582-1.674 8.1891-3.7204 4.1309-2.0467 13.25-6.0343 20.264-8.8613l12.753-5.1394 0.6979-5.2513c0.3841-2.8875 1.3109-15.883 2.06-28.879 2.7669-48.004 7.6932-71.437 20.284-96.484 9.9441-19.781 25.54-39.024 30.185-37.242 2.6375 1.0122 2.6612 16.948 0.061 41.443-5.061 47.686-18.397 88.82-36.981 114.06-3.1402 4.2653-5.3583 7.7551-4.9296 7.7551 1.3857 0 35.249-10.638 37.277-11.711 4.7262-2.499 7.8106-12.502 11.163-36.203 8.4172-59.507 15.3-81.813 32.098-104.03 9.7055-12.835 14.88-17.773 17.984-17.162 2.2471 0.4415 2.4163 2.0327 2.2822 21.453-0.1106 16.123-0.8128 24.164-3.0324 34.759-7.4608 35.614-23.681 69.691-43.277 90.924-6.1422 6.6553-6.8213 7.8326-4.0851 7.0819 1.8051-0.4962 12.683-2.8121 24.174-5.1495l20.892-4.249 4.1512-6.5634c9.996-15.804 11.351-27.196 10.919-91.781-0.3116-46.543 0.4013-56.299 5.6004-76.649 5.1154-20.022 13.56-33.412 43.103-68.345 16.292-19.265 19.807-19.399 19.807-0.7533 0 24.808-3.9132 59.242-11.33 99.694-15.02 81.923-22.935 102.62-50.048 130.87l-11.477 11.958 6.5635-0.9015c3.61-0.4963 14.538-1.7489 24.285-2.7843 20.29-2.1559 20.018-1.9882 26.605-16.386 5.7352-12.536 9.5893-29.386 14.048-61.419 4.5582-32.749 7.3267-43.984 14.468-58.709 7.9242-16.34 23.282-33.126 28.564-31.221 3.7299 1.345 0.9091 35.977-4.8815 59.931-4.1177 17.033-12.221 39.921-19.167 54.139-5.7435 11.756-21.592 36.566-30.312 47.452l-3.4289 4.2808 17.573-0.8331c15.776-0.7481 17.805-1.1188 19.846-3.6244 4.0374-4.9569 9.769-20.515 18.68-50.705 21.863-74.067 25.771-81.478 62.469-118.47 12.713-12.815 24.059-23.301 25.214-23.301 3.2192 0 6.0273 3.5195 7.0171 8.7951 1.4852 7.9169-0.5223 38.261-3.4518 52.171-10.088 47.902-46.716 101.1-88.889 129.1-6.773 4.4971-7.0507 4.8801-4.1292 5.6987 1.7227 0.4812 8.1533 0.9541 14.29 1.0474 6.1369 0.095 19.724 1.021 30.192 2.0609 10.469 1.04 20.046 1.9087 21.282 1.9301 3.1249 0.055 10.026-15.054 16.171-35.404 2.7254-9.0249 8.3213-25.27 12.435-36.099 18.764-49.395 28.371-62.821 66.942-93.559 26.52-21.134 36.963-30.334 50.104-44.137 10.398-10.922 11.562-11.775 13.5-9.8921 1.9509 1.8952 1.8485 3.472-1.2783 19.69-9.6285 49.944-19.471 77.68-36.975 104.19-15.204 23.028-66.137 71.705-95.313 91.093l-9.2207 6.1273 8.4145 1.5777c4.6279 0.8678 11.959 1.9468 16.291 2.3984l7.8763 0.8202 13.391-18.15c25.099-34.02 46.571-52.104 76.693-64.595 25.305-10.492 32.222-11.501 30.536-4.4527-5.8771 24.575-12.614 40.293-22.658 52.865-16.138 20.2-36.459 31.447-68.019 37.648l-11.176 2.1959 12.276 4.4812c8.2513 3.0116 16.217 4.8606 24.295 5.6402 12.61 1.2164 25.48 5.2952 35.882 11.371 9.9529 5.8144 23.642 16.227 23.642 17.984 0 4.0024-5.4026 6.6647-13.228 6.5183-9.3379-0.1736-22.765-6.2103-42.937-19.3-10.704-6.947-15.626-9.2373-25.481-11.857-6.7171-1.7866-12.325-3.1407-12.461-3.0092-0.1363 0.1293 4.5222 4.065 10.352 8.7421 26.027 20.878 50.752 55.681 54.829 77.177 2.4499 12.918-0.8231 32.933-5.4029 33.041-1.8678 0.05-18.134-13.026-28.562-22.95-19.146-18.22-30.586-35.876-42.106-64.982-6.3555-16.058-11.68-25.968-18.04-33.576-3.6803-4.4027-5.8459-5.718-11.316-6.872-11.603-2.4485-32.606-5.6908-33.176-5.1212-0.2987 0.2977 3.4539 3.5187 8.3393 7.1554 11.339 8.4399 30.526 28.273 40.938 42.314 10.749 14.497 26.5 46.05 27.337 54.762 0.794 8.2623-1.8431 11.54-8.4254 10.472-7.3157-1.1872-26.439-14.683-39.152-27.632-12.353-12.581-21.809-25.786-33.481-46.754-13.571-24.38-23.88-40.803-26.824-42.731-4.6345-3.0369-36.744-4.9594-67.684-4.0534-42.092 1.2328-41.089-0.1936-12.081 17.19 13.504 8.0922 36.227 20.704 50.497 28.026 29.614 15.194 39.29 21.372 49.634 31.685 13.517 13.478 18.625 27.98 25.543 72.522 2.5122 16.176 1.9832 19.434-3.1576 19.451-5.0837 0-32.58-20.459-47.507-35.377-17.198-17.188-24.351-26.322-46.827-59.801-19.856-29.575-33.452-45.838-48.767-58.333-6.5812-5.3698-11.966-10.319-11.966-11 0-3.0428-40.75 3.6625-74.344 12.233-37.055 9.4535-91.793 29.511-86.355 31.642 7.9586 3.1192 44.002 0 68.153-5.9047 26.398-6.4503 36.478-7.7869 53.418-7.0839 12.157 0.5046 17.099 1.3763 27.313 4.8176 19.3 6.5024 31.115 14.204 48.57 31.658 22.063 22.063 36.187 44.85 42.079 67.889 4.8076 18.798 2.8906 61.807-3.2875 73.754-4.9008 9.4774-10.876 7.9378-16.443-4.236-3.0635-6.7-7.0864-11.422-23.201-27.236-10.722-10.522-26.406-25.176-34.854-32.565-8.4471-7.3884-22.329-20.932-30.849-30.095-25.388-27.308-30.886-31.984-47.179-40.121-19.851-9.9144-36.621-14.53-67.37-18.541-8.9971-1.1739-19.82-3.3003-24.051-4.7258l-7.6932-2.5918-13.361 6.99c-7.3484 3.8448-19.776 10.806-27.616 15.47l-14.255 8.4802 22.131 0.9143c12.172 0.5026 37.785 1.5415 56.918 2.3082 36.442 1.4595 49.43 3.1276 66.495 8.54 20.909 6.6319 36.76 19.356 51.426 41.281 9.6566 14.437 10.476 16.704 7.2154 19.965-2.3368 2.3368-3.7221 2.3988-25.642 1.1446-43.839-2.508-51.274-4.8283-109.34-34.128-42.93-21.662-59.724-28.288-74.983-29.586l-9.0305-0.7674-14.542 10.916c-7.9982 6.0045-16.856 12.845-19.685 15.202l-5.1427 4.2852 5.9014-0.7686c8.3707-1.0899 74.839 3.0042 86.633 5.3367 22.922 4.5327 45.886 14.798 64.56 28.859 13.385 10.078 21.237 19.44 29.187 34.796 8.9221 17.234 21.765 58.74 21.77 70.354 0 4.3631-3.3793 8.4082-7.0276 8.4082-5.2026 0-41.961-31.854-80.266-69.557-21.66-21.319-44.698-42.747-51.196-47.618-27.539-20.644-48.931-27.075-73.26-22.025-6.3097 1.3098-8.8341 2.7652-15.493 8.9301-6.4075 5.9324-9.3534 10.153-15.143 21.698-3.9536 7.8833-6.9538 14.568-6.667 14.855 0.2868 0.2877 5.3746-2.3955 11.306-5.9602 26.421-15.88 57.201-18.569 65.477-5.721 1.6994 2.638 1.5737 3.1723-1.3912 5.907-4.1885 3.8634-31.326 17.372-44.843 22.323-14.077 5.1554-30.124 8.8868-38.265 8.8977h-6.6988l-15.617 25.027c-8.5894 13.765-22.865 34.588-31.722 46.273-23.434 30.913-35.139 47.36-42.68 59.97-7.1906 12.024-21.947 40.33-21.947 42.099 0 0.5944 6.6456-5.5636 14.768-13.685 8.1223-8.1215 19.3-18.427 24.838-22.902 14.643-11.831 18.889-10.775 14.068 3.5003-5.4266 16.069-16.289 30.528-32.196 42.856-5.5793 4.3238-15.84 12.361-22.801 17.862l-12.657 10-4.7556 16.254c-4.6659 15.947-10.707 43.04-9.7998 43.947 0.2534 0.253 4.8573-3.8326 10.231-9.0799 13.476-13.159 31.596-27.461 51.64-40.762 9.3104-6.1784 17.48-11.417 18.154-11.642 1.9533-0.6515 4.6783-14.189 8.2601-41.033 3.9107-29.31 6.7536-41.586 13.842-59.774 13.111-33.642 31.981-63.599 56.726-90.051 9.1609-9.7935 13.72-12.678 17.073-10.801 4.6966 2.6285 5.5242 0.2133-24.032 70.073-31.612 74.717-40.074 92.158-55.93 115.28-3.8795 5.6565-6.6087 10.087-6.065 9.8454 0.5439-0.2431 12.468-6.2231 26.498-13.292l25.509-12.852 7.3954-17.996c25.388-61.779 53.673-120.52 69.553-144.45 12.756-19.219 28.865-36.142 39.333-41.321 8.5445-4.2261 11.038-4.383 14.51-0.9109 3.9576 3.9577 3.2839 9.1914-3.9119 30.397-15.7 46.266-36.574 85.341-64.703 121.12-9.5179 12.107-29.725 32.559-40.644 41.138-4.1803 3.2839-7.4463 6.1218-7.2581 6.3054 0.188 0.1836 4.4773-1.0439 9.5312-2.7293 12.752-4.2519 34.172-9.8291 37.75-9.8291 2.2574 0 4.6-2.4564 9.7086-10.18 21.438-32.413 58.884-64.485 99.924-85.583 8.8436-4.5461 11.222-5.2849 12.799-3.9761 2.6106 2.1668 2.461 3.3862-1.4452 11.788-10.018 21.546-38.485 55.084-61.59 72.559-18.429 13.938-38.942 21.956-56.174 21.956-8.152 0-11.478 0.973-34.778 10.174l-25.764 10.173 7.815 0.9695c43.529 5.4004 62.81 15.812 77.765 41.994 7.5943 13.295 9.1262 17.556 7.3387 20.408-4.8161 7.6853-44.594-3.6491-63.95-18.223-3.0038-2.2614-13.227-12.164-22.717-22.005l-17.255-17.893-8.9987 4.3764c-23.143 11.255-51.789 28.416-75.567 45.271-15.807 11.205-38.264 29.737-37.256 30.744 0.4182 0.4168 1.7981-0.1292 3.066-1.215 3.9909-3.4214 16.361-9.8981 26.804-14.034 26.357-10.439 57.666-15.305 91.676-14.248 26.313 0.8175 31.973 2.2906 32.57 8.474 0.9851 10.198-22.34 25.958-47.079 31.809-15.419 3.6467-31.09 5.0488-74.755 6.688-20.577 0.7731-39.856 1.7196-42.843 2.1042-5.065 0.652-5.4822 1.022-6.192 5.4978-1.221 7.7005-2.6123 30.396-1.863 30.396 0.3766 0 3.2697-1.4293 6.4291-3.1772 14.736-8.1501 49.172-17.305 77.197-20.524 19.348-2.2222 51.639-0.9769 64.68 2.4936 14.276 3.799 32.366 11.831 34.712 15.411 4.3124 6.5814-2.9654 11.008-23.529 14.312-30.023 4.823-81.327 5.9021-129.24 2.7179-15.326-1.0186-28.408-2.187-29.07-2.5968-1.8198-1.1249-2.7416 2.4772-1.9237 7.5175l0.7286 4.4906 31.691 0.7562c33.179 0.7913 56.419 3.3756 98.07 10.906 19.596 3.543 19.807 3.5524 27.192 1.2245 6.5795-2.0743 9.4377-4.3075 24.638-19.251 10.594-10.415 18.214-16.905 19.848-16.905 3.6788 0 6.9978 4.0693 6.9978 8.5797 0 6.1056-13.609 18.299-29.203 26.166l-12.794 6.4542 17.226 4.3249c39.693 9.9661 73.038 22.38 79.724 29.679l3.1006 3.3847-4.9338 0.9258c-6.1507 1.154-17.434-1.2145-49.628-10.416-13.472-3.851-24.495-6.5923-24.495-6.0916 0 0.5002 1.2722 2.0347 2.8273 3.41 4.3129 3.8148 11.839 20.952 11.361 25.872-1.0063 10.364-9.7259 3.3247-21.27-17.173-3.9532-7.0189-7.9776-13.825-8.9435-15.124-1.1218-1.5087-5.9889-3.2868-13.474-4.9227-15.86-3.4655-16.19-3.3925-10.945 2.4133 12.235 13.542 21.258 31.655 27.971 56.151 4.986 18.193 5.5893 23.539 2.7782 24.618-7.0728 2.7145-24.011-24.995-35.58-58.208-3.3892-9.7293-7.7323-20.64-9.6514-24.247-3.4331-6.4513-3.6266-6.5823-12.022-8.1282-27.325-5.0319-72.755-10.321-80.732-9.3985-3.3666 0.387-2.414 1.0097 6.5636 4.2749 25.217 9.1721 37.113 14.345 48.789 21.217 30.4 17.891 53.812 44.307 57.543 64.925 0.6635 3.6671 0.2868 5.1352-1.8011 7.025-2.557 2.3139-2.9195 2.2975-11.578-0.5334-19.354-6.3279-28.674-12.384-46.351-30.12-9.0248-9.0552-22.254-22.856-29.399-30.669-14.772-16.155-25.996-25.17-39.868-32.026l-9.6129-4.7511-17.335 2.1647c-15.594 1.9479-57.97 10.267-59.355 11.652-0.3057 0.3077 8.138 2.2346 18.763 4.2872 50.407 9.7363 72.362 18.723 104.64 42.833 13.108 9.79 30.849 27.368 30.849 30.567 0 3.6-4.6932 4.7803-19.003 4.7803-22.179 0-40.658-4.8483-59.037-15.49-4.3679-2.5293-20.347-13.865-35.509-25.191-29.91-22.343-40.78-29.599-52.117-34.79l-7.3476-3.3638-24.45 4.6305c-13.448 2.5472-25.947 4.6305-27.776 4.6305-1.8832 0-2.974 0.5695-2.5147 1.3127 0.4461 0.7219 2.4899 1.3129 4.5414 1.3129 6.5633 0 33.141 5.0065 45.199 8.5148 25.627 7.4554 51.564 18.519 65.973 28.142 8.7352 5.8333 10.606 8.5242 8.0591 11.593-1.3835 1.667-5.1892 1.864-24.636 1.2752-35.612-1.0783-52.304-6.4718-92.573-29.912-23.385-13.613-30.23-16.344-40.694-16.236-20.343 0.2085-66.289 2.3345-66.244 3.0648 0.026 0.4266 2.5369 2.3571 5.5791 4.2856 3.042 1.9285 9.0753 6.702 13.407 10.608l7.8763 7.1016 6.5533-1.6922c20.08-5.1857 42.614-5.3727 61.618-0.512 11.08 2.834 29.774 11.182 34.876 15.575l3.2819 2.8254-3.0104 2.5537c-4.2433 3.5995-12.497 4.4991-33.002 3.5969-17.385-0.7649-37.333-4.3664-53.008-9.5705-3.4762-1.154-6.5435-1.8749-6.8163-1.6024-0.2729 0.2729 4.639 6.0121 10.915 12.754l11.411 12.258 10.327-1.5748c28.294-4.3154 73.03 0.8926 73.03 8.502 0 3.3434-13.012 8.56-23.558 9.444-9.6449 0.8087-28.485-1.158-40.709-4.2489-3.9401-0.9968-7.3714-1.6045-7.625-1.3512-1.5361 1.5361 33.927 28.312 37.498 28.312 1.1346 0 3.2824-1.1074 4.773-2.4605 5.1641-4.6884 28.453-19.896 37.221-24.305 18.08-9.092 43.028-14.772 60.103-13.685 8.493 0.5407 11.536 2.2381 10.209 5.6951-0.8565 2.2317-15.654 13.905-26.616 20.997-16.497 10.672-40.698 19.029-61.182 21.127-4.6706 0.4764-8.4912 1.2315-8.4901 1.6736 0 0.4415 3.1904 2.1021 7.0877 3.6903 11.442 4.6622 22.309 2.3705 71.017-14.978 102.38-36.465 170.62-34.588 224.62 6.1775 15.117 11.413 10.153 20.864-15.533 29.573-16.305 5.5284-37.35 5.9433-67.969 1.341-48.961-7.3587-94.611-13.851-111.58-15.869-18.623-2.2142-68.232-2.7411-78.106-0.8294l-5.2509 1.0165 10.502 3.4859c14.935 4.958 29.03 7.2869 53.487 8.8398 77.343 4.9093 101.88 8.9033 140.32 22.843 36.187 13.122 76.618 33.963 82.091 42.316 2.2092 3.3718 2.1812 3.5286-1.1427 6.3875-3.7735 3.2456-17.489 7.2757-36.499 10.724-15.474 2.8067-54.522 3.1961-66.292 0.6609-30.819-6.6384-50.412-16.963-94.12-49.596-21.766-16.252-30.874-21.466-46.34-26.532-20.451-6.6989-20.762-6.3292-4.065 4.8344 39.277 26.259 65.06 53.163 65.094 67.921 0.029 12.823-14.76 13.999-35.782 2.8454-18.863-10.008-45.351-42.229-61.451-74.752-3.1834-6.4301-6.8211-11.935-8.3473-12.631-1.4878-0.6787-8.317-3.3142-15.176-5.8565-6.859-2.5427-13.652-5.0665-15.096-5.6094-1.6999-0.6384-0.6945 1.0475 2.8525 4.7834 7.9405 8.3628 26.364 33.366 33.407 45.339 10.038 17.064 16.86 37.247 15.039 44.499-0.4405 1.7559-2.2385 4.1349-3.9953 5.2854-8.1666 5.3514-28.836-4.8542-39.131-19.32-8.0967-11.378-15.982-27.433-19.264-39.222-3.4689-12.461-7.942-37.974-7.942-45.298 0-5.3177-0.3276-5.8005-6.2354-9.1941-3.4295-1.9696-9.411-5.9408-13.292-8.8243-3.8812-2.8836-6.7263-4.4296-6.3225-3.4354 8.1633 20.1 12.646 43.225 13.667 70.5 1.1802 31.544-2.3257 44.858-11.812 44.858-3.3259 0-5.6352-1.5722-12.048-8.2041-12.199-12.617-18.054-27.046-19.842-48.898-1.4016-17.13 3.1112-44.705 11.104-67.853 2.3437-6.7872 2.3891-7.6257 0.4992-9.1889-1.1437-0.9462-9.137-9.8787-17.763-19.85-8.6255-9.971-15.88-17.932-16.122-17.69-0.2412 0.2432 0.688 3.8546 2.0652 8.0297 6.2454 18.931 8.5591 61.088 4.5991 83.797-4.224 24.223-10.208 37.196-17.158 37.196-10.032 0-21.518-32.148-21.574-60.384-0.053-26.571 9.9141-61.93 20.622-73.161 3.3895-3.5548 3.3976-3.613 0.8992-6.3912-5.0618-5.6294-28.939-20.87-32.696-20.87-0.3999 0 0.4768 2.3596 1.9482 5.2431 7.9447 15.573 10.171 42.585 6.0053 72.863-5.1335 37.312-3.8289 61.512 4.2296 78.47 5.3316 11.218 10.849 17.131 28.814 30.88 22.476 17.201 23.879 18.835 19.38 22.569-3.3481 2.7784-35.004 1.0851-44.553-2.3834-22.261-8.0862-39.352-25.287-46.937-47.241-2.533-7.331-3.0254-11.386-2.9791-24.535 0.063-17.872 0.7361-20.645 12.426-51.195 17.117-44.733 19.422-56.875 14.201-74.825l-3.0544-10.502-6.9622-0.3967-6.9622-0.402 2.2122 4.2782c3.0017 5.8044 3.8409 18.549 1.942 29.49-0.8628 4.9702-4.8092 17.603-8.77 28.072-10.926 28.879-13.794 40.934-14.594 61.35-0.7396 18.868-2.0595 22.452-6.7158 18.239-3.1717-2.8702-13.003-23.701-15.353-32.531-5.2541-19.74-0.2536-38.864 17.802-68.078 9.6661-15.641 15.742-29.761 15.742-36.586v-5.2424l-6.2355-0.8726c-3.4294-0.4812-12.104-1.9821-19.278-3.3376-7.1732-1.356-13.212-2.2952-13.42-2.0878-0.2073 0.2085 2.2713 3.8884 5.5082 8.18 3.4287 4.5455 6.9756 11.285 8.4968 16.145 3.2214 10.292 3.5024 24.054 0.5513 27.004-2.954 2.954-6.057 0.8885-13.286-8.8433-9.8412-13.249-16.159-29.72-16.159-42.126 0-4.2445-0.1851-4.3839-8.8608-6.686-4.8735-1.2928-9.9452-2.9049-11.271-3.5826-5.9149-3.025-4.4946 0.1936 9.2024 20.868 15.883 23.971 19.146 35.12 21.45 73.284 0.7413 12.274 1.6967 24.229 2.1234 26.567 0.5923 3.2458 0.2551 4.4514-1.4266 5.0964-4.5729 1.7549-21.318-18.361-29.636-35.602-8.8486-18.34-12.218-36.271-13.902-73.991l-0.9009-20.17-4.1372-1.7285c-2.2755-0.9506-5.6932-2.1189-7.5949-2.5962l-3.4575-0.8678 2.5088 6.6027c3.1124 8.1907 4.8182 23.275 5.8455 51.691 1.3087 36.194 4.7892 53.428 13.872 68.683 5.8698 9.8588 23.217 27.547 34.06 34.731 25.99 17.217 41.842 33.12 62.475 62.675 12.306 17.627 13.356 21.345 6.4425 22.816-6.7031 1.4259-24.386 0.9805-36.625-0.9229z" fill="#8da051" stroke-width="1.3127"/> </g> </g> </svg>