<?xml version='1.0' encoding='utf-8'?>
<svg xmlns="http://www.w3.org/2000/svg" width="1323.2mm" height="1323.2mm" version="1.1" viewBox="0 0 1323.2 1323.2"> <g transform="translate(896.2 94.648)"> <g transform="matrix(3.907 0 0 3.907 706.67 -1731.8)" stroke-width=".25595"> <g transform="translate(-859.12 -528.53)" stroke-width=".25595"> <path d="m448.87 947.56h338.67v338.67h-338.67z" fill="#fbf6ee" stop-color="#000000" stroke-linecap="square" stroke-linejoin="round" stroke-width=".076785" style="paint-order:markers stroke fill"/> <g transform="matrix(1.0261 0 0 1.0261 -20.537 -33.541)"> <path d="m706.72 1004.3c-0.0679-0.2012-0.31034-0.9695-0.53858-1.7073-0.88486-2.8605-2.9948-6.5068-5.5228-9.5445l-1.2602-1.5144 0.43454-1.727c0.48374-1.9225 1.4444-4.2884 2.1732-5.3522 0.26313-0.38408 0.85518-0.85577 1.3157-1.0482 0.73429-0.30681 0.99752-0.30323 2.1408 0.0291 0.71698 0.20842 2.1075 0.91691 3.0901 1.5744 1.8705 1.2517 5.0793 4.371 5.0793 4.9377 0 0.18139-0.67035 1.4817-1.4897 2.8897-2.2843 3.9254-3.6055 6.6832-4.4911 9.3743-0.44419 1.3498-0.86322 2.2896-0.9312 2.0883z" fill="#e6cecd" stroke-width=".24944"/> <path d="m735.58 1003.8c0-1.8629-0.74227-6.3688-1.365-8.2858-0.33832-1.0416-1.1003-2.7939-1.6932-3.8941l-1.078-2.0004 0.81634-0.86557c0.67915-0.72012 0.9857-0.86557 1.8242-0.86557 1.5018 0 2.5774 1.1991 4.0102 4.4707 0.62927 1.4368 1.1441 2.8098 1.1441 3.051 0 0.24118-0.53661 1.7655-1.1924 3.3873-0.65586 1.6218-1.3828 3.5352-1.6154 4.2519-0.56731 1.7479-0.85081 1.998-0.85081 0.7505z" fill="#e6cecd" stroke-width=".24944"/> <path d="m628.99 1004.9c0-0.077 0.17733-1.6042 0.39408-3.3945 0.79019-6.5267 0.44994-11.524-1.0394-15.265-0.62311-1.5654-0.60699-1.7486 0.23628-2.6853 0.79555-0.88372 1.714-0.71657 3.0791 0.56031 1.6873 1.5782 2.9409 4.1842 2.9367 6.1045-8e-3 3.6239-1.0447 6.63-4.4099 12.787-1.0129 1.8533-1.1968 2.1442-1.1968 1.8932z" fill="#e6cecd" stroke-width=".24944"/> <path d="m629.86 1027.3c1.0345-2.9281 1.1518-3.5248 1.1515-5.8539-2.5e-4 -2.0778-0.14966-3.006-1.008-6.2655-0.55423-2.1044-1.0077-4.2048-1.0077-4.6675 0-0.7948 0.9823-4.1064 1.5321-5.1652 0.13933-0.2683 1.0476-1.6951 2.0184-3.1708 2.7806-4.2269 3.5026-6.3658 4.1006-12.149 0.26411-2.554 0.45467-3.4857 0.78838-3.8544 0.82008-0.90618 3.316-2.412 3.9979-2.412 1.1021 0 1.2364 0.39902 1.0756 3.1957-0.1447 2.5172-0.13741 2.5625 0.97304 6.0477 1.3475 4.2293 1.5919 6.3786 1.0288 9.0499-0.6768 3.2111-1.7909 5.0614-5.1297 8.5199-4.645 4.8114-5.9596 6.9342-7.3236 11.826-0.74662 2.6777-1.3404 4.1621-1.9596 4.8989l-0.41 0.4878z" fill="#a65b6f" stroke-width=".24944"/> <path d="m624.71 1030.2c0.0987-0.2482 0.2937-1.1264 0.43342-1.9514 0.34021-2.0087-0.12375-4.019-1.8628-8.0711-1.4631-3.4092-1.8451-5.1512-1.8479-8.427-5e-3 -5.9313-1.4454-12.188-3.7873-16.45-0.45941-0.83628-1.7713-2.8558-2.9153-4.4879s-2.0796-3.0333-2.079-3.1138c4.9e-4 -0.0805 1.1805-1.3538 2.622-2.8294 1.4416-1.4757 3.0649-3.3416 3.6075-4.1465 1.2652-1.8769 1.9244-2.0097 3.6054-0.72616 2.3827 1.8193 3.7302 4.2295 5.1545 9.2194 1.3126 4.5985 1.3684 8.4139 0.19874 13.581-0.49753 2.1977-0.63907 3.4914-0.65382 5.9758-0.0179 3.0127 0.0324 3.3533 1.0084 6.8295 1.1837 4.2163 1.4462 6.2446 1.0696 8.2672-0.51039 2.7411-2.2282 5.4875-4.0081 6.4079-0.68423 0.3538-0.71464 0.3496-0.54526-0.076z" fill="#8d384f" stroke-width=".24944"/> <path d="m613.96 1029.7c-2.1161-1.4861-3.135-2.8091-5.9404-7.7129-2.9004-5.07-3.5933-5.9791-7.4003-9.7094-3.5646-3.4928-4.8111-4.392-9.9929-7.2084-4.2838-2.3283-5.2091-3.0232-6.3859-4.7962-1.1377-1.714-1.7083-3.3929-2.1044-6.1919-0.41146-2.9072-0.0303-7.0996 0.89495-9.8453 0.97598-2.8961 1.914-3.0919 3.7495-0.78284 2.0724 2.6072 4.2338 3.7974 9.0987 5.0108 2.1783 0.54327 3.1099 0.88042 3.1099 1.1255 0 0.19246-0.11945 1.1198-0.26545 2.0607-0.51833 3.3407 0.60733 8.0736 2.6727 11.237 0.65169 0.9983 2.4774 3.1792 4.0572 4.8464 3.2733 3.4545 4.3911 4.8845 5.4362 6.955 1.0762 2.1319 1.6991 4.2005 2.3809 7.906 0.72415 3.9359 1.1723 5.5616 1.9641 7.124 0.32581 0.643 0.55286 1.169 0.50457 1.169-0.0483 0-0.84903-0.5346-1.7794-1.1879z" fill="#d591a4" stroke-width=".24944"/> <path d="m618.53 1031.4c-0.96844-0.4771-2.0894-2.1309-2.5927-3.8251-0.19531-0.6575-0.57263-2.9076-0.83848-5.0002-0.54612-4.2988-0.9346-5.8003-2.0886-8.0729-1.2312-2.4245-2.1155-3.535-6.9233-8.6944-3.4382-3.6896-4.6628-6.4282-4.8376-10.819-0.0983-2.4682-0.0186-3.2574 0.66352-6.5731 1.0678-5.1904 1.3462-5.6277 3.1767-4.9903 2.9445 1.0254 4.0143 1.9549 6.7113 5.8315 0.65331 0.93906 1.9767 2.805 2.941 4.1465 2.0055 2.7902 2.9453 4.5649 3.8478 7.2662 1.2068 3.6121 1.4572 5.6806 1.2801 10.572-0.10282 2.839-0.0668 4.8481 0.10044 5.6099 0.14334 0.6528 0.97098 2.682 1.8392 4.5094 0.86821 1.8273 1.6959 3.9573 1.8394 4.7332 0.72549 3.9246-2.0605 6.8126-5.1187 5.3062z" fill="#88424a" stroke-width=".24944"/> <path d="m729 1047.8c0-0.049 0.47085-0.7918 1.0463-1.6499 1.5981-2.3831 2.4323-5.121 2.5583-8.3961 0.0961-2.4989 0.0394-2.9391-0.77478-6.0075-1.1313-4.2637-1.1542-5.8678-0.12464-8.7358 2.0459-5.6994 2.905-8.3849 3.3944-10.61 0.71242-3.2395 2.2922-7.8814 4.358-12.805l1.6885-4.0246 1.7132-1.0976c3.0761-1.9708 3.7668-2.9392 4.2099-5.9025 0.14647-0.97939 0.37046-2.1905 0.49778-2.6914 0.24093-0.94787 0.90005-1.5024 1.5084-1.269 0.5276 0.20246 2.2903 5.762 2.6245 8.2774 0.37374 2.8134 0.15525 6.1334-0.61136 9.2901-1.262 5.1968-2.5067 7.9032-6.8286 14.848-4.7519 7.6359-5.2475 8.9604-5.2552 14.044-5e-3 3.1396-0.35597 4.8653-1.4831 7.2867-1.4748 3.1682-3.8984 6.1576-6.8566 8.4574-1.2746 0.991-1.6649 1.2222-1.6649 0.9863z" fill="#a65b6f" stroke-width=".24944"/> <path d="m720.79 1048.2c-0.86735-0.5289-1.8624-1.7462-2.3099-2.8259-0.20025-0.4832-0.35805-3.003-0.46581-7.4383-0.22766-9.3716-0.56239-10.533-5.1334-17.814-1.3866-2.2087-2.8547-4.839-3.2625-5.8451-0.70342-1.7355-0.74147-2.0045-0.74203-5.2441-7.3e-4 -4.9512 0.70871-7.1911 4.52-14.269 1.0475-1.9452 2.0843-4.0974 2.3041-4.7826 0.28451-0.8872 0.74396-1.571 1.5958-2.3749 1.6802-1.5858 2.6629-3.6192 3.252-6.7288 0.16346-0.86287 0.42272-1.6107 0.57614-1.6618 0.15344-0.0512 1.0121 1.039 1.9081 2.4226 0.89601 1.3836 2.3627 3.3936 3.2594 4.4668 5.2388 6.2704 7.846 13.656 7.5164 21.292-0.14232 3.2977-0.47833 4.7031-2.7821 11.636-2.1672 6.5218-2.2363 7.5152-0.8289 11.92 1.6584 5.1906 1.5512 8.0955-0.45292 12.274-1.7059 3.5566-4.0747 5.4419-6.8352 5.4401-0.90301-5e-4 -1.6095-0.1563-2.1191-0.467z" fill="#d591a4" stroke-width=".24944"/> <path d="m716.41 1049.3c-3.3279-0.724-5.9044-2.7946-7.4689-6.0022-0.98284-2.015-1.4657-4.0386-2.0176-8.4552-0.51299-4.1053-1.1911-5.7084-3.3093-7.8228-1.3578-1.3555-2.2552-1.8007-5.2378-2.599-1.3371-0.358-3.4738-1.1513-4.7483-1.7632-1.8989-0.9116-2.6493-1.4476-4.1572-2.9691-3.2562-3.2855-4.5113-6.6401-5.2202-13.953-0.93936-9.6905-1.0722-10.418-2.4222-13.27-0.44449-0.93905-1.4289-2.53-2.1875-3.5355-0.75864-1.0055-1.3793-1.8976-1.3793-1.9824s0.16613-0.29214 0.36919-0.46066c0.28781-0.23885 0.67762-0.24636 1.7684-0.034 0.76954 0.14978 2.9358 0.54397 4.8139 0.87597 3.7554 0.66384 7.0802 1.5579 8.8005 2.3666 1.4182 0.66664 4.7002 3.8808 6.6418 6.5045 3.4499 4.6619 5.0366 8.6863 6.0276 15.288 0.56284 3.7494 1.3102 5.3879 5.3089 11.639 3.3995 5.3144 4.0749 7.7436 4.0778 14.666 9.2e-4 2.4365 0.11653 5.1434 0.25671 6.0154 0.31383 1.952 1.2252 4.0097 2.2416 5.0611l0.76637 0.7927-0.71859-0.019c-0.39523-0.011-1.3879-0.165-2.206-0.3431z" fill="#88424a" stroke-width=".24944"/> <path d="m550.27 1057.5c-3.2926-3.9726-7.3099-7.2938-12.987-10.737l-2.0732-1.2572-0.12918-5.4151c-0.0711-2.9783-0.0384-5.7012 0.0727-6.0509 0.48096-1.5151 2.5888-1.5507 6.876-0.1161 2.8445 0.9518 7.5678 3.2804 9.457 4.6622 1.4334 1.0485 2.2155 2.533 2.7662 5.2508 0.56862 2.8063 0.36091 5.4572-0.83976 10.718-0.53584 2.3476-1.0091 4.5173-1.0517 4.8214-0.0649 0.4632-0.40429 0.1586-2.0908-1.8762z" fill="#e6cecd" stroke-width=".24944"/> <path d="m519.72 1080.1c-4.5818-2.7056-9.4752-3.6234-14.726-2.7621-2.9984 0.4918-2.7561 0.599-3.5875-1.5861-1.0214-2.6845-1.2418-4.6537-1.2825-11.464-0.0451-7.545 0.0262-7.8604 1.9963-8.8309 1.0348-0.5098 1.4616-0.5588 4.7946-0.5505 3.836 0.01 6.0209 0.3821 9.1838 1.5655l1.3738 0.514-0.12496 5.5413c-0.10085 4.4718-0.0475 5.9885 0.27632 7.8584 0.52137 3.0107 1.3877 5.693 2.7146 8.4047 0.588 1.2017 1.0462 2.1987 1.0182 2.2154-0.028 0.017-0.76438-0.3908-1.6364-0.9058z" fill="#e6cecd" stroke-width=".24944"/> <path d="m746.99 1082.9c-0.63156-1.2989-1.8096-3.2397-2.6178-4.3129s-1.4697-2.0373-1.47-2.1423c-2.4e-4 -0.1051 0.27991-0.7443 0.62256-1.4205 1.1319-2.2338 2.648-2.3878 5.6652-0.5754 2.5498 1.5317 2.4399 1.1997 1.3095 3.9564-0.54383 1.3262-1.2708 3.3848-1.6156 4.5744-0.34477 1.1898-0.65353 2.1899-0.68617 2.2226-0.0326 0.032-0.57602-1.0035-1.2076-2.3023z" fill="#e6cecd" stroke-width=".24944"/> <path d="m773.65 1088.9c-0.48646-2.0436-1.6084-4.8591-3.5868-9.0013-0.987-2.0663-1.7945-3.9669-1.7945-4.2234 0-0.7819 1.6221-4.0303 2.1549-4.3155 0.75094-0.4018 1.6221 0.1059 2.4827 1.4471 1.1037 1.7199 2.7708 6.2587 2.7753 7.5561 4e-3 0.9682-1.0337 7.1735-1.5287 9.1467-0.17557 0.6998-0.19752 0.6731-0.50292-0.6097z" fill="#e6cecd" stroke-width=".24944"/> <path d="m588.9 1108.9c-2.1809-3.1918-4.0179-4.3408-10.211-6.3865-6.5871-2.1758-9.4062-3.7269-12.023-6.6153-2.5174-2.7787-4.0299-6.2226-5.2453-11.944-1.5108-7.1113-2.0232-9.1609-2.9248-11.698-0.85423-2.4042-3.0006-7.0464-4.517-9.7691l-0.63909-1.1476 0.37009-1.7794c0.20355-0.9786 0.8707-3.3619 1.4826-5.2962 1.5891-5.0238 1.7911-6.7239 1.2842-10.81-0.51677-4.1661-1.0159-5.7586-3.1011-9.8948l-1.684-3.3403 0.53555-0.4514c0.77605-0.654 2.0467-0.4043 4.7347 0.9301 3.8876 1.9299 7.2407 5.0141 10.617 9.7655 0.76254 1.0732 1.8981 2.4452 2.5234 3.0489 1.4107 1.3618 2.3692 2.7335 3.2846 4.7003 1.5993 3.4362 1.9508 6.9901 1.4306 14.461-0.51002 7.3237-0.42489 12.918 0.23359 15.352 1.1316 4.1828 3.9645 8.9204 8.0059 13.389 5.5206 6.1038 6.6282 7.8653 7.3015 11.612 0.36471 2.0295 0.31197 5.3783-0.10951 6.9543-0.16444 0.6148-0.22156 0.5691-1.3487-1.0806z" fill="#8d384f" stroke-width=".24944"/> <path d="m579.97 1119.2c-1.4802-0.2475-3.75-1.159-5.1686-2.0756-2.006-1.2962-4.382-3.7121-7.5083-7.6344-3.0711-3.8529-6.574-7.3913-9.0312-9.1226-3.6412-2.5653-7.1475-4.0384-14.282-5.9999-4.5771-1.2584-6.341-1.885-8.7676-3.1147-5.664-2.8702-10.826-8.3476-13.089-13.888-0.39951-0.9782-1.0164-2.931-1.3709-4.3397-0.61027-2.4249-0.64482-2.8851-0.64993-8.6588-3e-3 -3.3538 0.0849-8.4576 0.19531-11.342 0.16039-4.1906 0.13087-5.5971-0.14695-7.0013-0.37538-1.8974-0.34606-2.0442 0.49677-2.4882 0.73003-0.3845 1.3081-0.1887 3.2226 1.0918 1.9258 1.2879 4.3736 2.123 7.8887 2.6913l2.6446 0.4275 2.835 1.936c12.82 8.7541 17.824 16.294 21.881 32.966 1.6957 6.9682 3.1384 10.331 5.8344 13.599 2.7469 3.3298 6.3985 5.4616 13.033 7.6082 2.3303 0.754 4.9722 1.7572 5.8708 2.2294 1.9565 1.0282 4.4227 3.4051 5.245 5.0554 0.5449 1.0934 0.56529 1.2584 0.26188 2.1183-0.18098 0.5129-0.51831 1.2987-0.74964 1.7459-0.53137 1.0277-2.946 3.5737-3.816 4.0236-0.62457 0.3231-3.3468 0.4202-4.8294 0.1723z" fill="#994c60" stroke-width=".24944"/> <path d="m573.14 1123.2c-6.8754-1.6882-8.9788-2.4706-12.124-4.5095-2.5157-1.6305-4.9898-2.8961-6.5189-3.3342-2.336-0.6695-5.3803-0.3881-9.2844 0.8582-5.7916 1.8488-9.1499 2.4355-13.978 2.442-6.3424 0.01-11.513-1.327-18.367-4.744-3.8097-1.8993-6.4902-3.7537-9.256-6.4036-3.857-3.6954-5.5997-6.5321-10.531-17.142-0.59235-1.2745-1.6449-3.2314-2.3391-4.3488-0.69415-1.1173-1.2621-2.2399-1.2621-2.4944 0-0.8372 0.943-1.146 3.9026-1.2783 2.3727-0.1061 3.2936-0.2771 5.9758-1.1098 8.9655-2.7834 12.589-2.913 18.414-0.6591 3.243 1.2549 4.4985 2.1335 7.4522 5.2148 5.1927 5.4171 9.9925 8.095 18.263 10.189 5.8012 1.4688 10.002 3.0964 13.004 5.0383 3.1234 2.0206 5.4596 4.3654 10.143 10.181 4.6607 5.7871 7.3165 8.0008 10.991 9.1615 1.6709 0.5278 2.369 0.6133 4.7263 0.5783 1.5212-0.022 2.8109 0.01 2.866 0.059 0.21142 0.2115-2.2751 1.6337-3.5464 2.0285-1.7948 0.5575-6.7275 0.7152-8.5292 0.2728z" fill="#985463" stroke-width=".24944"/> <path d="m757.31 1133.4c-1.2075-0.6662-2.1904-2.5386-2.376-4.5265-0.18067-1.9347 0.12359-3.6408 1.3865-7.7745 2.6593-8.7045 2.5083-9.7634-2.7914-19.575-3.7958-7.0276-4.4106-12.26-2.2147-18.849 1.2243-3.6737 4.5702-10.332 7.081-14.09 1.165-1.7439 2.162-3.217 2.2156-3.2734 0.15973-0.1682 1.3111 0.9926 2.2953 2.3142 0.61071 0.82 1.0998 1.887 1.4533 3.1707 0.88333 3.2078 1.4509 4.6545 3.7254 9.4962 3.3707 7.1752 4.3153 10.678 4.0064 14.855-0.26502 3.5855-1.2754 6.3287-3.9011 10.592-2.1742 3.5299-3.247 6.1986-3.8407 9.5545-0.15793 0.8927-0.29574 4.4624-0.31542 8.171-0.0329 6.1948-0.0663 6.6533-0.56222 7.7264-0.71781 1.5532-2.1048 2.46-3.9462 2.5797-1.0241 0.066-1.5961-0.03-2.2158-0.3709z" fill="#88424a" stroke-width=".24944"/> <path d="m753.27 1133.1c-2.2457-1.2884-3.3534-2.7778-5.7086-7.6756-3.2568-6.7727-4.4708-8.3662-9.0079-11.824-1.5855-1.2084-3.4682-2.837-4.1838-3.6189-1.4554-1.5905-2.9396-4.4601-3.5738-6.9099-0.47994-1.8539-0.53445-6.7327-0.11168-9.994 0.6766-5.2194 0.19117-10.202-1.2755-13.093-0.56687-1.1173-2.5574-3.9748-3.2569-4.6752-0.177-0.1773-0.32184-0.4032-0.32184-0.5021 0-1.5852 5.4622-1.8431 10.815-0.5109 2.1166 0.5268 2.9478 1.117 5.1152 3.6318 3.4512 4.0045 5.4449 8.3509 6.1502 13.408 0.72386 5.1898 1.5967 7.6537 4.8197 13.605 1.1503 2.1242 2.3311 4.5755 2.6239 5.4475 0.81529 2.4277 0.58057 4.8602-1.0003 10.366-1.1343 3.9506-1.2639 4.6483-1.2943 6.966-0.0326 2.4936-6e-3 2.6314 0.83637 4.3294 0.47856 0.9646 0.80783 1.7528 0.73173 1.7515-0.0761-9e-4 -0.68717-0.3171-1.3579-0.702z" fill="#8d384f" stroke-width=".24944"/> <path d="m763.39 1134.7c0-0.059 0.37218-0.5018 0.82706-0.9842 1.405-1.4897 1.6388-2.5729 1.8788-8.7038 0.4317-11.028 0.88291-13.087 4.0358-18.415 2.3232-3.9261 3.1201-5.8287 3.7634-8.9854 0.27643-1.3564 0.71237-3.2372 0.96877-4.1796 0.25642-0.9424 0.84537-3.7989 1.3088-6.3478 0.46338-2.5489 0.9464-5.0925 1.0733-5.6525 0.36635-1.6163 3.2391-4.7195 4.3602-4.7101 1.1075 0.01 1.4082 0.6867 1.8953 4.2699 0.21845 1.607 0.55634 3.8572 0.75089 5.0003 0.66212 3.8911 0.86766 7.9352 0.5977 11.76-0.32323 4.5792-1.0675 7.5866-2.6912 10.874-1.3009 2.634-1.8037 3.217-6.8748 7.9716-2.0345 1.9074-2.7109 3.1069-4.3615 7.7337-2.3767 6.6627-4.4418 9.8212-6.7398 10.308-0.43599 0.092-0.79271 0.1197-0.79271 0.061z" fill="#a65b6f" stroke-width=".24944"/> <path d="m486.39 1164.5c-1.0106-0.3124-2.8648-2.7757-4.367-5.8015-1.2529-2.5237-1.536-3.8149-1.0787-4.9192 0.31595-0.7626 2.9535-2.9292 3.5662-2.9292 0.1903 0 1.0794 0.7774 1.9757 1.7276 3.374 3.5765 8.6956 6.8397 13.484 8.2682 1.75 0.5222 2.1978 0.736 1.8293 0.874-0.2683 0.1003-1.2986 0.4995-2.2896 0.8869-3.9167 1.531-5.8059 1.9521-9.1742 2.0452-1.744 0.048-3.5196-0.02-3.9459-0.152z" fill="#e6cecd" stroke-width=".24944"/> <path d="m549.88 1165c-0.0829-0.5184-0.60947-1.8591-1.1702-2.9793-1.7164-3.4294-5.7567-7.0338-10.571-9.4308-0.80491-0.4007-3.3843-1.4646-5.7319-2.3641s-5.4133-2.1881-6.8125-2.8636c-2.3366-1.1279-2.7642-1.4498-5.2441-3.9476-1.7942-1.807-3.1501-3.4421-4.0415-4.8734-3.5241-5.6583-5.2554-8.0851-7.1405-10.009-2.2332-2.279-5.1938-4.3205-8.0277-5.5353-1.4864-0.6371-1.9088-0.9336-2.038-1.4299-0.37134-1.4272-0.52336-3.6424-0.34159-4.9772 0.33919-2.4909 1.5634-3.085 2.8942-1.4046 0.91964 1.1611 4.026 2.8231 7.606 4.0691 5.2848 1.8395 9.1106 3.9854 11.785 6.6103 1.9949 1.9578 3.4902 4.0526 6.8447 9.5891 3.177 5.2434 3.7742 6.0985 5.5935 8.0091 2.431 2.5531 3.7041 3.173 8.1108 3.95 4.7143 0.8311 6.9346 1.9581 8.7703 4.4518 1.8295 2.4851 2.4779 5.87 1.7717 9.2487-0.31213 1.4934-1.6361 4.8293-1.9166 4.8293-0.10448 0-0.25781-0.4241-0.3407-0.9426z" fill="#7e3145" stroke-width=".24944"/> <path d="m540.45 1171.4c-2.0312-0.6218-4.0677-2.0676-9.1467-6.4943-6.8117-5.9366-10.465-6.9585-19.025-5.322-3.2193 0.6154-7.4696 0.5565-10.23-0.1417-5.7585-1.4567-11.159-4.6187-15.28-8.946-1.2269-1.2884-1.45-1.6971-2.246-4.1129-0.4861-1.4753-1.1655-3.8105-1.5097-5.1893-0.86781-3.4759-1.4221-4.8498-2.6874-6.6615-1.3106-1.8764-1.4129-2.761-0.42665-3.6888 0.73909-0.6954 7.5827-4.1842 10.413-5.3083 4.009-1.5926 8.6018-1.9085 10.869-0.7476 4.2245 2.1634 7.502 5.4766 11.796 11.924 6.15 9.2346 8.2837 11.005 17.839 14.8 7.3366 2.9137 10.25 4.5833 13.214 7.5727 1.327 1.3385 1.9943 2.2698 2.7607 3.8533 1.7684 3.6536 1.5746 5.4525-0.82605 7.6653l-1.1127 1.0257-1.8958-0.021c-1.0427-0.012-2.1702-0.1049-2.5055-0.2076z" fill="#ac727e" stroke-width=".24944"/> <path d="m529.48 1182c-1.9519-0.3235-4.9263-1.8885-7.5587-3.9773-4.0259-3.1947-5.2488-3.2757-11.106-0.7361-6.5594 2.844-12.243 3.3749-18.066 1.6875-6.2464-1.8101-10.686-5.7536-13.654-12.127-0.72354-1.5541-0.74197-1.9875-0.11134-2.6182 0.71774-0.7177 1.5503-0.6018 3.3721 0.4697 1.8628 1.0956 2.6675 1.3332 5.9113 1.7454 3.3864 0.4302 6.1284-0.071 10.348-1.8914 6.059-2.6141 6.533-2.7628 8.8123-2.7628 1.3376 0 3.4242-0.2693 5.8983-0.7614 3.1999-0.6365 4.2164-0.7429 6.1921-0.6477 2.1412 0.1031 2.5545 0.2061 4.3915 1.0943 2.3184 1.121 4.3562 2.5987 8.2612 5.9902 3.2553 2.8273 5.1038 4.1016 7.0024 4.8272 1.6392 0.6265 4.4285 0.8803 5.7288 0.5213 0.50285-0.1389 0.91426-0.1887 0.91426-0.1106 0 0.6001-1.5334 2.4925-2.9628 3.6563-4.7922 3.902-6.5932 4.9632-9.4525 5.5693-1.7973 0.381-2.0269 0.3852-3.9213 0.071z" fill="#92505e" stroke-width=".24944"/> <path d="m780.95 1189.3c-5.7051-3.83-8.4149-5.8003-14.111-10.26-5.5511-4.3459-8.2088-5.6006-15.825-7.4708-7.4752-1.8354-10.999-3.5047-15.385-7.2886-4.3198-3.7266-16.223-16.587-20.202-21.826-1.0295-1.3556-1.4634-1.6963-3.3765-2.6501-3.1788-1.585-6.4268-2.2712-8.6287-1.8233-1.857 0.3779-4.9118 1.9888-6.4961 3.4258-0.80619 0.7312-2.288 1.7428-3.2928 2.2478-3.5367 1.778-4.6983 2.8093-7.6568 6.7979-1.8992 2.5606-3.3685 3.9779-6.6097 6.3755-0.5366 0.3969-2.794 2.4797-5.0164 4.6284-4.339 4.1951-6.3524 5.7045-9.628 7.2179-2.1656 1.0005-2.5836 1.4283-2.0379 2.0858 0.45599 0.5494 2.1534 0.3092 4.5246-0.6402 3.9532-1.583 6.0855-3.3064 9.9688-8.0571 1.4098-1.7247 3.5705-4.0475 4.8016-5.1618s3.7689-3.4846 5.6396-5.2674c1.8707-1.7827 3.6164-3.3564 3.8793-3.4972 0.44265-0.2368 0.46536-0.1955 0.30687 0.5584-0.31362 1.4919-2.0522 5.6671-3.2152 7.721-1.8289 3.2302-8.2485 11.588-10.715 13.95-4.037 3.8663-7.5416 5.6074-11.287 5.6074-2.5394 0-7.3122-1.7363-8.1804-2.9758-0.82173-1.1733-0.38225-2.2784 2.3084-5.805 2.9727-3.8964 5.4384-6.5969 8.693-9.521 1.712-1.5381 4.7097-4.3881 6.6616-6.3333 3.7004-3.6876 6.2164-5.6238 8.8267-6.7925 1.8894-0.8459 5.6415-2.0973 7.7206-2.5749 1.2814-0.2945 1.7624-0.5616 2.8307-1.5719 1.3794-1.3047 3.5347-2.7746 4.5283-3.0884 0.56186-0.1774 0.50936-0.2269-0.66791-0.6279-4.193-1.4284-7.759-4.645-9.9197-8.9478-0.64349-1.2814-0.65746-1.2913-4.3586-3.0982-2.0422-0.997-4.5178-2.033-5.5014-2.3022-1.6978-0.4647-1.8398-0.4689-2.8026-0.084-3.3532 1.3417-5.4972 3.6251-7.3555 7.8338-0.5102 1.1554-0.50541 1.1892 0.78484 5.5214 0.49393 1.6584 0.68079 6.741 0.3233 8.7938-0.79156 4.5455-3.9742 8.4845-8.639 10.692-1.9291 0.9131-3.8935 1.4851-8.4505 2.4607-1.6769 0.359-4.9148 1.1846-7.1954 1.8346-2.2806 0.6501-5.4827 1.5199-7.1158 1.9329-6.6244 1.6752-10.271 3.3879-15.11 7.0971-1.7279 1.3244-2.0461 1.4205-2.6625 0.804-0.53164-0.5316-0.37943-1.6915 0.60918-4.6423 1.1811-3.5252 2.4641-6.0803 6.0196-11.987 4.136-6.8711 5.6714-9.0345 7.308-10.297 1.7765-1.3705 3.3924-1.9219 6.8029-2.3213 3.818-0.4471 5.1218-0.8485 6.9937-2.1534 5.4615-3.8073 6.4191-4.3859 8.3716-5.0589 2.1589-0.7441 5.7737-1.2205 7.2974-0.9617l0.86974 0.1478-1.2184 2.805c-2.0033 4.6121-3.3358 6.2919-6.5794 8.2946-0.73784 0.4555-2.3891 1.5687-3.6694 2.4737-3.4858 2.4639-4.4495 2.8089-11.435 4.0938-4.9933 0.9184-6.6196 1.4551-8.8583 2.9233-2.9841 1.957-6.2826 5.8141-6.6827 7.8144-0.2237 1.1185 0.17345 0.9029 1.3746-0.7465 1.9115-2.6249 5.0018-5.0451 7.771-6.0858 0.78402-0.2947 3.0053-0.7204 5.1577-0.9885 6.5749-0.819 9.5417-1.9334 12.746-4.7876 1.9107-1.7017 3.194-2.6013 6.0347-4.2301 2.128-1.2202 3.7429-2.7872 4.7112-4.5714 1.053-1.9404 2.1009-5.3022 2.3579-7.564 0.18933-1.6661 0.41613-2.3821 1.2375-3.9063 1.2303-2.283 2.4323-3.7824 3.8117-4.7547 0.57502-0.4054 1.0136-0.7689 0.97465-0.8079-0.039-0.039-0.94284 0.1379-2.0086 0.393-2.3772 0.5691-6.3377 2.0589-14.621 5.5002-11.458 4.7601-12.331 4.8376-27.074 2.3993-3.7347-0.6177-7.8626-1.1502-9.5354-1.2301l-2.9498-0.141-0.51569 1.0705c-0.77686 1.6126-1.1244 4.1762-0.84092 6.2021 0.13071 0.9338 0.81412 3.9407 1.5187 6.6819l1.2811 4.984-0.11444 3.7969c-0.0717 2.3785-0.27467 4.4801-0.54337 5.626-1.1035 4.7064-4.4739 9.6719-9.0805 13.378-3.8568 3.1032-6.7658 4.1551-11.545 4.1747-2.5594 0.01-3.0664-0.2709-3.3004-1.8309-0.19725-1.3154 0.25439-5.9907 0.77657-8.039 0.54483-2.1372 1.6842-4.3004 3.2467-6.1644 1.968-2.3476 2.7786-3.5944 3.8632-5.9419 0.52587-1.1382 1.3401-2.6667 1.8093-3.3966 1.6084-2.5017 4.7882-5.3065 7.6875-6.7808 0.5648-0.2871 1.0862-0.5221 1.1586-0.5221 0.0725 0 0.13167 0.8088 0.13167 1.7974 0 7.4963-4.5491 16.761-12.003 24.445-1.3131 1.3537-2.3875 2.5767-2.3875 2.7178 0 0.4627 0.6375 0.5143 1.485 0.1202 1.4907-0.6933 5.5845-5.0678 7.5842-8.1043 4.0977-6.2221 6.1803-11.336 6.7636-16.607 0.22751-2.0562 0.18319-2.9395-0.36724-7.3173-0.35125-2.7939-0.57134-5.5434-0.50149-6.2652l0.12446-1.2862-1.0374 0.9204c-3.5838 3.1796-6.7034 7.3016-10.388 13.726-4.9211 8.5804-7.7398 11.658-19.639 21.445-5.107 4.2003-8.2476 5.3851-14.275 5.3851-3.8205 0-13.837-1.0782-14.297-1.5389-0.0738-0.074 0.55054-1.4591 1.3875-3.0783 1.2786-2.4739 1.6117-2.9441 2.0851-2.9441 0.30984 0 3.1205 0.5029 6.246 1.1175 6.6946 1.3165 10.315 1.607 12.401 0.9951 1.994-0.5848 4.1966-2.0042 6.5624-4.229 1.8304-1.7213 5.091-5.5048 5.3376-6.1933 0.0447-0.125-0.56649-0.2272-1.3582-0.2272-1.5228 0-3.5161-0.4937-4.9579-1.228-0.4778-0.2433-2.7828-2.3513-5.1221-4.6846-6.6925-6.6748-9.4725-8.3707-17.145-10.459-4.9517-1.348-6.579-2.1168-10.048-4.7468-4.4302-3.3593-6.0795-4.2638-9.309-5.105-1.1845-0.3085-1.444-0.3125-1.73-0.027-0.28595 0.286-0.21411 0.4288 0.47889 0.9527 0.44843 0.339 1.8481 1.0796 3.1105 1.6456 2.6518 1.1892 4.2631 2.1064 7.8272 4.4555 3.0334 1.9992 5.147 3.0832 9.2686 4.7534 4.4443 1.801 6.032 2.5419 9.0441 4.2205 3.2892 1.833 4.1288 2.4874 8.1578 6.3581 1.7406 1.6723 3.3842 3.1646 3.6525 3.3165l0.48783 0.276-0.48783 0.3653c-1.0908 0.817-3.8358 1.4882-5.9758 1.4614-3.7465-0.047-6.7834-1.4287-11.608-5.2807-5.3603-4.2799-6.7475-5.2363-9.7826-6.7445-1.7174-0.8534-3.7263-1.9283-4.4641-2.3886-0.75615-0.4718-3.4169-2.9397-6.0978-5.6559-4.6859-4.7474-6.3737-6.2127-8.5369-7.4115-1.3183-0.7304-1.5926-1.6237-0.68173-2.2206 0.65412-0.4285 4.3539-1.4265 7.0234-1.8943 2.9627-0.5192 9.1023-0.3993 12.537 0.2449 8.6763 1.6272 15.252 3.4793 17.955 5.0572 4.9623 2.8965 9.0164 9.4521 11.582 18.728 0.50954 1.8426 1.1854 2.516 2.714 2.7042 0.65406 0.08 1.704 0.2506 2.3333 0.3778 1.2524 0.2533 2.2744 0.021 3.4201-0.7765 0.38234-0.2661 2.1227-2.9015 4.1232-6.2433 5.3662-8.9645 7.1839-11.404 10.782-14.468 1.0066-0.8574 1.8049-1.5845 1.774-1.616-0.0309-0.031-0.87197 0.1165-1.869 0.3287-2.1862 0.4652-6.1473 0.5189-8.1546 0.1106-2.3535-0.4787-5.7287-2.2409-7.543-3.9381-2.5569-2.3918-3.839-4.7826-3.0649-5.7154 0.50593-0.6096 1.1707-0.4214 3.7492 1.0609 5.843 3.3592 8.8129 3.787 17.347 2.4985 8.3194-1.2562 10.727-1.2115 20.489 0.3797 5.9987 0.9779 10.099 1.1557 13.293 0.5763l1.8293-0.3317-2.649-0.323c-3.5577-0.4339-5.2343-0.8482-7.8211-1.9325-5.81-2.4354-8.8264-5.7335-13.918-15.219-2.2244-4.1433-3.0041-5.1834-7.6518-10.206-2.9127-3.1475-4.2437-4.8132-7.5333-9.4275-1.434-2.0114-3.2785-4.3164-4.099-5.1221-1.3733-1.3487-4.3455-3.2679-5.6584-3.6537-1.0853-0.319-0.56254 0.5715 1.1268 1.9194 2.4016 1.9162 3.3641 3.147 6.2386 7.9772 3.1837 5.3497 4.9001 7.5749 9.7643 12.659 3.2652 3.4125 4.2672 4.655 6.5895 8.1711 1.5063 2.2805 3.193 4.7471 3.7481 5.4814 0.55513 0.7342 1.0093 1.4175 1.0093 1.5183 0 0.3274-1.5499-0.075-3.0489-0.7909-0.80491-0.3846-2.2867-1.3746-3.2928-2.1999-2.4231-1.9877-3.3836-2.6381-6.5134-4.4109-4.0037-2.2678-5.8147-3.7763-7.8626-6.5496-1.8289-2.4766-2.967-4.7714-5.6246-11.342-1.3566-3.3538-2.914-6.921-3.461-7.9271-1.4335-2.6368-3.7533-5.8959-5.9613-8.375-2.8628-3.2143-2.8577-3.2068-2.6762-3.9299 0.21932-0.874 1.1539-1.1853 3.092-1.0302 4.0197 0.3216 7.6743 1.9389 11.934 5.2811 4.8967 3.8424 7.1031 5.4728 10.732 7.9302 4.7918 3.2448 7.0498 5.0394 9.5592 7.5973 5.866 5.9797 9.222 11.952 9.222 16.41 0 1.6984 0.67864 7.4552 0.9984 8.4692 0.13292 0.4216 0.75842 1.3676 1.39 2.1022 0.63158 0.7348 1.3286 1.5572 1.5489 1.8278 0.47946 0.5888 3.8381 1.923 6.0571 2.4061 2.2779 0.496 7.0987 0.6858 9.3324 0.3676 1.2456-0.1776 2.9869-0.7176 5.1221-1.5887 5.8534-2.388 11.966-4.214 16.49-4.9261 5.4767-0.862 10.934 0.2142 16.319 3.2183 0.83844 0.4677 1.5244 0.7984 1.5244 0.7349 0-0.3945-2.4412-7.0368-3.3523-9.1213-1.2995-2.9731-2.1518-3.9899-6.2636-7.473-4.0419-3.4239-5.3975-4.4049-7.2426-5.2415-2.7496-1.2467-4.422-1.588-7.6546-1.5621-3.6555 0.029-6.1031 0.358-10.632 1.4283-4.2837 1.0123-6.022 1.065-8.3252 0.252-2.7898-0.9846-4.1345-2.3848-3.7524-3.9072 0.22342-0.89 0.84259-0.9396 2.8449-0.2271 2.7261 0.97 4.4102 0.8864 10.474-0.5193 4.0906-0.9483 5.5606-1.1817 8.0811-1.2824 2.8124-0.1126 3.2801-0.066 5.366 0.5247 1.2568 0.3563 3.6022 1.2912 5.212 2.0773l2.9269 1.4294-1.9705-1.8631c-2.7916-2.6395-4.2916-3.4282-10.216-5.3709-7.7987-2.5575-10.701-3.9473-14.992-7.1786-4.4701-3.3666-6.5041-6.0193-11.698-15.256l-3.0212-5.373-1.3692-0.14c-9.628-0.9845-11.176-1.3785-17.223-4.3854-5.1261-2.5485-6.5858-2.9898-12.15-3.673-5.538-0.68-7.8053-1.2456-11.755-2.9327-6.4838-2.7694-9.6112-5.1696-14.934-11.461-3.1861-3.7662-3.7217-4.5921-3.7229-5.7407-9.2e-4 -1.0787 0.35659-1.4513 1.3931-1.4513 1.4795 0 3.4304 1.3949 7.5088 5.369 5.4053 5.2669 7.0886 6.5435 11.586 8.7867 2.9488 1.4708 5.5332 2.2804 8.8492 2.7721 3.6083 0.5351 3.476 0.5753 2.5302-0.7687-1.4716-2.091-2.3709-3.9128-3.1269-6.3344-1.4102-4.5174-2.5176-6.3231-6.8702-11.203-1.0508-1.178-2.525-3.0237-3.276-4.1016-0.75098-1.0778-2.1413-2.9372-3.0896-4.1318-1.1989-1.5104-2.3237-3.3683-3.6917-6.0978-1.7327-3.4571-2.0384-3.9257-2.5611-3.9257-0.52539 0-0.59059 0.1026-0.56769 0.8927 0.0432 1.493 2.5215 6.1763 4.4271 8.366 3.0503 3.5052 3.6734 4.3485 5.1005 6.903 0.78243 1.4005 2.6417 4.1673 4.1317 6.1484 2.6195 3.4829 4.8531 7.0869 4.6883 7.5647-0.14044 0.4071-3.436-1.3793-5.1289-2.7803-1.6878-1.3966-6.7085-7.3226-8.6266-10.182-1.3815-2.0593-2.1985-3.9808-3.7687-8.8633-0.71821-2.2332-1.7567-4.8416-2.4278-6.0978-0.645-1.2073-1.252-2.4696-1.3489-2.805-0.0969-0.3353-0.44746-0.8997-0.77899-1.2542-0.72992-0.7803-0.69098-1.7588 0.0743-1.8681 0.63246-0.09 2.488 0.7414 6.3152 2.8305 8.1118 4.4278 12.356 8.4476 15.373 14.561 1.1154 2.2602 1.5397 3.5482 2.6917 8.1711 1.0418 4.1808 1.341 5.7756 1.2562 6.6957-0.10261 1.1133 3e-3 1.4149 1.3487 3.8599 0.80302 1.4588 2.0238 3.2522 2.7129 3.9854 1.1668 1.2414 1.3869 1.3648 3.2042 1.7952 2.311 0.5473 3.0079 0.8263 6.7232 2.691 3.5063 1.7597 6.099 2.6817 9.8628 3.5072 1.6098 0.353 3.1762 0.6984 3.481 0.7675 0.51289 0.1162 0.46064-0.061-0.70367-2.3805-3.9793-7.9292-6.6525-19.12-5.2262-21.878 1.2338-2.3859 4.6588 0.3697 6.1913 4.9814 0.26749 0.8048 0.88611 3.3842 1.3747 5.7319 1.5849 7.615 2.9387 11.706 5.6096 16.952 1.8148 3.5642 4.293 7.6861 5.4995 9.1467l0.70513 0.8537-0.35836-1.2065c-0.53318-1.7951-0.69302-4.2284-0.37757-5.7479 0.15306-0.7373 0.72952-2.2182 1.281-3.2909 2.7147-5.28 3.2001-6.4052 3.99-9.25 0.4683-1.6866 1.2497-4.4659 1.7364-6.1764 0.4867-1.7104 1.2205-4.3173 1.6307-5.7929l0.74577-2.683 0.0231-7.4393 0.023-7.4393 0.82855-3.5367c0.77166-3.2939 0.82977-3.834 0.84633-7.8661 0.01-2.3811-0.0528-4.3293-0.13908-4.3294-0.3794-2e-4 -0.54673 1.0971-0.70659 4.6342-0.16357 3.6191-0.21932 3.9285-1.3046 7.2409-0.62354 1.9031-1.2511 3.9885-1.3945 4.6343s-0.34944 4.4668-0.45781 8.4914c-0.21375 7.9382-0.26366 8.2979-2.0816 15.001-0.85884 3.1665-3.5044 10.474-3.7956 10.483-0.0775 0-0.26625-0.5377-0.41929-1.2007s-0.82725-2.5195-1.4982-4.1255c-1.8501-4.4283-2.2991-6.397-2.2885-10.035 0.0142-4.8613 1.4829-10.258 4.5069-16.56 1.8633-3.8831 2.3928-5.4207 3.3671-9.7774 0.4314-1.929 1.3262-5.381 1.9884-7.6711 0.77848-2.6923 1.322-5.1653 1.538-6.9973 0.37306-3.1651 0.6099-3.7986 1.5041-4.0231 0.83745-0.21019 1.5794 0.52446 2.8986 2.8703 3.0386 5.4031 6.3117 13.592 6.9932 17.497 0.44389 2.5433 0.1285 7.1924-0.7464 11.002-0.4159 1.811-0.97646 5.2003-1.2457 7.5318-0.5748 4.9776-0.99729 7.0064-2.0118 9.6611-1.1126 2.9112-2.6684 5.6029-4.7948 8.2959-1.3155 1.6659-4.9539 5.2258-6.2615 6.1263l-1.2465 0.8585-0.28732 2.1175c-0.15802 1.1647-0.5161 3.0475-0.79573 4.1841-0.60037 2.4402-0.45915 3.434 0.88517 6.2289 0.7357 1.5297 1.0104 1.8443 2.3707 2.7161 3.6842 2.3609 9.5426 5.1148 14.466 6.7997 1.4756 0.5051 2.8202 0.9691 2.9879 1.0312 0.20585 0.077 0.30489-0.1536 0.30489-0.7075 0-0.4513 0.11595-1.2039 0.25768-1.6726 0.14172-0.4685 0.40829-2.3338 0.59237-4.1448 0.66923-6.5838 1.3376-13.562 1.4016-14.635 0.0545-0.9132 0.1475-1.0976 0.55334-1.0976 0.32522 0 0.65042 0.3252 0.97564 0.9757 0.46113 0.9222 0.48944 1.4962 0.51733 10.488 0.0389 12.54 0.12373 12.981 3.0442 15.854 3.3051 3.2513 6.7518 8.1927 11.545 16.552 2.7459 4.7888 3.9623 7.1736 6.1461 12.05 2.209 4.9326 3.393 7.2505 4.5459 8.8998 0.53923 0.7713 1 1.4024 1.024 1.4024s-0.21368-0.7671-0.52816-1.7048c-1.1114-3.3138-1.562-6.1701-2.155-13.662l-0.14482-1.8294-1.3872-0.6519c-2.6689-1.2544-5.2264-4.0608-6.3773-6.9981-0.28195-0.7196-0.82424-1.7623-1.2051-2.3172-0.38085-0.5548-1.2717-2.4727-1.9797-4.2618-0.9299-2.3499-1.828-4.0767-3.2348-6.2197-3.5097-5.3464-4.6824-8.5787-4.9703-13.699-0.1792-3.1875 0.19762-6.8361 1.0415-10.084 0.66249-2.5498 2.4296-7.0472 3.519-8.9559 0.8319-1.4575 4.2681-5.0919 5.0419-5.3326 1.3238-0.4117 2.013 1.0188 1.1105 2.305-0.35175 0.5012-0.43877 1.3128-0.51541 4.8066-0.18462 8.4172 1.1413 12.744 6.4724 21.121 4.5318 7.1212 5.4554 9.3346 5.6155 13.457 0.1086 2.7958 0.0894 2.907-1.3865 8.0491-0.30805 1.0732-0.60367 2.1066-0.65692 2.2966-0.13442 0.4794-2.4805-2.8013-3.8226-5.3455-0.60152-1.1403-1.5571-3.555-2.1235-5.366-0.56642-1.8111-1.8448-5.3137-2.8409-7.7837-0.99607-2.4698-2.1248-5.7078-2.5083-7.1953-1.244-4.8256-1.5392-10.044-0.85664-15.144 0.45136-3.3726 0.452-3.7806 6e-3 -3.7806-0.50181 0-0.75662 0.5756-1.2437 2.8097-0.32885 1.5085-0.42514 3.1267-0.42785 7.1906-6e-3 7.8844 0.65756 11.203 3.6519 18.282 0.87684 2.0731 2.0742 5.122 2.6607 6.7754 1.4527 4.095 2.8434 6.6894 5.8739 10.958 3.7022 5.2142 3.5044 4.6743 3.8931 10.622 0.46373 7.0948 1.225 9.9991 3.4988 13.347 0.55365 0.8153 1.2493 1.6396 1.546 1.8318 0.29662 0.1921 1.6918 0.6708 3.1004 1.0637 1.4086 0.393 2.9546 0.881 3.4356 1.0843l0.87452 0.3699-0.90347-2.105c-1.5427-3.5944-1.8168-5.0152-1.8414-9.5443-0.0185-3.41-0.14085-4.6763-0.80108-8.293-1.2379-6.7813-3.4248-17.176-3.9104-18.588-0.24461-0.7109-1.2872-2.9386-2.3168-4.9504-1.5213-2.9723-1.9612-4.0919-2.3475-5.9749-0.54468-2.6547-0.44113-3.7077 0.4322-4.3947 0.8229-0.6472 1.1912-0.6105 2.0016 0.1999 0.5083 0.5084 0.72744 1.024 0.85516 2.0123 0.38255 2.9603 0.95732 4.6597 3.048 9.012 2.6209 5.4561 4.6167 11.429 5.6445 16.894l0.31027 1.6496 0.94615-2.3814c3.702-9.3174 4.6036-14.081 4.1098-21.717-0.64339-9.9505 0.0389-15.541 2.909-23.837 2.9406-8.4992 4.3346-11.074 5.4805-10.123 1.2696 1.0537 1.1053 5.0489-0.43412 10.558-0.59163 2.1172-1.0102 3.8158-0.93017 3.7745 5.5245-2.8467 9.0967-4.3982 12.197-5.2976 3.5307-1.024 6.819-2.4865 8.7342-3.8846 0.5662-0.4133 2.1259-2.2211 3.4661-4.0173 2.7113-3.6337 3.5158-4.3803 7.606-7.0588 3.8908-2.548 5.9921-4.9714 7.5787-8.7404 0.78751-1.871 1.1748-3.5912 1.9148-8.5044 0.74776-4.9647 1.421-7.0541 3.8908-12.074 2.4995-5.08 2.7398-5.8079 3.5438-10.732 0.8112-4.9687 1.5514-7.4129 3.2848-10.847 0.75732-1.5002 0.91362-2.3076 0.4966-2.5654-0.46267-0.28594-1.1502 0.35086-1.8915 1.7518-1.9694 3.7222-2.8286 6.646-3.3635 11.446-0.41459 3.7202-0.93434 5.5613-2.3327 8.2631-4.383 8.468-5.0171 10.044-6.6751 16.586-2.1952 8.6622-3.9856 11.652-9.5236 15.904-1.9109 1.4672-4.2082 3.7495-7.499 7.4499-1.4637 1.6459-1.9259 1.9867-4.1902 3.0898-2.7719 1.3503-3.2217 1.4751-2.9341 0.8131 0.7451-1.715 1.1448-3.4437 1.4673-6.3463 0.59988-5.3983 1.7234-9.3257 3.557-12.433 0.4728-0.8014 2.5173-3.119 4.8428-5.4899 2.2135-2.2566 4.3139-4.6023 4.6677-5.2126 0.77312-1.3339 1.0712-2.8141 1.4418-7.1599 0.44321-5.1965 1.4453-8.3317 3.6449-11.403 0.54831-0.7657 2.4626-3.0421 4.2539-5.0587 7.8137-8.7961 9.4841-11.702 11.232-19.54 0.35663-1.5993 0.81227-3.1614 1.0126-3.4713 0.51968-0.80427 1.5115-0.63217 2.1915 0.38026 1.3274 1.9765 4.9787 12.209 6.0834 17.048 0.80161 3.5114 1.0626 9.0686 0.61197 13.032-0.77115 6.7821-2.3287 16.747-3.0718 19.653-2.712 10.606-8.074 19.196-14.743 23.617-2.4514 1.6252-10.064 5.9127-13.056 7.3536-2.9759 1.433-4.815 1.9962-7.2163 2.2097-1.3132 0.1167-2.0407 0.019-3.9861-0.5323-3.0269-0.8587-5.1329-0.7725-8.1479 0.3338-4.7125 1.7291-7.2221 3.8362-9.657 8.1077l-1.4454 2.5357-0.18027 8.5369c-0.21793 10.319-0.37267 11.326-3.238 21.059-1.8055 6.1332-2.6501 11.845-2.6567 17.967-5e-3 4.5436 0.27284 6.3704 1.5574 10.244 2.7195 8.2009 10.314 17.603 20.071 24.849 1.196 0.8882 2.2585 1.615 2.3611 1.615 0.10254 0 0.0904-0.3348-0.0268-0.7438-0.21005-0.7324-0.3381-1.9956-0.61702-6.0858-0.19413-2.8468-1.229-9.7017-1.8256-12.093-0.61817-2.4778-1.4987-4.7431-3.3911-8.724-2.528-5.3179-3.6669-9.2747-4.6618-16.196-0.15908-1.1067-0.38637-2.0123-0.50508-2.0123-0.33204 0-0.25675 2.7549 0.16361 5.986 0.82315 6.3272 1.5762 8.8392 4.4934 14.99 2.76 5.8195 3.2887 7.4758 4.01 12.561 0.52287 3.6869 0.70305 5.9758 0.47038 5.9758-0.28094 0-3.4287-2.3799-5.2441-3.9648-2.0462-1.7865-4.7057-4.88-5.8584-6.8143-1.1868-1.9916-2.0396-4.4226-2.6603-7.5839-0.67966-3.4611-0.60959-5.872 0.29416-10.123 0.90132-4.2396 1.1769-9.6741 0.71368-14.076-0.57683-5.4823-0.5938-6.0829-0.18159-6.425 0.57616-0.4781 1.1731-0.039 2.506 1.847 2.1419 3.0295 4.4996 5.7549 9.4555 10.93 3.0516 3.1865 5.501 5.9881 6.4605 7.3895 1.7679 2.5819 3.2462 5.5961 3.7874 7.7226 0.54563 2.144 1.4017 8.6962 1.4017 10.728 0 2.8347-1.1063 5.0661-4.032 8.1324-1.7826 1.8684-1.9656 2.295-1.9685 4.5893-3e-3 1.8927 0.0526 2.0944 1.1801 4.3209 1.1763 2.3229 1.19 2.3382 2.5611 2.8578 1.5047 0.5701 5.2394 1.5547 9.6507 2.544 1.5515 0.3481 3.4505 0.8404 4.22 1.0943 0.76952 0.2539 1.4222 0.4384 1.4504 0.4102 0.0282-0.028-0.37945-0.7288-0.90593-1.5568-2.2097-3.4756-2.9186-7.4742-2.4093-13.591 0.17948-2.1555 0.34742-5.5656 0.37318-7.5779 0.0695-5.4237 0.0738-5.4879 0.3753-5.4879 1.0607 0 2.6282 4.2352 3.2497 8.7808 1.99 14.554 3.0874 16.842 12.574 26.22l4.1945 4.1465-0.116-2.237c-0.12835-2.4752-0.44131-3.2078-2.014-4.7144-0.8843-0.8472-1.8212-2.3743-1.8271-2.9782-3e-3 -0.1731-0.58939-0.8288-1.306-1.4571-3.3513-2.9388-5.1278-9.4823-4.2083-15.501 0.69929-4.5778 2.3361-8.484 7.9479-18.968 1.0772-2.0122 2.6275-5.3599 3.4451-7.4392s1.663-3.978 1.8785-4.2193c0.25294-0.2831 0.65588-0.4129 1.1361-0.3659 1.0334 0.1012 1.4384 1.0386 2.3119 5.3513 2.0014 9.8814 2.0985 13.429 0.72683 26.552-0.73388 7.0215-1.3202 9.5243-2.7092 11.566-0.61241 0.9-4.6189 5.0201-4.8818 5.0201-0.28555 0-1.5633-2.6654-2.0524-4.2813-0.56385-1.8626-0.55468-5.9721 0.02-9.0119 0.2283-1.2074 1.1157-4.6279 1.972-7.601 2.5405-8.821 2.8407-10.16 2.979-13.29 0.13706-3.1007 0-4.1096-0.5538-4.1096-0.28708 0-0.36121 0.3775-0.36121 1.8396 0 2.7647-0.56878 5.0322-2.8296 11.281-2.2145 6.1207-3.077 9.107-3.4921 12.092-0.32904 2.3655-0.33929 5.5439-0.0231 7.2103 0.49284 2.5987 2.0993 5.7719 4.1256 8.1489 1.3479 1.5812 1.6542 2.3174 2.2372 5.377 0.25779 1.353 0.64251 2.983 0.85491 3.6225 0.40004 1.2045 0.63058 1.3984 6.7495 5.6766l0.91467 0.6396v4.0087c0 2.2048-0.0823 3.9961-0.18294 3.9806-0.10061-0.016-2.9844-1.9087-6.4084-4.2074z" fill="#705d4f" stroke-width=".24944"/> <path d="m742.9 1197.9c0-4.6239-0.39538-6.7859-1.7251-9.4327-0.49702-0.9894-0.80864-1.8576-0.69249-1.9293 0.46148-0.2853 2.1651 0.4321 3.2093 1.3512 0.6071 0.5344 1.4607 1.5277 1.8969 2.2075 0.73159 1.14 0.78157 1.3453 0.6452 2.6502-0.0813 0.778-0.43495 2.3233-0.78586 3.4342-0.6611 2.0927-2.1741 5.6146-2.4121 5.6146-0.0747 0-0.13583-1.7531-0.13583-3.8957z" fill="#e5b4c0" stroke-width=".24944"/> <path d="m582.56 1211.2c-0.31988-0.5031-1.1818-1.8516-1.9153-2.9969-0.73356-1.1451-2.4216-3.2126-3.7513-4.5944-2.6603-2.7645-3.1369-3.4638-2.928-4.296 0.18064-0.7197 4.4625-4.9203 6.6155-6.4899 0.91438-0.6666 2.3649-1.5472 3.2233-1.9569l1.5608-0.7449 0.94985 0.6286c1.5719 1.0402 3.6646 3.2654 6.1002 6.4864 1.268 1.6769 3.1824 3.9661 4.2542 5.087 1.9546 2.0443 5.2756 4.7349 6.2106 5.0316 0.76849 0.244 0.59235 0.6134-0.29313 0.6149-2.9412 0-12.292 1.9164-16.632 3.4-1.199 0.4098-2.3225 0.7451-2.4966 0.7451s-0.57837-0.4116-0.89826-0.9146z" fill="#e6cecd" stroke-width=".24944"/> <path d="m646.24 1218.5c-0.0755-0.076-2.2738-0.229-4.8852-0.3413-5.6874-0.2446-7.0229-0.6125-10.264-2.828-1.1556-0.79-3.116-2.1288-4.3566-2.975-5.1461-3.5104-9.9929-4.925-16.874-4.925-5.0913 0-8.9665-2.7136-14.615-10.234-1.361-1.8119-3.2428-4.1098-4.1819-5.1064-1.5731-1.6695-4.6034-3.9361-5.7479-4.2993-0.90929-0.2886-1.4942-1.9484-1.6262-4.6147-0.11174-2.2571-0.0787-2.5074 0.41221-3.1244 0.66592-0.8369 1.4563-0.8593 2.3969-0.068 1.3395 1.1271 3.2898 1.5498 10.175 2.2051 7.3194 0.6967 11.437 1.8652 18.049 5.1228 4.4895 2.2116 7.2309 3.9317 10.178 6.3861 2.6836 2.2354 4.1392 3.9301 7.7949 9.0756 1.7722 2.4944 3.8444 5.3036 4.6049 6.2427 2.16 2.6671 5.8131 6.3076 8.6041 8.5744 0.51504 0.4182 0.83219 0.8249 0.70477 0.9037-0.12741 0.078-0.29343 0.081-0.36892 0.01z" fill="#ac727e" stroke-width=".24944"/> <path d="m761.97 1233.5c-0.90174-6.6865-0.73649-7.8918 2.0433-14.904 1.0059-2.5374 2.6397-7.1926 3.6306-10.345 2.0276-6.4495 1.7748-6.0383 6.0442-9.8332 2.2861-2.0319 2.9667-2.2749 3.7669-1.3446 0.54543 0.6342 0.56255 0.7752 0.42591 3.5127-0.28488 5.7084-0.84988 7.1482-4.2773 10.9-1.225 1.3409-2.7109 3.1157-3.3021 3.9442-2.2026 3.0866-3.9972 7.7612-5.9304 15.448-1.0664 4.24-1.7104 6.5855-1.8081 6.5855-0.0323 0-0.29916-1.7835-0.59315-3.9635z" fill="#e6cecd" stroke-width=".24944"/> <path d="m539.24 1241.9c-7.4881-1.3594-15.578-8.7237-18.165-16.536-0.7932-2.3953-1.1367-4.728-1.3665-9.2812-0.42426-8.4031-0.73008-9.5608-4.3843-16.598-2.7568-5.3087-3.0877-6.136-3.306-8.2668-0.14066-1.3731-0.10045-1.5961 0.3732-2.0697 0.37225-0.3723 0.6911-0.4829 1.0672-0.3705 1.362 0.4072 10.047 4.858 12.1 6.2012 6.1708 4.0362 8.8046 7.0133 13.491 15.25 5.3008 9.315 5.7895 11.366 5.3528 22.46-0.19643 4.9904-0.25687 5.4831-0.82292 6.7076-0.89437 1.9347-1.3562 2.3738-2.6333 2.5031-0.60369 0.061-1.372 0.062-1.7074 0z" fill="#ab787d" stroke-width=".24944"/> <path d="m613.78 1242.6c-3.045-0.3455-5.6805-1.1293-8.57-2.5484-3.2234-1.583-5.4323-3.2186-9.9842-7.3927-6.4345-5.9005-8.421-7.4262-11.677-8.9689-1.7578-0.8327-5.1069-1.8143-6.1905-1.8143-0.73479 0-4.8813-1.3597-5.6173-1.8419-0.30599-0.2006-0.55633-0.4568-0.55633-0.5696 0-0.2068 2.6679-1.4911 3.0976-1.4911 0.12739 0 2.254-0.6625 4.7258-1.4723 8.8129-2.8871 15.402-4.6014 22.666-5.8971 3.7918-0.6764 4.7996-0.7625 9.0247-0.7713 4.182-0.01 4.9919 0.055 6.7076 0.5312 2.8968 0.8031 5.4451 2.1369 9.3906 4.9152 3.817 2.6879 5.7689 3.7888 7.6832 4.3337 0.77722 0.2211 3.2986 0.4179 6.9515 0.5427 7.0746 0.2414 8.4231 0.5764 11.019 2.7375 1.4153 1.1782 2.3964 3.0541 2.3954 4.5798-9.2e-4 1.5198-0.68594 5.3163-1.1054 6.1274-0.53226 1.0293-2.9024 3.0095-4.5827 3.8288-2.6315 1.2831-3.2723 1.3811-8.5905 1.3137-5.6438-0.072-6.6203 0.077-12.624 1.9294-2.1253 0.6556-4.6522 1.3536-5.6153 1.5512-2.3226 0.4764-6.1744 0.6463-8.5476 0.377z" fill="#7e3145" stroke-width=".24944"/> <path d="m748.6 1242.7c-0.28535-0.4025-1.1256-1.9392-1.8673-3.4148-1.5455-3.0751-2.198-3.8208-4.5823-5.2372-3.7379-2.2207-9.3587-7.3144-11.332-10.27-2.636-3.947-3.5541-7.3226-4.1504-15.259-0.4226-5.6247-0.95538-9.1204-2.0522-13.465-1.3877-5.4966-2.4978-8.1445-4.8101-11.473l-1.0805-1.5554 0.53631-0.5709c1.3869-1.4763 5.2776-1.7271 8.2174-0.5298 2.7086 1.1031 4.2647 2.2024 7.0054 4.9486 4.3719 4.3807 5.3303 6.4106 6.6034 13.986l0.83641 4.9768-0.59151 1.8724c-0.83618 2.6471-1.1653 5.9751-0.85843 8.6798 0.44928 3.9598 1.0134 5.8226 3.9498 13.043 2.0675 5.0837 4.8893 13.632 4.7721 14.456-0.0738 0.5191-0.10001 0.5108-0.596-0.1887z" fill="#ab546d" stroke-width=".24944"/> <path d="m709.85 1244.8c-1.0676-0.663-1.7378-1.47-2.3269-2.8017-0.72859-1.6471-0.98511-3.7368-1.0822-8.8156-0.0543-2.8404-0.22388-5.0363-0.4804-6.2198-0.72932-3.3648-2.5039-8.1303-4.7231-12.683-1.2096-2.4818-2.3734-5.1086-2.5863-5.8372-0.47942-1.6414-0.49417-4.0034-0.0407-6.5144 0.80457-4.4551 0.71757-5.6763-0.70793-9.937-1.1694-3.4954-1.3704-4.5578-1.3644-7.2126 0.0114-4.9955 1.7841-9.1554 7.7885-18.277 3.5539-5.3991 4.1636-6.8546 4.1758-9.9675 5e-3 -1.1865-0.0741-1.5244-0.35526-1.5244-0.39987 0-0.51491 0.4044-0.72855 2.561-0.201 2.029-1.1416 3.9016-4.2047 8.3713-4.8227 7.0371-5.7051 8.4424-7.1494 11.386-1.9339 3.9407-2.2998 5.3875-2.2828 9.0247 0.0127 2.7055 0.0907 3.1854 1.0313 6.3417 1.2936 4.3409 1.3841 5.2125 0.91153 8.7707-0.88352 6.652-0.2286 9.2244 3.8802 15.241 2.0747 3.0382 3.5176 5.8938 4.1352 8.1845 0.52379 1.9425 0.82909 8.9027 0.3905 8.9027-0.89023 0-7.7232-4.5384-11.232-7.4605-5.0843-4.2336-8.6304-9.3562-10.809-15.614-0.99874-2.8694-1.4578-5.0281-2.1212-9.9753-0.26985-2.0123-0.64775-4.2624-0.83977-5.0002-0.19203-0.7378-0.69003-2.6038-1.1067-4.1464-2.0907-7.7414-0.8116-13.736 4.121-19.312 2.2276-2.5185 8.9358-6.8476 13.712-8.8493 3.863-1.6188 4.5101-1.976 5.8483-3.2277 2.6525-2.4812 3.2928-4.3416 2.8523-8.2868-0.24726-2.2142-0.23269-2.547 0.13612-3.1098 0.49935-0.7622 1.4366-0.8294 2.4302-0.1743 1.3059 0.861 4.4752 3.8176 5.6127 5.2361 2.1837 2.7229 3.7754 6.826 3.9893 10.284 0.239 3.8634-0.97599 8.5227-3.4029 13.049-5.6165 10.476-6.7369 13.802-6.7555 20.053-0.01 3.3654 0.55209 6.6092 1.8295 10.558 0.83056 2.5673 1.5242 4.0771 4.5711 9.9505 1.5509 2.9895 2.0059 4.7419 1.801 6.9362-0.29074 3.1135-2.4966 7.7282-4.8698 10.188l-1.1769 1.2195 0.1653 1.4635c0.23135 2.0482 0.7499 3.4453 1.848 4.9789 1.1079 1.5474 1.2777 2.7049 0.39653 2.7034-0.30184 0-0.87808-0.2054-1.2805-0.4554z" fill="#8d804c" stroke-width=".24944"/> <path d="m580.36 1244.9c-2.8532-1.2266-4.8502-2.7518-6.8594-5.2385-0.77358-0.9575-1.781-1.9006-2.3282-2.1798-1.568-0.7999-1.3692-1.3248 1.4136-3.733 2.7713-2.3981 3.1743-2.8252 5.0312-5.3298 1.4335-1.9335 3.3778-3.4927 4.045-3.2436 0.85837 0.3205 3.0997 1.799 4.8687 3.2115 2.1655 1.7294 8.3568 7.5006 8.3457 7.7796-4e-3 0.1023-0.58952 0.3686-1.301 0.5916-1.5407 0.4831-4.3702 1.9017-5.5621 2.7885-1.4455 1.0757-3.8697 3.5788-4.6628 4.8148-0.41475 0.6463-0.93474 1.1707-1.1555 1.1651-0.22078-0.01-1.0466-0.2874-1.835-0.6264z" fill="#e6cecd" stroke-width=".24944"/> <path d="m532.77 1245.3c-5.621-1.3587-11.12-6.1193-19.266-16.68-1.19-1.5427-2.9164-3.6252-3.8364-4.6277-3.1532-3.4361-3.5647-5.1451-3.8482-15.982-0.16205-6.1938-0.1378-7.6765 0.13417-8.2025 0.72045-1.3932 1.6429-1.2725 4.7404 0.6199 5.6885 3.4755 5.267 3.1424 5.8092 4.5915 0.83303 2.2264 1.2236 4.7289 1.4946 9.576 0.54209 9.6968 1.7217 13.593 5.7304 18.926 4.1834 5.5652 9.5948 9.2604 14.772 10.087l1.8293 0.292-0.85369 0.5351c-1.9526 1.2236-4.0845 1.4986-6.7059 0.8649z" fill="#92535b" stroke-width=".24944"/> <path d="m755.67 1246.7c-2.5275-1.1476-3.9528-3.5817-5.9366-10.138-1.115-3.6852-1.9481-5.8624-5.0403-13.171-1.4254-3.3694-2.2581-6.3177-2.4868-8.8052-0.24342-2.648 0.0267-5.9 0.58278-7.0146 0.19733-0.3955 0.35879-0.9117 0.35879-1.1469 0-0.2351 0.71664-2.0935 1.5925-4.1298 0.87587-2.0361 1.8624-4.6335 2.1923-5.7719 0.74581-2.5737 1.1902-6.1006 0.98034-7.7805-0.10847-0.8682 0-2.1003 0.34286-3.874 0.27608-1.4306 0.50195-3.0966 0.50195-3.7023 0-1.3202 0.34093-2.0448 0.96211-2.0448 0.25142 0 1.2624 0.6728 2.2466 1.4951 2.1583 1.8034 3.625 2.8104 7.1575 4.9145 2.9781 1.7739 4.8838 3.5142 6.0844 5.5565 1.7091 2.9071 2.73 6.9036 2.3183 9.0749-0.70674 3.7266-3.5286 12.733-5.5201 17.619-0.87494 2.1465-1.7991 4.716-2.0538 5.71-0.65884 2.572-0.61571 6.208 0.12071 10.173 0.79271 4.268 0.95976 6.4771 0.64336 8.5084-0.32952 2.1157-1.1259 3.7328-2.1922 4.4514-0.98626 0.6647-1.5287 0.6793-2.8548 0.077z" fill="#8a3e52" stroke-width=".24944"/> <path d="m615.34 1257.4c-2.4823-0.3168-6.587-1.728-11.708-4.0251l-4.2684-1.9148-2.5611 0.026c-4.0889 0.041-6.1371 0.6593-9.6874 2.9263-2.5156 1.6063-3.6483 2.0742-4.3009 1.7769-1.8385-0.8377-1.3761-4.2255 1.228-8.9971 2.4035-4.4039 6.699-7.9869 10.998-9.1733 1.4941-0.4124 1.5459-0.4108 2.1952 0.067 3.1886 2.3504 4.4054 3.1301 6.5578 4.2021 4.4064 2.1946 8.3364 3.0635 13.864 3.0653 4.2357 0 5.7434-0.2659 11.511-2.0401 4.6276-1.4237 6.0546-1.7346 8.2699-1.8023 3.139-0.096 6.9583 0.067 6.8198 0.2916-0.0751 0.1216-1.4262 0.9561-3.0023 1.8543-3.6584 2.0852-5.6797 3.5502-9.0837 6.5836-1.5054 1.3415-3.4881 3.0057-4.4061 3.6983-3.859 2.9116-7.9032 4.0381-12.426 3.461z" fill="#985463" stroke-width=".24944"/> <g transform="matrix(.92187 0 0 .92187 22.531 458.11)" fill="#824247" stroke-width=".27058"> <path d="m587.84 621.54c-1.8338-0.90771-9.4134-8.8699-11.57-12.154-3.775-5.7488-4.317-6.4725-6.9545-9.2863-3.3355-3.5585-4.4005-5.5281-4.4306-8.1945-0.0169-1.4898 0.0937-1.9211 0.77407-3.0188 1.1093-1.7898 2.346-2.39 4.8948-2.3758 2.3888 0.0133 4.445 0.80438 8.7328 3.3596 4.2607 2.539 6.6854 4.4588 10.584 8.3802 5.0266 5.0556 7.3044 8.685 7.9664 12.693 0.6101 3.6943-0.76114 7.367-3.4259 9.1756-0.53411 0.36252-1.3757 0.95334-1.8701 1.3129-1.16 0.84359-3.1237 0.88858-4.7013 0.10771z"/> <path d="m697.8 649.09c-0.54335-0.57118-1.2026-1.6006-1.465-2.2876-0.44144-1.1559-0.45315-1.5966-0.15685-5.9068 0.1761-2.5617 0.61372-6.3246 0.97249-8.3619 1.0614-6.0273 1.2232-7.6203 1.4506-14.288 0.13184-3.8642 0.34855-6.741 0.55359-7.3488 0.49644-1.4716 1.8765-2.945 3.1529-3.3663 0.96471-0.31838 1.1875-0.31115 1.8077 0.0587 0.92217 0.5499 2.0855 2.8856 2.5655 5.1509 0.21406 1.0102 0.38359 3.2539 0.38601 5.1087 4e-3 3.4048-0.5834 12.262-1.0624 16.007-0.14889 1.1642-0.3858 3.6857-0.52646 5.6033-0.14067 1.9177-0.38905 4.1203-0.55196 4.8948-0.75804 3.6038-2.6171 5.7738-4.9464 5.7738-1.0426 0-1.3157-0.13011-2.1798-1.0385z"/> <path d="m726.12 670.05c-1.4387-0.739-1.9186-1.9281-1.7364-4.3018 0.0834-1.0858-0.0356-4.6518-0.26428-7.9246-0.33107-4.7372-0.35577-6.5087-0.12112-8.6881 0.6965-6.4691 2.8861-10.121 6.0688-10.121 2.3838 0 4.0579 1.893 5.0883 5.7537 0.75734 2.8375 1.0106 12.575 0.41455 15.942-0.81662 4.6133-2.0407 6.6934-4.9655 8.438-2.2679 1.3527-3.2292 1.5459-4.4844 0.90121z"/> <path d="m661.7 692.75c-5.5417-2.0466-6.5519-2.5775-8.796-4.6226-0.81704-0.7446-2.541-2.7826-3.831-4.5288-3.9618-5.3629-4.6782-6.1851-9.6757-11.105-5.1186-5.0389-6.1802-6.4977-6.2344-8.5669-0.0584-2.2272 1.5436-3.3537 4.7248-3.3222 2.6297 0.026 4.2858 0.62986 7.4745 2.7252 2.8582 1.8783 12.168 9.4486 14.968 12.171 3.2604 3.1706 6.5472 8.4422 7.1713 11.502 0.58791 2.8822-0.23926 4.9814-2.3005 5.8382-1.2701 0.52792-1.866 0.51239-3.5004-0.0912z"/> <path d="m689.73 809.41c-0.59028-0.0837-1.6221-0.4738-2.293-0.86696-2.8234-1.6546-4.9024-5.0891-8.3103-13.729-3.7602-9.5327-4.6644-12.606-5.3843-18.3-0.14417-1.1403-0.50188-2.8495-0.79491-3.7982-1.2855-4.162-0.18374-7.5856 2.5501-7.9241 2.4843-0.30762 3.9574 1.6039 6.8123 8.8398 2.1195 5.372 3.2272 7.6757 6.899 14.348 3.9375 7.1556 6.4827 13.507 6.4869 16.189 3e-3 1.7962-0.31628 2.736-1.2712 3.7442-1.2519 1.3216-2.6911 1.7804-4.6944 1.4964z"/> <path d="m541.49 870.94c-0.62817-0.20476-2.176-0.95945-3.4396-1.6771-2.7828-1.5804-3.2354-1.7575-6.2662-2.4522-3.9479-0.90493-5.5497-1.7845-9.0718-4.9812-1.1792-1.0702-2.6565-2.311-3.283-2.7572-2.2426-1.5975-2.8588-2.3295-2.8588-3.3961 0-0.82997 0.18053-1.1427 1.1538-1.9986 1.5691-1.3799 4.9482-3.004 6.971-3.3505 4.3874-0.75155 12.605 2.1309 17.407 6.1056 3.5995 2.9794 7.573 6.8456 8.0516 7.8343 1.211 2.5017 0.21116 4.7924-2.7599 6.3229-1.3465 0.69363-4.3115 0.86942-5.9046 0.35009z"/> </g> <path d="m741.68 1272c-3.1999-2.55-4.9833-4.9048-5.9486-7.855-0.45353-1.3861-0.83657-1.7907-3.8078-4.0219-3.6209-2.7192-6.5979-6.1332-7.4474-8.541-0.44079-1.2493-0.49792-2.2845-0.2615-4.7381l0.18848-1.9561-1.4964-2.2561c-0.82298-1.2408-1.6554-2.7067-1.8498-3.2576-0.44684-1.2666-0.45118-3.1399-0.0113-4.8362 0.2345-0.9039 0.2697-1.5097 0.11189-1.9248-0.33328-0.8766-0.0672-1.8077 1.2803-4.4812 1.2935-2.5661 1.9243-4.587 1.9243-6.1646 0-1.113 0.32906-1.5829 1.1086-1.5829 0.84533 0 1.3213 0.7779 2.0822 3.4029 0.94264 3.2523 1.6829 5.0363 3.1889 7.6857 1.6607 2.9214 2.7269 4.3269 5.3235 7.0176 1.1998 1.2432 2.465 2.7784 2.8116 3.4115 0.79361 1.4497 1.3298 3.9441 1.3353 6.2118 3e-3 0.964 0.22298 2.6653 0.49036 3.7805 0.55175 2.3015 0.61319 3.985 0.21384 5.8573-0.27691 1.2984-1.2935 3.8536-1.5331 3.8536-0.0705 0-0.52287-1.2896-1.0052-2.8659-2.1061-6.8833-2.6161-7.9954-5.9569-12.988-1.3016-1.9451-2.7584-4.2501-3.2375-5.1221-1.6115-2.9335-2.5769-6.396-3.0091-10.793-0.089-0.9055-0.23686-1.6464-0.32855-1.6464-0.84635 0-0.9904 2.6009-0.37401 6.7521 0.75722 5.0997 1.9373 8.1665 5.2928 13.756 2.2649 3.7724 3.21 5.6386 4.684 9.2496 1.7351 4.2508 3.1827 6.8123 5.1015 9.0271 3.5557 4.1045 4.402 5.5732 3.4268 5.9474-0.68717 0.2636-0.93482 0.1644-2.2972-0.9213z" fill="#8d804c" stroke-width=".24944"/> <path d="m756.6 1279.6c-0.98825-0.9882 0.49636-3.5185 3.5715-6.087 2.4238-2.0245 3.2469-2.987 4.8597-5.6825 1.3981-2.3368 1.8745-3.4831 2.6868-6.4646 0.61817-2.2691 0.90723-2.8673 2.5428-5.2628 2.4143-3.5357 2.7631-4.5667 2.7584-8.1513-3e-3 -1.5428-0.0959-4.0124-0.20857-5.488-0.1791-2.3458-0.14174-2.9284 0.29723-4.6344 0.27614-1.0732 0.66854-2.7556 0.87202-3.7387 0.20343-0.9831 0.64843-2.3958 0.98883-3.1393 0.7079-1.5464 0.77126-1.83 0.25816-1.1567-0.62976 0.8265-1.7639 4.0207-2.6635 7.5012-0.6719 2.5996-0.92684 4.2041-1.1163 7.0261-0.33074 4.9259-0.694 6.3238-2.6933 10.364-0.9367 1.893-1.7031 3.5687-1.7031 3.7238 0 0.8049-2.1357 6.5065-3.0718 8.2008-1.857 3.3608-1.9213 3.3873-2.6772 1.0975-1.0464-3.1699-0.25277-7.3724 2.9443-15.59 1.3216-3.3968 1.4468-4.5744 0.96188-9.0448-0.60139-5.5447-0.27908-8.9681 1.1023-11.708 1.0491-2.0805 2.1266-2.7793 4.8903-3.1713 2.9402-0.4169 3.1454-0.6022 6.2414-5.635 1.7486-2.8426 4.322-5.8283 5.0234-5.8283 0.61681 0 1.1714 0.6874 1.1714 1.452 0 0.377-0.75647 2.2163-1.681 4.0875-2.8604 5.7889-3.0459 6.429-3.0607 10.559-0.0149 4.1797 0.17874 4.9788 2.816 11.616 2.1748 5.4732 2.5069 6.7374 2.5228 9.6046 0.0178 3.231-0.55061 5.1898-2.8571 9.845-1.7157 3.4627-2.1442 4.1268-3.5646 5.5236-1.8179 1.7878-4.4626 3.2925-7.2869 4.1458-1.4172 0.4281-2.1948 0.5141-3.9026 0.4314-1.173-0.057-2.2986-0.1791-2.5013-0.2719-0.60869-0.2784-6.339 4.6565-6.339 5.459 0 0.4077-0.88089 0.7189-1.1822 0.4175z" fill="#8d804c" stroke-width=".24944"/> <path d="m746.62 1284.6c-1.2559-1.6005-4.4404-4.9793-6.6732-7.0804-0.93999-0.8846-1.5018-1.1652-3.5091-1.7527-4.3781-1.2816-6.6703-1.466-19.51-1.57-8.7178-0.07-9.0053-0.1301-16.566-3.4304-3.7209-1.6242-5.3989-1.7161-10.773-0.5901-3.2115 0.673-4.4085 0.8131-6.9308 0.8116-3.2651 0-4.2462-0.1902-10.122-1.9402-4.9986-1.4887-7.1049-1.5184-12.801-0.1806-2.0575 0.4832-3.5607 0.6733-5.6147 0.7098-2.612 0.046-2.8102 0.084-2.8811 0.5451-0.14241 0.927 1.1982 1.3772 4.1006 1.3772 2.3668 0 2.82-0.083 5.9758-1.0977 3.267-1.0501 3.5361-1.0966 6.2197-1.0765 2.7871 0.021 2.8353 0.031 7.5612 1.6239 2.616 0.8817 5.6344 1.7911 6.7076 2.021 2.5339 0.5427 6.3583 0.5421 9.7451 0 3.4379-0.5517 5.7604-0.4151 8.1824 0.4811 8.0907 2.9937 9.0867 3.1684 16.83 2.9509l5.7319-0.1609-2.683 1.506c-4.0591 2.2785-8.3122 4.262-10.488 4.8913-1.7102 0.4946-2.4787 0.564-6.2198 0.562-4.6262 0-5.3037-0.1-12.927-1.8507-7.6928-1.7671-9.1629-1.7553-15.66 0.1264-2.0529 0.5946-4.5006 1.1546-5.4393 1.2445-3.2758 0.3138-6.4599-0.7676-11.41-3.8751-1.4298-0.8975-2.979-1.7904-3.4426-1.984-1.5331-0.6406-3.2697-0.6774-6.5551-0.1392-1.7133 0.2806-3.9944 0.5102-5.069 0.5102-3.8374 0-5.2688-1.4336-3.2208-3.2259 3.4878-3.0525 5.2192-5.4424 7.9027-10.909 2.6574-5.4134 3.5369-6.7511 5.8415-8.8847 4.0144-3.7168 10.337-5.5577 19.247-5.6045 4.4029-0.023 6.8445 0.2828 9.8784 1.2378 2.2298 0.7019 5.716 2.3926 7.6832 3.7261 4.5775 3.103 6.1199 3.7135 10.732 4.2482 4.0974 0.475 5.1597 0.7407 7.182 1.7966 2.9586 1.5447 7.3169 6.4167 9.377 10.482l0.52581 1.0376 2.1287-0.1839c3.6703-0.3171 9.0069-0.1891 11.364 0.2724 1.189 0.2329 2.2063 0.379 2.2606 0.3247 0.20347-0.2034-5.9121-4.8916-9.2496-7.0907-5.5653-3.667-13.849-8.1498-20.052-10.852-9.5511-4.1601-12.001-5.5255-18.999-10.591-1.9982-1.4464-4.3033-3.0035-5.1223-3.4603-3.3724-1.8806-7.2372-2.6227-15.88-3.0492-5.1841-0.2558-6.6681-0.5095-7.3431-1.2554-0.36829-0.4069-0.37875-0.5412-0.0848-1.0904 0.18436-0.3445 0.53553-0.7335 0.78037-0.8645 0.86843-0.4648 5.7285-0.9342 9.7218-0.9389l4.0499-0.01-0.59846-1.2804c-2.624-5.6134-4.8127-8.7406-8.1112-11.588-1.1403-0.9842-3.7196-2.8961-5.7319-4.2486-2.0123-1.3524-4.3961-3.05-5.2973-3.7724-2.6538-2.1275-5.6655-5.8808-6.8744-8.5673-0.46676-1.0373-1.0211-1.3326-1.2723-0.6779-0.19158 0.4993 1.1134 2.8418 2.9325 5.2641 2.1703 2.8898 5.1758 5.6837 10.146 9.4312 5.3954 4.0685 6.2699 4.8986 8.9235 8.4706l0.71104 0.9572-0.85369-0.1683c-1.6618-0.3277-3.5252-1.4826-6.0765-3.7664-1.4203-1.2714-4.1213-3.3265-6.0023-4.5669-8.3889-5.5322-12.162-11.352-13.89-21.422-0.41025-2.3912-0.25437-3.0899 0.68937-3.0899 0.41956 0 0.85651 0.4385 1.7598 1.7661 3.6624 5.3826 7.823 9.1886 17.666 16.16 3.9522 2.7992 5.9529 4.547 6.9856 6.1023 0.92149 1.3879 2.3066 5.0445 2.7706 7.3142 0.18444 0.9022 0.60227 1.8845 1.0894 2.561 0.4346 0.6038 1.2372 1.866 1.7836 2.805 1.4843 2.5511 1.4392 2.5144 3.5908 2.9226 1.0732 0.2036 2.0276 0.3701 2.1208 0.3702 0.0932 0-0.0875-0.581-0.40157-1.2912-0.83205-1.8815-1.4565-4.1519-2.4424-8.8801-1.0087-4.8375-1.7525-7.2753-2.9846-9.7817-0.73855-1.5024-1.3196-2.2001-3.7062-4.4498-1.5567-1.4674-2.6552-2.6688-2.4411-2.6697 0.67423 0 5.4024 3.2971 6.8846 4.805 2.8293 2.8784 4.7192 6.0878 7.7262 13.121 3.1687 7.4114 4.6718 9.9702 7.909 13.464 1.4364 1.5504 1.9996 1.9456 4.8035 3.3714 1.747 0.8883 5.0344 2.3157 7.3053 3.1718 16.648 6.2763 22.32 10.194 39.075 26.994 4.7985 4.8113 8.7685 8.6072 8.8221 8.4354 0.0537-0.1718 0.16592-0.9162 0.24954-1.6539 0.28208-2.4889 1.391-6.588 3.2207-11.906 1.0011-2.9094 2.2555-7.0871 2.7877-9.2837 1.0329-4.2637 1.3084-5.0192 1.734-4.7562 0.19235 0.1188 0.22169 1.9862 0.10264 6.5315-0.20037 7.6507-0.41477 10.387-1.5092 19.263-0.46119 3.7403-0.83852 7.1703-0.83852 7.6223v0.8216l-5.9758-0.02-1.2844-1.6368z" fill="#8d804c" stroke-width=".24944"/> <path d="m595.56 1285c-2.6819-3.2158-3.7263-4.1416-5.7183-5.069-3.8913-1.8117-6.7168-2.4726-12.437-2.9097-1.744-0.1333-4.8172-0.526-6.8295-0.8728-4.9559-0.8541-9.7204-1.0096-15.488-0.5053-10.001 0.8743-13.469 0.7829-19.335-0.5092-1.5791-0.3478-2.9511-0.552-3.0489-0.4538-0.86062 0.8638 7.3478 3.1896 13.481 3.8198 3.2803 0.3369 6.106 0.1735 11.625-0.6724 4.2422-0.6503 10.674-0.9137 11.397-0.4669 0.20234 0.1251-0.39855 0.5069-1.7211 1.0935-1.1176 0.4957-2.663 1.3055-3.4342 1.7995-5.8136 3.724-9.9669 4.3336-16.905 2.4808-1.2148-0.3244-4.1234-1.0777-6.4637-1.6738-6.4062-1.6318-10.319-3.3109-13.287-5.702-2.1291-1.7152-2.4177-3.2413-0.78195-4.1352 1.0261-0.5608 5.4699-0.5508 9.3954 0.021 3.3982 0.4951 6.8326 0.5143 8.6226 0.048 0.74531-0.1941 2.7671-0.9688 4.4929-1.7215s4.1849-1.6441 5.4647-1.981c6.1697-1.6238 13.012-0.153 16.928 3.6388 1.353 1.3101 1.6139 1.459 2.7163 1.5504 4.5617 0.3785 6.8171 0.6467 7.9481 0.945 0.71384 0.1884 1.3368 0.3034 1.3844 0.2558 0.0476-0.048-1.5908-1.2056-3.6409-2.5735-2.3626-1.5764-5.4267-3.321-8.3682-4.7645-5.011-2.4592-13.362-6.0131-14.153-6.0234-0.83732-0.011-6.4214 2.1809-10.222 4.0123-4.3374 2.0898-5.5852 2.301-8.357 1.414-3.1651-1.0129-7.6157-3.904-8.1424-5.2893-0.30368-0.7987 0.11081-1.7475 0.84383-1.9314 0.44552-0.1118 1.3082 0.206 3.2942 1.2134 3.4214 1.7357 5.2558 2.4202 6.4868 2.4204 0.58126 1e-4 1.8157-0.3592 3.0489-0.8873 1.1397-0.4881 3.4799-1.4236 5.2004-2.079l3.1282-1.1916-2.0306-1.0364c-6.1265-3.1272-11.421-7.6016-11.421-9.6517 0-0.8424 0.67892-1.5773 1.4571-1.5773 0.20508 0 1.6899 0.613 3.2995 1.3624 4.084 1.9013 7.0212 3.1431 12.805 5.414 2.7501 1.0799 6.3656 2.5737 8.0345 3.3196 1.6689 0.746 3.0609 1.3297 3.0933 1.2973 0.0325-0.032-0.0397-0.8257-0.16039-1.7627-0.12065-0.9369-0.22379-2.4719-0.2292-3.411-0.0128-2.2224-0.36709-4.4377-1.0728-6.7075-0.31283-1.0061-0.70365-2.5428-0.86849-3.4148-0.18002-0.9523-0.96257-2.9977-1.9596-5.1221-0.91297-1.9452-1.966-4.4697-2.34-5.6099-0.62828-1.9155-0.68145-2.3797-0.69838-6.0978-0.01-2.2135 0.12996-6.0616 0.31119-8.5513 0.36095-4.9586 0.15887-9.4522-0.58761-13.066-0.46386-2.2457-2.8055-9.4349-3.5042-10.759l-0.48453-0.9179-0.0108 0.7547c-6e-3 0.4151 0.32053 2.3904 0.72547 4.3898 2.0947 10.342 2.5592 16.282 1.9726 25.222-0.3661 5.5794 0.30807 9.0991 2.7096 14.147 1.5487 3.2551 2.6306 5.8269 2.6306 6.2533 0 0.4815-1.136 0.4164-3.0842-0.1769-2.3162-0.7054-3.4263-1.4048-5.1429-3.2397-2.6985-2.8848-4.6823-7.6826-6.7702-16.374-1.6419-6.8348-1.9171-8.3749-1.9179-10.732-9.2e-4 -2.7566 0.32202-3.9718 2.7381-10.302 2.1671-5.6783 3.4874-9.625 4.045-12.092 0.53821-2.3809 0.48962-5.2108-0.11733-6.833-0.55197-1.4753-0.4538-2.0524 0.38491-2.2628 1.4909-0.3742 4.631 1.6712 6.9748 4.5434 1.4453 1.7711 6.7777 10.976 7.2027 12.433 0.3331 1.1424 0.35883 1.9548 0.17384 5.488-0.25179 4.8092-0.20444 8.3004 0.18192 13.416 0.44916 5.9467 0.36669 11.456-0.22637 15.122-0.28207 1.744-0.58598 4.3782-0.67534 5.8539-0.0893 1.4757-0.31926 3.0756-0.51087 3.5554-0.32789 0.821-0.30464 0.9815 0.39523 2.7294 0.82291 2.0551 1.2957 4.928 1.6953 10.301 0.13965 1.8781 0.32014 3.648 0.40106 3.9331 0.0972 0.3424 0.98943 0.9777 2.6267 1.8705 6.5407 3.5665 12.732 8.467 21.444 16.972 2.9844 2.9136 3.3538 3.2024 3.3538 2.621 0-0.3592 0.537-1.8301 1.1933-3.2684 1.5859-3.4758 1.9775-4.8942 1.9775-7.1627 0-1.3499 0.17514-2.4461 0.60667-3.7973 0.73916-2.3145 0.76523-3.3541 0.11101-4.4273-0.62389-1.0232-0.75483-0.9208-0.42744 0.3346 0.22586 0.8661 0.16599 1.1888-0.54256 2.9248-0.67176 1.6458-0.81935 2.3713-0.94282 4.6343-0.13535 2.4812-0.22798 2.87-1.2311 5.1679-0.59661 1.3665-1.1773 2.4274-1.2904 2.3575-0.44299-0.2737-1.3835-2.0271-1.7508-3.2637-0.74496-2.5086-0.305-4.9536 1.7544-9.7496 0.66242-1.5428 1.4491-3.5476 1.7481-4.4552 0.29904-0.9075 0.70669-1.813 0.90589-2.0122 0.62425-0.6243 1.6562-0.415 3.2713 0.6635 5.2692 3.5187 6.6869 7.692 4.358 12.828-0.60162 1.3269-1.2118 2.0743-3.5154 4.3064-3.0329 2.9389-3.7219 4.0437-3.96 6.3511-0.14247 1.3804 0.2733 2.4027 1.387 3.4107 0.27363 0.2476 0.65293 0.7617 0.84287 1.1425l0.34536 0.6923h-5.7401l-1.0679-1.2806z" fill="#8d804c" stroke-width=".24944"/> </g> </g> </g> </g> </svg>