<?xml version='1.0' encoding='utf-8'?>
<svg xmlns="http://www.w3.org/2000/svg" width="1322.9mm" height="1872.8mm" version="1.1" viewBox="0 0 1322.9 1872.8"> <g transform="translate(-1215.1 -1185.7)"> <g transform="matrix(1.8143 0 0 1.8143 1909.9 -4229.8)"> <path d="m-382.96 2984.9h729.16v1032.3h-729.16z" fill="#f6e9ea" stop-color="#000000" stroke-linecap="square" stroke-width="2.7008" style="paint-order:markers stroke fill"/> <path d="m-24.262 3163.4c7.1045-5.2696 16.579-14.438 20.804-20.132 1.4335-1.9318 2.8587-3.8245 3.1674-4.2058 0.50811-0.6278 0.79224-0.6397 3.0028-0.124 10.477 2.444 18.85 10.391 22.376 21.237 1.2448 3.8286 1.2936 3.7438-1.7767 3.1003-8.2858-1.737-14.572-2.3866-23.189-2.3964-9.2393-0.014-12.949 0.4228-20.926 2.445-4.8623 1.2325-5.0236 1.236-3.4591 0.075z" fill="#87172e" stroke-width=".55118"/> <path d="m-157.14 3205.5c-1.7978-1.8651-6.2466-4.8457-9.1482-6.129-1.2239-0.5413-6.0304-2.3232-10.681-3.9599-9.8426-3.4639-17.799-7.1594-23.692-11.004-4.6712-3.0477-11.261-8.2455-12.855-10.14l-1.0428-1.2393v-9.0449c0-10.392 0.30822-12.487 3.644-24.777 2.6356-9.7097 4.1654-13.91 6.5527-17.988 3.217-5.4956 10.887-12.292 15.846-14.042 2.0696-0.7303 5.0557-0.8025 6.32-0.1529 1.2536 0.6441 3.1754 2.4883 3.1754 3.0472 0 1.1762 1.3479 1.9549 5.3713 3.1029 6.3686 1.8171 6.1609 1.8643 11.186-2.5429 7.3938-6.4844 14.541-10.744 22.431-13.368 10.978-3.6512 17.404-2.651 27.749 4.3195l2.4795 1.6707 0.24317-1.7192c0.33461-2.3647 2.2322-4.0653 4.5361-4.0653 4.0182 0 7.5719 3.2497 15.318 14.008l3.1545 4.3812-1.1505 1.3104c-1.5269 1.7391-2.0562 4.4426-2.0738 10.59-0.01587 5.5835-0.77652 10.766-1.8454 12.576-1.0367 1.7548-2.6914 2.7239-10.084 5.9044-15.387 6.62-24.983 12.275-31.663 18.662-10.727 10.255-17.751 22.2-19.838 33.736-0.61859 3.4196-1.7294 7.3645-2.2613 8.031-0.13702 0.1707-0.8893-0.3544-1.6729-1.1677z" fill="#b33d57" stroke-width=".55118"/> <path d="m-127.41 3207.2c-0.59364-0.3319-1.3159-1.1746-1.6052-1.8726-0.77118-1.8622-0.31398-6.0654 0.96344-8.8556 1.82-3.9754 7.3401-9.0529 9.1055-8.3755 0.55643 0.2139 0.67297 0.9265 0.66893 4.094 0 2.1095-0.25413 4.7653-0.55859 5.9016-0.68479 2.555-3.2018 7.6027-4.2736 8.5698-1.1227 1.0132-3.0249 1.2514-4.3004 0.5383z" fill="#dc6f84" stroke-width=".55118"/> <path d="m-137.48 3214.2c-1.37-1.37-1.6515-3.4508-1.0875-8.0396 0.5834-4.7481 1.8533-8.5577 4.2482-12.744 2.5491-4.4563 3.3164-4.5113 3.8455-0.2758 0.64758 5.1831-0.17321 15.616-1.5053 19.133-1.0829 2.8589-3.6645 3.7629-5.501 1.9263z" fill="#dc6f84" stroke-width=".55118"/> <path d="m-146.67 3220.6c-3.1524-0.677-6.3218-5.0414-6.9524-9.5738-0.7158-5.1449 3.1876-11.278 6.6284-10.414 1.4904 0.3739 4.0329 3.0021 5.0996 5.2712 0.58527 1.2453 1.0886 3.5006 1.3831 6.1966 0.41509 3.8023 0.38725 4.3981-0.27028 5.7836-1.0443 2.2008-3.3637 3.2787-5.8884 2.7365z" fill="#dc6f84" stroke-width=".55118"/> <path d="m-78.353 3231c-1.282-3.0996-5.3954-9.0087-8.3897-12.052-8.7011-8.8442-16.629-9.718-29.254-3.224-1.8183 0.9352-3.4717 1.7728-3.6742 1.8612-0.82829 0.3622 0.37845-2.5196 3.1793-7.5916 3.6295-6.5726 5.4695-11.063 6.143-14.99 1.238-7.2198-1.875-13.736-7.9211-16.581-2.8356-1.3341-8.7886-1.6776-12.397-0.7155-1.2497 0.3333-2.365 0.5132-2.4785 0.3998-0.3336-0.3339 6.9597-7.2069 10.353-9.7567 7.607-5.7161 15.668-9.4608 26.471-12.297 3.4917-0.9166 7.3172-2.2135 8.6944-2.9476 3.1149-1.6602 6.2106-5.0265 7.4446-8.0955 0.87055-2.1652 0.9532-2.9944 0.93546-9.3998-0.01586-5.8063-0.17668-7.6551-0.92579-10.657-0.49845-1.9975-0.90618-3.9655-0.90618-4.3731 0-1.7627 26.931-8.8531 37.904-9.9792 7.5095-0.7706 13.253 0.4711 18.395 3.9768 4.2354 2.8876 10.323 9.676 12.678 14.138 0.451 0.8549 0.3284 1.1909-1.1492 3.1482-2.4947 3.3041-10.272 11.5-15.257 16.077-2.4356 2.2365-7.4036 6.3251-11.04 9.0857-7.6217 5.786-17.35 15.163-21.258 20.492-3.0847 4.2053-5.9786 10.027-6.7968 13.672-0.33158 1.4773-0.72791 4.5456-0.88079 6.8184-0.21677 3.2235-0.59234 4.9831-1.7078 8.0003-1.727 4.6719-3.7361 11.906-5.5357 19.932-0.73411 3.2742-1.4499 6.1758-1.5907 6.4478-0.14423 0.2786-0.59623-0.328-1.0351-1.3893z" fill="#b33d57" stroke-width=".55118"/> <path d="m-235.17 3268.5-6.3617-0.3851-4.3076-3.1391c-9.1461-6.6655-15.275-13.647-19.541-22.26-4.8656-9.8229-5.6136-16.805-2.7133-25.33 2.3639-6.9486 4.7162-10.324 13.045-18.721 9.3365-9.4125 12.944-12.197 21.118-16.302 3.7616-1.8892 12.684-5.1264 14.161-5.1381 0.42561 0 1.9508 1.095 3.3893 2.4406 2.8812 2.6953 10.013 7.5664 15.466 10.563 5.6717 3.1168 11.994 5.7477 21.791 9.0675 5.0533 1.7124 10.455 3.7513 12.003 4.531 6.0274 3.0354 9.0009 6.4187 11.506 13.091 0.80478 2.1436 1.7577 4.5222 2.1178 5.2856 0.60316 1.279 0.59927 1.4736-0.049 2.4794-0.38725 0.6003-1.4767 2.6144-2.421 4.4759-1.2018 2.3694-1.9931 3.4538-2.6379 3.6157-0.50667 0.1269-3.1206-0.2504-5.8089-0.839-7.5924-1.6622-11.602-0.9428-17.387 3.1196-3.3837 2.3762-4.7165 4.0927-9.0041 11.597-7.7597 13.58-12.724 19.056-19.137 21.113-2.3456 0.7522-3.9345 0.8994-10.808 1.0021-4.4319 0.066-10.921-0.053-14.42-0.2651z" fill="#b33d57" stroke-width=".55118"/> <path d="m-108.63 3293c0.50696-7.0181 2.9281-13.221 6.8534-17.559 4.0826-4.5114 7.668-6.2886 17.785-8.8154 11.038-2.7569 15.906-4.8333 23.55-10.046 14.195-9.6793 17.412-11.472 23.223-12.942 2.6567-0.6716 4.282-0.8157 7.7476-0.6865 3.8908 0.145 4.6884 0.3104 7.0714 1.4658 3.5328 1.7128 7.0886 4.9298 8.4347 7.6307 1.5525 3.1156 1.5098 7.0537-0.11394 10.456-2.7868 5.8408-12.429 12.474-23.976 16.493-6.2691 2.1822-29.728 7.9434-34.553 8.4859-8.3532 0.9392-10.122 1.2735-15.134 2.8604-2.8131 0.8908-6.6023 1.921-8.4205 2.2895-3.7437 0.7589-7.2304 1.7896-10.498 3.1033l-2.2326 0.8977z" fill="#87172e" stroke-width=".55118"/> <path d="m-219.31 3328c-4.738-0.7382-9.0873-2.0612-12.944-3.9373-3.096-1.5061-4.5263-2.5273-7.0864-5.0593-1.7642-1.7447-4.525-4.3386-6.1351-5.7643-5.2938-4.687-9.4363-12.147-10.483-18.878-0.85584-5.5041 0.73642-10.873 4.3396-14.633 2.4048-2.5097 8.1341-5.1821 8.1341-3.7942 0 0.739 3.7705 2.989 6.9497 4.147 5.5685 2.0284 11.156 2.9852 18.671 3.1967 5.2287 0.1474 7.5409 0.039 9.9176-0.4606 8.1133-1.7094 14.916-7.4274 19.388-16.297 1.9569-3.8809 4.036-10.477 4.7768-15.154 1.625-10.259 2.0371-11.523 4.5525-13.966 1.7752-1.7238 5.2721-3.1833 7.6273-3.1833 0.8808 0 4.0743 0.7437 7.0965 1.6529 3.0223 0.9091 6.2339 1.653 7.1371 1.653 2.6923 0 4.8825-1.3525 6.878-4.2476 3.0321-4.3988 2.3433-4.2424 7.135-1.6204 5.9609 3.2617 7.141 3.3018 15.577 0.5296 5.6126-1.8444 7.3734-2.666 14.231-6.6405 8.5319-4.9449 10.836-5.9084 14.132-5.9084 6.9317 0 15.84 9.6091 18.564 20.024 1.4613 5.5876 0.42532 12.419-1.9572 12.906-0.52787 0.1082-3.0054 0.4056-5.5054 0.661-8.0962 0.8279-13.33 2.632-18.653 6.4305-5.0136 3.5777-9.4241 10.14-11.386 16.941-0.82628 2.8638-0.94685 4.2049-0.94642 10.514 4.4e-4 6.2263 0.13269 7.7341 0.95248 10.845 0.5234 1.9871 0.828 3.8133 0.67657 4.0582-0.16486 0.267-0.87849 0.3432-1.7822 0.1909-0.82901-0.1399-3.4598-0.068-5.8462 0.16-8.4583 0.8079-23.147 5.9425-40.291 14.084-7.4544 3.5402-13.157 5.7395-17.657 6.8096-2.3344 0.5549-5.6391 1.4871-7.3437 2.0712-6.0235 2.0637-10.386 2.7456-18.596 2.9065-4.2048 0.082-8.7606-0.025-10.124-0.2367z" fill="#87172e" stroke-width=".55118"/> <path d="m-54.717 3346.8c-1.2969-0.3143-3.8073-1.2946-5.5787-2.1781-1.7714-0.8834-4.6153-2.0227-6.3199-2.5315-9.0184-2.6923-14.768-7.7079-21.632-18.871-2.6254-4.2696-7.682-9.3872-12.585-12.737-1.642-1.1219-2.8434-2.1617-2.6698-2.3105 0.93243-0.7997 19.669-9.5292 21.597-10.062 1.2502-0.3456 4.3792-0.8305 6.9535-1.0774 6.7168-0.6443 9.8552-1.3143 21.185-4.5227 13.445-3.8073 18.191-5.4367 24.315-8.3475 16.658-7.9172 24.533-17.994 22.825-29.207-1.2027-7.8977-7.16-14.928-15.064-17.777-2.6076-0.9398-3.6044-1.0719-7.9407-1.0517-9.9881 0.049-21.274 3.4684-33.559 10.175-5.2943 2.8902-9.4717 4.7315-9.858 4.3451-0.13413-0.1341 0.40441-2.2596 1.1969-4.7228 0.79267-2.4633 2.584-8.3838 3.9808-13.157 4.4906-15.345 5.2268-17.322 7.2103-19.363 1.7541-1.8047 2.3842-3.3369 2.9457-7.1619 0.47638-3.2453 5.6015-10.552 10.819-15.425 12.802-11.955 35.319-18.632 53.629-15.903 4.5107 0.6725 17.583 3.5002 18.075 3.91 0.16846 0.1399 0.13413 0.8515-0.075 1.581l-0.38018 1.3265h4.4963c7.141 0 11.222 1.2403 14.988 4.5555 3.8565 3.3947 4.9448 8.1089 3.2418 14.042-2.0121 7.0087-8.109 20.25-12.652 27.479-8.5449 13.596-20.076 24.105-31.292 28.521-1.6579 0.6526-3.0886 1.2401-3.1792 1.3054-0.090863 0.065 0.31932 0.8194 0.9105 1.6758 2.9431 4.2623 3.8149 8.6709 3.4542 17.467-0.27922 6.8083-1.2493 11.643-3.9799 19.836-5.1499 15.451-13.413 27.18-26.622 37.79-3.207 2.5759-7.2043 5.8065-8.8828 7.1789-6.4765 5.2956-12.552 6.9172-19.555 5.2192z" fill="#87172e" stroke-width=".55118"/> <path d="m98.725 3374c-2.3929-2.7184-3.818-5.9012-6.2486-13.954-2.3308-7.7226-3.8846-11.148-6.8384-15.078-3.4401-4.5763-10.685-10.177-19.603-15.155-4.2426-2.3679-14.067-7.1069-16.668-8.0399l-1.3078-0.4691 1.8595-1.6486c14.244-12.629 48.384-24.137 66.086-22.277 4.2918 0.4509 5.9811 0.828 9.6586 2.1561 1.9256 0.6955 2.5942 0.7745 3.4092 0.4033 0.55772-0.2544 1.0139-0.3627 1.0139-0.2417 0 0.1211-0.46859 1.8868-1.0412 3.9235-1.473 5.2389-2.5706 12.136-2.8886 18.154-0.2661 5.0339-0.0144 10.006 1.2135 23.968 0.32999 3.7502 0.73282 9.4092 0.8955 12.576l0.29581 5.7571-3.6094-3.1176c-4.1425-3.578-6.5981-4.9415-9.3804-5.2089-2.6895-0.2586-5.3573 1.0664-7.2116 3.5813-2.0389 2.7651-5.3233 9.2803-6.5958 13.084-0.60503 1.8084-1.1516 3.3427-1.2147 3.4093-0.0635 0.066-0.88411-0.753-1.8246-1.8215z" fill="#b33d57" stroke-width=".55118"/> <path d="m184.63 3410.7c0-0.2324-0.87329-0.9761-1.9404-1.653-2.7979-1.7744-5.1907-1.7046-8.692 0.2533-1.4594 0.8163-2.723 1.4147-2.8077 1.33-0.0851-0.085 0.0389-1.5429 0.28009-3.2403 0.59609-4.2364 0.18648-16.732-0.67701-20.649-1.8201-8.2577-4.5592-14.551-10.394-23.884-4.0532-6.4829-4.8068-7.4123-6.6452-8.1956-4.8292-2.0576-10.322 1.3039-13.886 8.4973l-1.7267 3.4851-0.25326-10.097c-0.42028-16.775-0.39201-30.357 0.0736-34.598 0.99458-9.071 3.6553-18.033 7.8159-26.328 3.1215-6.2225 2.3278-5.6289 13.439-10.052 9.6078-3.8245 12.304-4.4047 20.484-4.4085 6.8075 0 6.8606 0 9.2979 1.2473 3.8395 1.9584 6.2456 5.5057 11.361 16.748 9.9542 21.878 15.179 34.079 16.917 39.503 1.304 4.0705 4.5472 16.755 4.5472 17.785 0 0.3026-1.1378 1.8972-2.5284 3.5431-2.5303 2.995-9.6847 13.654-25.572 38.097-4.6592 7.1686-8.6108 13.035-8.7812 13.036-0.17033 9e-4 -0.30994-0.1884-0.30994-0.4207z" fill="#b33d57" stroke-width=".55118"/> <path d="m43.099 3424.2c-5.4743-5.4009-12.736-10.033-20.626-13.155-1.7984-0.7117-7.1912-2.4811-11.984-3.932-10.433-3.1581-25.98-8.4534-26.579-9.0528-0.0649-0.065-0.5133-1.681-0.99733-3.5922-1.0435-4.1205-0.98103-4.4707 2.0997-11.76 2.801-6.6279 7.102-14.452 11.801-21.467 6.2348-9.3085 7.6251-10.794 12.43-13.282 2.2567-1.1684 6.5205-3.0008 9.4753-4.0719 2.9546-1.071 7.9755-3.2103 11.157-4.7541s6.3812-2.9321 7.1095-3.0852c2.2903-0.4812 6.2329 0.8681 14.379 4.9218 12.321 6.1311 18.93 10.892 21.388 15.408 1.2897 2.3695 4.605 11.242 4.3108 11.536-0.11106 0.1111-1.1759-0.2913-2.3662-0.8945-2.56-1.2973-5.8866-1.7366-7.9623-1.0517-2.1542 0.7109-3.8387 2.8763-4.9242 6.3297-0.81243 2.5844-0.93747 3.8438-0.91296 9.1932 0.02884 5.9876 0.08942 6.4237 1.83 12.81 1.7123 6.2845 1.8059 6.9186 1.8902 12.81 0.08077 5.5866 0.61022 12.233 1.2591 15.783l0.24115 1.32-3.3924-1.7332c-3.2236-1.6469-3.5698-1.7324-6.9634-1.7173-2.8423 0.015-3.9189 0.1988-5.2754 0.9118-1.8041 0.9482-3.6426 2.8567-4.0803 4.2357-0.14452 0.4557-0.38999 0.8079-0.54518 0.7827-0.15519-0.024-1.3977-1.1467-2.7614-2.4921z" fill="#b33d57" stroke-width=".55118"/> <path d="m117.48 3427.9c-1.7075-0.7969-2.9337-2.0473-4.0198-4.0997-0.77522-1.4647-0.92103-2.3947-0.92089-5.8728 2.9e-4 -4.5303 0.58946-7.5394 2.1191-10.824 2.0384-4.3764 7.3964-8.9927 10.133-8.7299 1.111 0.1067 1.6171 0.5061 2.7057 2.1348 3.1023 4.6421 3.7526 10.42 1.9658 17.464-1.7136 6.7552-4.4713 10.09-8.5695 10.362-1.2943 0.086-2.6751-0.089-3.4133-0.4343z" fill="#dc6f84" stroke-width=".55118"/> <path d="m105.18 3435.9c-3.8462-4.4937-6.3068-21.612-4.2755-29.747 1.2548-5.0246 2.075-5.2627 4.7139-1.3686 4.3177 6.3712 5.9455 12.003 6.5472 22.65 0.39533 6.9971-0.83233 10.124-3.9746 10.124-1.3456 0-1.8096-0.2559-3.011-1.6592z" fill="#dc6f84" stroke-width=".55118"/> <path d="m123.16 3444.4c-2.6179-1.454-2.9434-4.5461-0.90401-8.5905 3.2334-6.413 6.8955-10.486 12.337-13.723 4.6715-2.7789 5.9505-3.2661 6.8492-2.6088 0.68623 0.5016 0.67974 0.6996-0.12547 3.8852-1.0475 4.1427-2.4638 7.6988-4.2208 10.598-1.5825 2.6108-7.2786 9.1152-8.9447 10.214-1.3347 0.8799-3.6264 0.9836-4.991 0.226z" fill="#dc6f84" stroke-width=".55118"/> <path d="m94.876 3450.7c-1.787-1.706-4.0428-5.5531-6.1129-10.425-2.6751-6.2956-3.7203-11.828-3.7203-19.691 0-4.1138 0.06779-4.5156 0.76238-4.5156 1.0765 0 1.6667 0.7796 4.9773 6.575 3.2918 5.7629 4.8069 9.4175 6.6271 15.985 2.1627 7.8033 2.6505 10.712 2.0183 12.038-0.83998 1.7611-2.7275 1.775-4.5518 0.035z" fill="#dc6f84" stroke-width=".55118"/> <path d="m111.57 3463.9c-1.2786-2.1054-1.458-3.749-0.6956-6.3715 0.5632-1.9377 1.1744-2.845 3.4405-5.1074 3.1692-3.164 5.3703-4.1218 9.6394-4.1947 3.0488-0.052 4.3432 0.4862 4.9389 2.0532 0.48705 1.2815 0.0894 4.9027-0.60403 5.5004-0.26105 0.225-2.4481 1.4958-4.86 2.824-2.412 1.328-5.6922 3.3652-7.2894 4.5268-1.5972 1.1618-3.0952 2.1122-3.329 2.1122s-0.79224-0.6044-1.2408-1.343z" fill="#dc6f84" stroke-width=".55118"/> <path d="m257.36 3468.3c-1.6104-0.9316-6.8281-2.5173-13.729-4.1725-3.4721-0.8326-9.8497-2.7755-14.172-4.3174-15.017-5.3562-45.715-13.198-51.667-13.198-2.6809 0-2.8251-0.3001-1.2183-2.5368 0.80248-1.1171 2.6568-3.9875 4.1208-6.3786s4.6193-6.9887 7.0117-10.217c2.3926-3.2279 7.7329-10.425 11.868-15.993 4.1346-5.5683 10.397-14.122 13.917-19.009 8.444-11.722 11.706-15.791 17.192-21.441 6.9396-7.1469 8.8322-8.614 11.473-8.8929 1.2024-0.1269 6.2463-0.7115 11.208-1.2985 11.298-1.3368 13.423-1.0361 16.681 2.3603 2.7806 2.8987 2.6838 1.7314 2.629 31.724-0.0534 29.199-0.32697 35.004-2.0857 44.244-0.71652 3.7639-2.4206 9.6761-3.959 13.735-1.9648 5.1838-7.2424 16.022-7.7929 16.004-0.24461-0.014-0.90935-0.2836-1.4775-0.6124z" fill="#b33d57" stroke-width=".55118"/> <path d="m118.93 3539.6c0-0.468 0.1859-0.7359 0.41335-0.5955 0.22745 0.1399 0.41335 0.5234 0.41335 0.8509 0 0.3276-0.1859 0.5955-0.41335 0.5955s-0.41335-0.3827-0.41335-0.8509z" stroke-width=".55118"/> <path d="m104.65 3554.9c-4.5108-2.0417-16.859-14.901-25.623-26.684-12.086-16.251-19.799-32-22.968-46.902-1.2382-5.8232-1.3694-16.716-0.24547-20.352 0.40412-1.307 0.91887-2.3762 1.144-2.3762 0.89305 0 8.6095 4.1558 11.138 5.9986 3.3107 2.4127 15.615 14.718 20.035 20.035 10.101 12.154 17.145 27.752 20.881 46.237 0.66647 3.2981 1.4293 8.239 1.6951 10.98l0.48316 4.9833-1.4402 2.269c-0.79209 1.2479-1.7757 3.1583-2.1859 4.2453-0.41004 1.0869-0.86594 2.0506-1.0126 2.1414-0.14697 0.091-1.0025-0.1681-1.9016-0.5749z" fill="#87172e" stroke-width=".55118"/> <path d="m196.92 3552.7c-14.104-7.1229-18.252-8.8888-27.379-11.655-12.277-3.7213-29.054-5.3333-38.831-3.731-4.3678 0.7158-3.6145 1.2695-7.1495-5.255-3.0299-5.5923-5.4545-11.526-6.8832-16.846-2.6317-9.7992-3.7408-24.688-2.1735-29.177 1.0308-2.9523 1.9639-3.6258 6.44-4.6478 4.8861-1.1156 9.6978-3.0314 17.867-7.1136 6.3953-3.1958 11.93-6.3823 16.631-9.5744 2.1066-1.4304 2.9042-1.7134 5.7981-2.0562 4.106-0.486 11.682-0.1527 16.386 0.7219 1.9243 0.3576 8.5195 1.9303 14.656 3.4947 9.8606 2.514 27.547 6.2671 37.857 8.0333 1.957 0.3353 6.42 0.8071 9.9178 1.0485 6.66 0.4598 10.854 1.0063 13.019 1.6964 1.2526 0.3993 1.2949 0.4943 1.57 3.5311 0.17668 1.9523 0.11106 3.6412-0.17567 4.5103-0.39143 1.1857-0.29148 1.8924 0.68292 4.8204 1.0413 3.1303 1.1397 3.956 1.1231 9.4229-0.0202 6.9155-0.89651 11.007-3.7861 17.692-4.728 10.938-12.389 20.164-25.503 30.716-5.4552 4.3893-15.099 11.502-15.604 11.508-0.1761 0-6.6848-3.2101-14.463-7.1383z" fill="#87172e" stroke-width=".55118"/> <path d="m98.68 3565c-3.0373-0.7409-8.2144-2.9848-14.293-6.1949-3.6485-1.9267-6.1552-2.9293-9.2979-3.7193-2.3665-0.5948-5.7534-1.5354-7.5266-2.0904-2.6992-0.8446-4.0673-1.0089-8.4064-1.0089-3.4989 0-6.4791-0.2616-9.1733-0.8059-2.1948-0.4432-5.8408-1.1003-8.1021-1.4603-2.2612-0.3601-5.9423-1.2905-8.1803-2.0681-2.2378-0.7775-6.1524-2.0039-8.699-2.7251-5.8964-1.6702-10.879-3.5721-16.614-6.3423-2.5002-1.2076-5.9357-2.6095-7.6345-3.1151-6.1896-1.8422-10.358-4.5882-16.132-10.626-2.1562-2.2549-6.1519-5.792-8.8792-7.8605-9.0768-6.8838-14.274-12.397-20.442-21.684-4.0092-6.0367-6.3251-10.526-9.2361-17.902-8.7358-22.136-11.037-34.879-8.1495-45.137 2.8925-10.276 8.8089-18.78 16.325-23.465 4.8948-3.0509 7.0602-3.6677 12.824-3.6535 6.7713 0.015 6.3983-0.099 34.712 10.812 13.63 5.2531 16.15 6.3095 20.232 8.4829 7.5741 4.0323 11.964 7.4868 22.44 17.656l7.006 6.8013-1.4289 1.8546c-3.6975 4.7993-5.0645 9.4347-5.3608 18.178-0.57849 17.076 5.5021 35.953 18.128 56.277 8.8839 14.3 19.489 26.915 28.45 33.839 4.3933 3.395 6.1009 4.4279 9.266 5.6047 2.823 1.0495 1.8202 1.2432-1.8278 0.3533z" fill="#87172e" stroke-width=".55118"/> <path d="m177.85 3600.7c-5.8618-0.9246-14.103-3.7822-20.904-7.2481-7.752-3.9508-21.18-12.901-29.133-19.418-4.2744-3.5024-10.124-9.2849-10.124-10.008 0-0.6995 3.5209-5.2366 4.6252-5.9602 2.6559-1.7402 5.4986-2.1419 15.21-2.1494 10.51-0.014 15.239 0.5507 24.16 2.8535 5.3552 1.3827 6.7836 1.8841 19.437 6.8234 3.6365 1.4195 9.2744 3.4665 12.528 4.5488 3.5093 1.1671 6.333 2.3588 6.9396 2.9288 0.56249 0.5284 1.6192 2.1732 2.348 3.6549 1.2588 2.559 1.3253 2.9325 1.3253 7.4529 0 4.4635-0.0793 4.9255-1.2771 7.4448-0.70224 1.4773-1.762 3.2594-2.3548 3.9602-1.3521 1.5983-5.1126 3.6166-8.352 4.4827-3.0168 0.8065-11.085 1.1608-14.428 0.6333z" fill="#87172e" stroke-width=".55118"/> <path d="m31.565 3685.5c-6.2463-12.465-11.123-19.708-17.579-26.106-5.6876-5.6369-14.896-12.196-14.896-10.61 0 1.013 2.5918 6.857 4.4527 10.04 4.1876 7.163 9.1467 12.804 18.682 21.251 3.5265 3.124 7.5219 6.8151 8.8785 8.2021 1.3566 1.3872 2.6131 2.522 2.7922 2.522s-0.86926-2.385-2.33-5.3001z" stroke-width=".55118"/> <path d="m89.098 3800.5c6.3134-6.188 10.94-13.852 14.906-24.691 4.9724-13.59 6.152-16.629 8.5671-22.072 1.4534-3.2755 2.5678-6.0303 2.4767-6.1213-0.0909-0.091-1.9639 1.5534-4.1618 3.6545-9.0292 8.6321-15.695 19.939-21.287 36.109-1.7108 4.9471-4.5558 14.815-4.5558 15.802 0 1.0257 0.83565 0.4729 4.0546-2.6821z" stroke-width=".55118"/> <path d="m58.013 3923.7c-2.8724-7.1799-8.0053-18.476-15.137-33.312-8.9421-18.603-13.264-25.755-19.039-31.509-1.996-1.9888-3.848-3.6158-4.1158-3.6158-0.87474 0-0.22196 6.4478 1.0252 10.124 1.276 3.7617 6.2283 14.181 9.4045 19.785 4.4353 7.8266 29.916 46.033 30.386 45.563 0.11394-0.114-1.0218-3.2796-2.5241-7.0346z" stroke-width=".55118"/> <path d="m69.837 3986.2c0.09519-2.4198-0.02019-2.7783-1.7857-5.6821-1.0381-1.7044-3.6713-6.4669-5.8517-10.583-6.0532-11.428-8.2617-14.936-19.872-31.567-11.425-16.365-15.892-23.422-19.488-30.786-5.0335-10.307-9.2934-22.257-11.375-31.91-1.2083-5.6029-1.5177-14.271-0.64224-17.997 1.6419-6.988 5.3442-10.597 9.6532-9.411 9.5602 2.632 20.479 17.74 37.646 52.086 6.5506 13.107 9.5116 20.037 12.884 30.155 2.0286 6.0865 2.4523 7.0372 2.6991 6.0546 0.1611-0.6411 0.18793-12.537 0.05913-26.436-0.52758-57.278-3.0739-85.468-10.27-113.7-2.0692-8.1184-3.6841-13.454-9.4424-31.199-2.4706-7.6139-4.7761-14.959-5.1234-16.323-1.114-4.3754-3.1428-17.556-3.8162-24.794-0.3597-3.8639-0.71796-7.2499-0.79642-7.5245-0.07788-0.2747-1.1456-0.7908-2.3711-1.147-2.5515-0.7418-4.3272-1.8078-10.044-6.0299-5.4697-4.0398-27.752-26.302-31.925-31.898-10.381-13.917-15.757-28.273-13.506-36.065 0.98824-3.421 3.7238-6.0953 6.9803-6.8241 3.3302-0.7454 6.1364-0.068 12.046 2.9063 14.536 7.3166 25.638 19.149 34.497 36.77 0.91887 1.8277 1.7815 3.323 1.9168 3.323 0.13557 0 0.11827-3.0218-0.03894-6.7152-0.46225-10.898 0.60301-29.944 2.4986-44.678 0.34701-2.6974 0.57546-4.959 0.50753-5.0257-0.06779-0.066-1.1235 0.061-2.3461 0.2841-4.4416 0.8094-9.1911-1.6255-10.417-5.3405-1.9538-5.9203 2.9059-18.144 11.658-29.324 1.1082-1.4158 2.0148-2.7438 2.0148-2.9513 0-0.2074-0.51128-0.5011-1.1364-0.6524-2.2055-0.5341-5.3285-2.9693-6.2505-4.874-2.9538-6.1016 2.3966-12.577 12.1-14.646 3.9274-0.837 10.606-0.5217 14.416 0.6808l2.8068 0.8859 1.2539-1.0552c0.98247-0.8265 1.7061-1.0551 3.3416-1.0551 2.0663 0 2.122 0.035 5.4653 3.4092 3.6786 3.7128 10.012 11.451 11.679 14.268 2.0385 3.4464 2.0522 5.9544 0.04327 7.9633-1.613 1.6132-4.2564 1.6813-6.8867 0.1777l-1.8053-1.0319 0.24014 1.1402c0.13269 0.6271 0.45936 3.3487 0.72762 6.0479 0.83709 8.4269-0.72113 21.586-3.1421 26.534-1.4639 2.9923-3.2037 4.0524-6.2374 3.8009-1.8773-0.1558-2.507-0.4262-3.7097-1.5914-2.6608-2.5791-4.1793-6.8896-5.4773-15.55l-0.71522-4.7721-1.5936 2.4265c-0.87647 1.3346-2.1907 3.1704-2.9203 4.0795-2.0774 2.5878-2.1761 2.9197-3.3226 11.173-2.043 14.706-2.7328 22.774-2.9708 34.749-0.25485 12.807 0.14538 20.324 1.7649 33.18 2.6825 21.29 5.777 34.458 11.759 50.035 3.4053 8.8674 13.822 41.112 15.719 48.659 0.2997 1.1932 0.6496 2.1693 0.77709 2.1689 0.12692-3e-4 0.56797-1.1625 0.97858-2.5827 1.4522-5.0208 3.29-9.6742 6.079-15.393 6.7549-13.849 14.576-22.836 26.255-30.169 5.1808-3.2524 7.8774-3.0367 8.8865 0.7112 0.81531 3.0279-0.55138 8.8599-5.7649 24.6-7.5582 22.819-12.384 31.903-22.133 41.658-2.738 2.7396-5.8363 5.7275-6.885 6.6399l-1.9068 1.6588 0.55556 3.6909c2.4245 16.108 3.7564 35.638 4.7671 69.905 0.27619 9.3713 0.56205 16.979 0.63503 16.906 0.07211-0.072 1.234-3.9283 2.5802-8.5677 8.6589-29.838 19.712-53.322 37.774-80.257 14.639-21.831 35.517-46.006 42.776-49.531 4.0355-1.9597 8.5493-0.7112 11.08 3.0651 1.9716 2.9418 2.7138 6.7726 2.936 15.154 0.31038 11.704-1.338 24.352-5.2636 40.385-7.7177 31.522-17.823 55.045-37.962 88.371-12.23 20.238-16.975 26.956-39.737 56.271-5.7934 7.4611-10.814 14.164-11.157 14.896l-0.62392 1.3296-25.846 0.028 0.10096-2.5828z" fill="#26786a" stroke-width=".55118"/> <path d="m-114.62 3886.3c-0.37687-1.1003-11.775-13.906-18.527-20.815-22.267-22.784-49.604-44.491-72.703-57.729-16.275-9.3272-28.532-13.659-46.751-16.523-4.8594-0.7638-5.0104-0.635-2.6776 2.2837 2.7875 3.4872 12.055 12.822 16.963 17.086 5.9847 5.1992 9.0471 7.4697 42.243 31.319 11.024 7.9199 30.394 20.877 37.719 25.23 14.469 8.5997 21.875 12.921 23.86 13.922 2.7977 1.4108 16.591 5.3704 19.461 5.5866 0.30302 0.025 0.48907-0.1399 0.41321-0.3607z" stroke-width=".55118"/> <path d="m-82.466 3980.6c-4.021-20.676-8.6845-35.793-20.428-66.222-2.5-6.4775-5.1361-13.469-5.8581-15.537l-1.3128-3.7594-5.8589-0.2567c-10.22-0.4482-19.722-2.5419-26.296-5.7938-10.009-4.9507-28.129-14.543-32.779-17.352-14.68-8.8691-31.662-20.856-55.052-38.858-14.407-11.089-24.965-21.24-32.487-31.236-5.8604-7.7869-7.1261-13.767-3.8299-18.094 2.1514-2.8244 4.095-3.1802 11.775-2.1556 13.353 1.7817 20.096 3.2487 29.088 6.33 18.396 6.3028 41.626 19.964 66.081 38.86 12.884 9.9557 24.294 20.135 35.205 31.407l7.5621 7.8127-0.24042-8.6392c-0.34197-12.286 0.79584-25.508 3.5524-41.285 0.74176-4.2455 0.74868-4.5914 0.10384-5.2369-1.4255-1.4286-9.9206-7.2779-13.5-9.2956-5.9406-3.3484-15.924-9.5634-18.311-11.399-1.2072-0.9284-3.4224-3.0596-4.9228-4.7361-1.81-2.0224-4.4174-4.2123-7.7482-6.508-10.808-7.4488-21.443-15.541-30.177-22.963-2.0454-1.7381-5.9701-4.6635-8.7215-6.5008-9.3396-6.2366-13.621-10.344-20.697-19.853-2.6542-3.5673-6.9012-8.9963-9.4379-12.065-12.863-15.559-21.828-30.129-29.063-47.233-8.389-19.833-12.067-37.974-12.08-59.589 0-10.771 0.65479-17.833 2.5421-27.134 3.2699-16.113 10.857-36.098 15.973-42.076 4.2502-4.9655 10.74-4.5293 13.925 0.9359 1.9057 3.2702 4.5899 12.74 7.2734 25.662 2.7236 13.114 6.3918 23.363 14.639 40.9 9.8997 21.052 13.33 30.856 20.696 59.152 5.1573 19.81 5.073 19.574 12.723 35.746 7.1038 15.018 8.1902 16.917 14.865 25.974 5.405 7.3351 8.5832 12.574 13.162 21.694 2.5263 5.0326 5.706 11.156 7.066 13.607 2.6663 4.8064 2.5149 4.6492 12.298 12.755 6.3826 5.2884 13.978 12.833 18.568 18.443 1.9119 2.3371 3.613 4.1037 3.7805 3.9259 0.31009-0.3296 5.826-25.956 7.3634-34.209 4.366-23.44 5.156-40.042 2.546-53.505-0.82281-4.245-4.8293-18.595-7.3287-26.25-1.9368-5.9315-3.8902-10.821-7.7598-19.422-3.805-8.4577-5.8177-12.239-10.314-19.375-1.8777-2.9804-5.612-9.2311-8.2982-13.89-2.6862-4.6593-7.6194-12.562-10.962-17.563-7.0987-10.617-10.263-16.006-14.073-23.968-11.204-23.415-15.987-49.706-18.071-99.337l-0.28427-6.772-4.4667-2.3191c-5.6704-2.9442-10.033-6.4698-16.543-13.368-14.847-15.734-27.161-32.296-33.963-45.682-2.521-4.9605-3.7255-8.8874-3.3446-10.903 0.56061-2.9665 2.5677-5.0715 5.457-5.7231 5.4359-1.2261 21.258 8.3442 32.747 19.808 7.3889 7.3726 11.624 13.289 16.508 23.063 1.7291 3.4606 3.1979 6.238 3.2638 6.1721 0.0663-0.066 0.31673-3.7342 0.5573-8.1516 0.51474-9.4507 1.6479-20.014 3.1023-28.916 3.8888-23.804 13.161-54.028 23.345-76.097 1.5538-3.3669 2.7382-6.1214 2.6323-6.1214-0.10528 0-1.8356 0.6344-3.8435 1.4098-11.349 4.383-18.145 4.4636-21.009 0.2495-1.7072-2.5123-1.1368-5.6019 1.8051-9.7761 3.404-4.8301 9.1704-9.2916 17.514-13.551 6.1184-3.1234 9.1053-3.9543 14.833-4.1268 2.6001-0.078 5.2947 0.02 5.988 0.2192 1.073 0.308 1.3856 0.2128 2.1002-0.6395 2.1653-2.5815 6.5218-3.5345 9.386-2.0535 0.86984 0.45 1.8131 0.5804 2.9754 0.4119 4.705-0.6819 11.989 6.099 15.339 14.279 3.0644 7.4824 4.272 17.211 2.9419 23.701-2.4082 11.751-8.6977 13.511-14.911 4.1734l-2.3692-3.5605-2.3998 4.859c-4.8577 9.8354-10.329 14.275-16.229 13.169-2.9096-0.5459-6.8953-5.4477-6.9074-8.4954 0-0.6838-0.1399-0.8766-0.42259-0.5938-0.74854 0.7484-7.7676 20.932-9.2631 26.635-2.7839 10.618-5.6791 30.575-7.6996 53.073-1.9683 21.917-2.9297 50.188-2.0868 61.366 0.95767 12.701 2.1582 24.569 2.9624 29.284 1.8142 10.639 6.1374 25.375 11.17 38.073 4.0859 10.311 14.595 30.661 25.287 48.969 3.1858 5.4548 6.8206 11.684 8.0776 13.843l2.2851 3.9248 0.69387-1.5725c0.47004-1.0657 0.7872-3.3752 0.98378-7.1656 0.90488-17.443 5.4473-33.378 14.904-52.28 7.8945-15.78 17.71-29.831 26.284-37.628 7.2236-6.5687 10.981-8.0759 15.128-6.0682 1.2425 0.6015 2.1347 1.4538 2.9199 2.7893 1.0912 1.8564 1.1296 2.1246 1.1029 7.7086-0.02884 6.3007-0.92969 12.56-3.9499 27.48-5.5687 27.511-14.624 49.396-28.781 69.558-5.0764 7.2295-8.8751 10.64-15.665 14.062-1.1772 0.5932-2.2447 1.2477-2.3724 1.4542-0.12692 0.2065 1.5324 4.3148 3.689 9.1293 8.2384 18.392 12.032 31.049 16.227 54.137 1.0298 5.6677 1.0906 6.7343 1.0866 19.021 0 8.0811-0.26206 16.464-0.68421 22.108-0.37398 5.0002-0.78993 12.067-0.92435 15.703-0.13413 3.6364-0.53941 12.284-0.89998 19.216-1.0454 20.101-0.28427 38.898 2.1745 53.709 1.1972 7.2103 4.4956 20.558 8.7854 35.551 1.5933 5.5683 3.8526 13.75 5.0208 18.182s2.9603 11.219 3.9822 15.083c3.915 14.802 7.4053 24.395 17.027 46.796 5.3351 12.422 11.634 28.201 11.634 29.143 0 0.1664-10.462 0.3032-23.248 0.3032h-23.248z" fill="#26786a" stroke-width=".55118"/> <path d="m-166.41 3987c-1.8183-0.9359-7.1643-3.5194-11.88-5.7409-12.578-5.926-18.072-9.0854-29.444-16.934-3.1819-2.1962-8.4817-5.6241-11.777-7.6176-10.205-6.1729-16.683-11.084-23.146-17.548-7.0279-7.0277-12.463-14.413-16.655-22.633-8.8513-17.354-7.9297-30.162 2.5137-34.931 1.5616-0.713 2.7057-0.8881 5.675-0.8685 5.1899 0.035 9.2422 1.4913 22.834 8.2092 29.397 14.53 44.545 25.85 66.412 49.629 2.4927 2.7106 9.3789 9.8563 15.303 15.879s14.414 15.042 18.867 20.042c4.4526 5.0002 9.1578 10.254 10.456 11.674l2.36 2.5827-48.212-0.04z" fill="#26786a" stroke-width=".55118"/> </g> </g> </svg>