<?xml version='1.0' encoding='utf-8'?>
<svg xmlns="http://www.w3.org/2000/svg" width="1323.2mm" height="1819.2mm" version="1.1" viewBox="0 0 1323.2 1819.2"> <g transform="translate(2448.9 817.55)"> <path d="m-2448.9-817.55h1323.2v1819.2h-1323.2z" fill="#f2eeed" stroke-width="1.4212"/> <path d="m-2230.6-402.02c-33.809-5.2534-66.889-20.046-87.718-39.226-19.003-17.499-28.399-44.847-22.846-66.498 4.2627-16.619 13.361-27.319 29.99-35.267 14.497-6.9291 23.514-9.0534 41.91-9.8729l15.93-0.7095-5.5376-3.9247c-35.392-25.085-57.487-44.444-70.498-61.77-20.671-27.526-25.946-48.262-16.631-65.377 6.8025-12.498 18.639-18.133 38.088-18.133 36.651 0 86.344 24.327 153.82 75.3 7.7672 5.8675 12.506 8.7471 11.928 7.2471-4.9381-12.805-6.5333-22.698-6.5799-40.81-0.049-17.733 0.1522-19.267 3.4079-26.208 16.775-35.785 56.832-33.233 89.003 5.6693 16.468 19.914 29.722 42.847 49.929 86.391 20.551 44.285 29.104 66.313 31.679 81.588 0.4812 2.8574 2.3504 10.749 4.1522 17.536 3.8983 14.685 4.4188 28.575 1.2961 34.6-6.6683 12.867-29.238 24.65-65.85 34.377-8.2164 2.1828-27.507 7.3984-42.868 11.59-34.5 9.4133-43.755 11.304-66.841 13.653-23.206 2.3615-70.111 2.2766-85.761-0.157z" fill="#b261a6" stroke-width="1.299"/> <path d="m-1495.4-141.39c-13.027-3.2488-21.443-10.365-38.477-32.537-6.3124-8.2164-15.343-19.615-20.068-25.331-42.13-50.965-81.39-140.7-94.062-214.99-11.36-66.602-2.0989-135.31 24.221-179.69 8.671-14.62 24.308-30.218 36.125-36.032 8.4-4.1334 9.9671-4.4595 21.434-4.4595 10.437 0 13.363 0.4862 18.711 3.1212 21.079 10.376 36.143 41.374 42.914 88.306 2.5771 17.864 5.9152 56.002 5.9378 67.847 0 4.7227 0.3928 11.346 0.8568 14.719l0.8404 6.1321 4.4566-14.719c20.178-66.646 53.775-119.49 104.66-164.61 46.965-41.644 89.873-66.192 122.39-70.022 32.024-3.7711 51.29 9.87 57.142 40.458 3.1732 16.584 2.2404 32.188-3.4676 57.994-10.85 49.054-50.316 128.67-102.57 206.92-8.4855 12.707-15.428 23.305-15.428 23.551 0 0.2454 5.407-1.7789 12.016-4.4998 20.848-8.5841 31.806-10.94 50.987-10.961 15.904 0 17.32 0.1963 24.33 3.6366 13.222 6.4931 19.187 17.097 19.187 34.112 0 29.612-20.078 58.072-64.951 92.07-17.976 13.618-28.234 20.288-63.003 40.963-17.147 10.196-45.646 28.256-63.331 40.132-46.34 31.121-52.681 35.058-59.907 37.204-6.871 2.0404-14.525 2.2919-20.954 0.6884z" fill="#b261a6" stroke-width="1.299"/> <path d="m-2103.1 374.75c-0.5714-0.5803-24.539-0.9004-53.26-0.7114-71.53 0.4713-102.06-1.8274-129.51-9.7467-12.57-3.6263-31.977-12.461-40.98-18.655-15.626-10.751-31.407-29.19-40.546-47.373-8.9764-17.86-10.64-34.025-4.7245-45.896 5.8454-11.73 16.034-17.106 32.42-17.106 12.899 0 24.346 2.5952 51.753 11.733 12.789 4.2636 23.531 7.7525 23.872 7.7525 0.3387 0-5.1543-5.9978-12.211-13.328-30.89-32.089-57.623-71.18-79.102-115.67-11.335-23.479-18.151-42.559-20.947-58.636-5.6727-32.618 6.2987-55.346 29.209-55.456 21.162-0.1028 44.206 18.765 86.588 70.889 27.986 34.418 54.313 64.512 68.824 78.671l11.317 11.042-25.198-37.672c-26.167-39.121-37.11-57.257-49.668-82.319-50.508-100.79-59.431-210.96-21.47-265.08 10.232-14.587 22.03-21.323 37.181-21.23 13.981 0.088 25.902 6.2167 40.793 20.976 28.903 28.649 48.003 72.962 71.444 165.76 10.2 40.38 18.574 82.504 31.123 156.56 12.45 73.476 15.557 90.322 21.569 116.91 7.2717 32.167 19.928 94.609 21.308 105.13 2.5487 19.426-3.2138 34.65-15.359 40.575-4.8851 2.3836-8.8246 3.0729-19.743 3.4554-7.5019 0.2602-14.107 0-14.678-0.5779z" fill="#b767a2" stroke-width="1.299"/> <path d="m-1255.9 871.29c-19.298-6.8117-46.142-26.355-70.03-50.982-41.11-42.382-73.727-96.676-99.264-165.23-3.1059-8.3386-6.3821-17.649-7.2806-20.69-2.7367-9.2621-2.7464-5.3138 0 9.8027 4.2755 23.746 7.7136 50.439 9.1718 71.213 2.1986 31.325-1.4522 66.579-8.943 86.354-6.6448 17.543-19.739 33.581-32.557 39.876-6.2023 3.0464-8.7873 3.5295-18.878 3.5295-15.516 0-23.349-3.6733-37.17-17.433-26.672-26.554-43.069-67.804-51.419-129.36-3.3303-24.55-3.3166-107.81 0-138.35 9.4855-86.757 22.054-141.34 41.431-179.91 21.527-42.859 47.251-66.318 83.507-76.155 14.065-3.8163 43.926-4.2283 56.42-0.7786 17.68 4.8816 72.178 31.797 87.191 43.061 35.662 26.759 64.592 68.128 74.613 106.69 8.3156 32.006 4.321 51.9-12.029 59.906-12.583 6.1613-30.53 3.019-56.157-9.8316-6.7872-3.4039-16.272-8.5816-21.077-11.506l-8.7368-5.3183 15.771 17.112c42.648 46.275 73.98 95.02 90.528 140.84 16.606 45.978 26.512 112.61 23.473 157.89-2.6763 39.865-10.68 61.385-25.793 69.349-7.863 4.1437-20.895 4.1123-32.77-0.079z" fill="#b867aa" stroke-width="1.299"/> <path d="m-1848.8 927.97c-1.2166-4.1078-4.7325-17.56-7.8138-29.893-3.2198-12.889-7.1318-25.235-9.1998-29.036-5.3432-9.8164-17.184-23.28-24.402-27.746-5.6481-3.4943-7.6876-3.9823-18.306-4.3771-10.546-0.3926-14.431 0.1817-33.077 4.8715-41.232 10.374-54.795 7.2241-113.67-26.4-36.521-20.858-48.031-25.908-99.375-43.595-32.937-11.346-40.341-14.329-59.867-24.121-78.552-39.391-133.27-119.51-150.51-220.4-7.6106-44.523-6.4176-83.28 3.9301-127.69 2.1647-9.2877 4.8209-20.687 5.9035-25.331 2.1749-9.3343 6.9438-20.135 8.89-20.135 0.6883 0 2.8009 4.1974 4.6941 9.327 6.5789 17.822 14.068 27.682 30.312 39.908 29.868 22.479 56.575 32.965 107.93 42.376 72.328 13.254 99.78 21.043 133.8 37.964 33.449 16.637 58.875 35.531 75.071 55.786 17.055 21.329 25.976 43.995 35.416 89.978 10.27 50.027 16.168 63.756 43.546 101.36 17.912 24.604 28.09 40.29 34.921 53.821 2.2672 4.4909 4.3392 7.9483 4.6048 7.6822 0.2651-0.2652-0.3094-8.0701-1.279-17.344-5.2057-49.801-5.8479-135.79-1.3674-183.14 3.9328-41.555 11.858-89.349 20.826-125.59 1.7882-7.227 3.2512-13.868 3.2512-14.758 0-0.8931-2.1829-1.8981-4.8714-2.2428-2.6792-0.3436-12.292-1.5646-21.362-2.714-21.758-2.7573-38.417-6.415-58.203-12.781-24.127-7.7623-52.616-20.348-72.209-31.901-3.5512-2.0935-13.162-6.0252-21.358-8.7364-28.13-9.3063-29.872-11.159-23.433-24.936 4.2567-9.1105 9.6971-16.007 12.627-16.007 2.5521 0 10.449 7.4382 18.167 17.111 6.2029 7.7745 8.9106 9.8346 24.45 18.606 36.984 20.876 71.173 34.1 109.17 42.227 16.624 3.5556 39.984 6.66 41.131 5.4659 0.4861-0.5071 1.7916-4.4496 2.8988-8.7618 1.1066-4.3122 4.9818-17.757 8.6111-29.878 3.6298-12.121 6.8745-24.814 7.2108-28.208l0.6117-6.1706h-5.5503c-8.3912 0-57.388-6.0001-69.202-8.4535-24.791-5.1483-43.193-15.727-68.206-39.209-8.2207-7.7175-20.205-18.479-26.633-23.914-27.362-23.138-33.097-32.274-46.525-74.115-4.6632-14.53-14.689-45.7-22.28-69.267-8.6043-26.713-13.525-43.948-13.067-45.771 1.171-4.6672 6.007-4.8504 27.766-1.0503 32.142 5.6133 41.629 8.1005 51.056 13.384 10.749 6.0257 15.326 10.194 32.525 29.626 14.383 16.25 18.606 20.364 39.033 38.024 6.903 5.9682 15.982 14.736 20.176 19.485 9.8253 11.126 44.541 54.942 54.155 68.351 8.8188 12.301 25.043 44.451 31.137 61.702l4.3451 12.301 3.9578-12.301c2.1769-6.7655 11.891-36.502 21.586-66.082 9.6952-29.579 17.628-55.211 17.628-56.96 0-5.2922-3.8782-11.79-11.714-19.626-7.9757-7.9752-16.705-13.18-32.827-19.569-15.114-5.9904-23.286-10.4-41.13-22.192-21.564-14.25-27.046-16.889-54.152-26.069-24.341-8.2429-32.146-11.994-45.957-22.089-15.361-11.228-28.287-26.308-46.154-53.846-16.262-25.065-25.235-35.696-42.584-50.457-18.576-15.804-23.656-21.179-31.551-33.384-7.4808-11.564-12.454-23.378-18.103-43.003-3.886-13.501-5.8342-17.797-13.286-29.291-13.271-20.47-13.38-20.668-12.532-22.877 1.3918-3.6264 5.3855-3.6907 16.241-0.2603 14.437 4.5606 28.014 5.816 71.346 6.5977 42.201 0.7614 56.69 2.1587 69.246 6.6776 16.622 5.9824 27.638 13.849 47.017 33.577 19.108 19.451 26.71 25.308 42.87 33.025 19.359 9.2455 29.089 15.756 38.526 25.778 13.958 14.824 21.107 31.776 28.93 68.595 6.5844 30.994 10.014 40.807 23.786 68.065 13.249 26.219 17.699 38.636 20.241 56.477 0.9142 6.4135 2.0105 11.09 2.4371 10.392 3.182-5.2057 16.062-62.442 19.725-87.654 5.6387-38.814 6.0802-93.427 1.0501-129.9-2.5825-18.726-3.4426-21.053-14.738-39.88-5.3919-8.9868-7.5915-11.381-14.067-15.315-13.319-8.0912-28.788-14.641-42.89-18.161-14.197-3.5443-29.033-8.6838-35.724-12.376-35.131-19.39-43.066-21.237-66.778-15.554-19.376 4.6452-33.732 5.8907-46.542 4.0382-21.538-3.1142-35.96-11.368-63.852-36.543-26.146-23.599-30.372-25.522-59.9-27.255-23.142-1.3586-33.481-3.6803-48.653-10.926-13.032-6.2235-25.718-14.991-46.176-31.916-20.345-16.83-29.446-23.26-40.615-28.696-13.006-6.3295-24.619-8.2939-43.543-7.3649-28.217 1.385-40.564-2.7376-59.212-19.771-8.3396-7.6178-15.105-12.216-28.605-19.444-9.7251-5.2067-17.682-9.9235-17.682-10.482 0-2.6708 4.6838-3.7799 21.884-5.1835 21.397-1.7465 34.528-5.1882 59.955-15.715 32.861-13.604 45.266-16.809 65.058-16.809 16.978 0 32.596 3.461 59.313 13.143 26.335 9.544 31.82 10.734 45.743 9.924 8.9243-0.5195 13.898-1.7188 25.389-6.1228 31.463-12.06 31.772-12.145 44.194-12.275 10.802-0.1134 12.412 0.221 20.589 4.2444 12.043 5.929 23.461 17.057 41.879 40.817 31.405 40.516 40.173 47.219 81.047 61.961 41.291 14.894 64.122 30.665 87.141 60.196 9.5597 12.264 17.291 24.797 39.459 63.966 13.287 23.477 27.582 45.57 28.737 44.415 0.9706-0.9702-8.4766-37.296-14.555-55.965-12.134-37.268-27.446-73.034-46.201-107.92-25.954-48.273-56.688-93.435-80.615-118.46-12.22-12.782-11.712-12.445-47.051-31.248-9.9799-5.3104-19.247-10.652-20.593-11.869-3.5497-3.2128-6.0776-8.6641-6.0776-13.107 0-5.1705 8.8433-21.995 13.289-25.281 3.205-2.3695 3.8801-2.443 7.0277-0.764 1.9148 1.0218 9.38 8.2748 16.589 16.118 7.209 7.8433 23.483 24.795 36.164 37.672 24.44 24.816 36.284 38.891 52.391 62.258l9.9348 14.413-0.761-16.887c-0.9579-21.253-3.0293-29.75-11.843-48.587-3.8771-8.2856-8.5462-20.326-10.376-26.756-4.2719-15.006-4.6892-16.074-14.633-37.426-11.777-25.287-13.132-33.259-10.393-61.156 1.8896-19.248 1.8842-21.92-0.069-33.27-1.2956-7.5329-2.1086-19.426-2.0861-30.527 0.049-16.325 0.4076-19.316 3.6529-29.228 7.8186-23.873 23.835-50.29 41.016-67.652 20.751-20.97 37.494-28.194 81.189-35.032 9.2876-1.4532 25.72-4.9146 36.516-7.6915 23.765-6.1136 41.168-7.4146 44.174-3.3027 3.8581 5.276 1.7729 11.301-8.5061 24.576-12.362 15.966-16.514 25.866-21.36 50.938-5.0689 26.223-6.5427 29.364-23.783 50.694-14.62 18.087-20.178 28.898-29.013 56.434-4.2616 13.28-11.189 32.004-15.396 41.608-10.708 24.451-14.92 37.913-21.654 69.209-7.3357 34.091-8.3107 37.453-17.557 60.54-8.9847 22.435-10.816 30.966-10.096 47.031 0.4998 11.158 0.8891 12.617 5.1287 19.219 6.7926 10.579 23.098 40.039 31.994 57.807 17.719 35.389 35.794 82.494 45.234 117.89 2.0488 7.6808 4.1389 13.965 4.6445 13.965 1.1042 0 5.55-11.625 8.4915-22.204 2.8917-10.401 1.1355-17.692-8.92-37.038-15.49-29.8-19.439-46.031-19.09-78.454 0.1914-17.859-0.1081-21.016-2.6449-27.929-8.6606-23.586-9.4114-26.856-9.3957-40.919 0-9.1635 0.9265-17.689 2.7917-25.98 9.301-41.351 9.2793-40.988 3.8929-66.25-6.7582-31.696-5.0615-51.779 6.4032-75.8 4.809-10.076 12.569-21.172 31.932-45.659 3.9542-5.0016 10.094-14.733 13.645-21.626 10.15-19.711 17.77-27.814 43.432-46.195l5.8199-4.1689 1.3379 4.8184c1.685 6.0674 1.6693 12.746-0.059 24.303-0.7472 5.0016-1.5471 20.2-1.7778 33.775-0.3093 18.364-1.1208 28.312-3.1618 38.866-3.9915 20.639-3.6641 35.398 1.2913 58.191 2.716 12.493 4.2448 23.65 4.6784 34.144 0.6004 14.526 0.2749 17.403-4.755 42.218-4.0898 20.172-5.6928 31.75-6.61 47.74-1.5637 27.261-3.2979 35.101-12.768 57.728-9.9415 23.754-12.739 34.229-14.41 53.97-1.5986 18.882-4.8655 29.921-19.022 64.271-9.6564 23.432-17.398 45.879-17.398 50.449 0 1.2883 1.1736 8.295 2.6071 15.57 4.5857 23.264 7.914 54.416 8.704 81.468 0.4222 14.468 1.1198 26.3 1.5489 26.294 0.4272 0 2.1877-2.4902 3.9086-5.5209 18.166-31.993 20.343-42.111 16.922-78.64-1.7636-18.824-0.3535-28.415 8.0613-54.824 3.5281-11.074 7.2698-25.981 8.315-33.125 3.6887-25.222 4.651-29.627 7.8486-35.938 9.1606-18.078 33.626-34.053 70.615-46.108 15.505-5.0536 17.681-5.4739 19.408-3.7477 1.7257 1.7259 1.6771 2.7848-0.437 9.4449-1.6639 5.241-2.69 14.19-3.4063 29.707-0.5641 12.214-1.9978 27.12-3.1865 33.125-1.3035 6.5873-2.2952 18.905-2.5 31.053-0.2994 17.844-0.7167 21.169-3.6562 29.228-6.2177 17.046-24.076 56.327-29.05 63.897-12.01 18.279-38.557 39.535-67.504 54.051-18.445 9.2495-25.955 16.824-27.026 27.26-0.3829 3.7275-1.5352 14.377-2.5614 23.665-1.0262 9.2881-1.6521 17.108-1.3914 17.378 0.7467 0.7728 25.034-13.288 39.782-23.032 7.3719-4.8704 21.588-14.982 31.59-22.47 46.325-34.681 74.186-61.901 97.316-95.076 9.568-13.724 12.181-19.464 21.649-47.548 6.7886-20.136 9.2812-24.719 14.445-26.56 4.6564-1.6594 12.027 0.083 16.588 3.9214 7.3085 6.149 4.4972 15.887-10.64 36.855-4.384 6.0733-12.017 17.436-16.962 25.251-24.948 39.425-50.075 66.652-91.305 98.935-30.752 24.08-74.318 50.551-96.043 58.357-3.5723 1.2838-7.1342 2.9708-7.9159 3.7496-0.7811 0.7791-2.1259 5.5081-2.9881 10.509-0.8621 5.0016-3.882 18.684-6.7115 30.405-2.8295 11.722-4.863 21.593-4.5194 21.937 1.0286 1.029 7.7347-6.8039 17.325-20.236 11.729-16.428 23.359-27.88 39.446-38.841 27.829-18.962 39.212-28.167 60.987-49.319 12.424-12.068 26.388-24.476 31.032-27.574s17.966-10.241 29.606-15.874c33.694-16.306 44.815-25.298 62.554-50.576 23.74-33.829 31.096-42.081 52.68-59.089 18.354-14.463 29.401-25.345 40.351-39.75 16.906-22.241 24.886-28.981 50.58-42.724 7.1451-3.8212 19.856-11.228 28.248-16.461 8.3911-5.2318 28.193-15.937 44.005-23.788 15.811-7.8517 33.79-17.617 39.952-21.699 10.156-6.7293 24.854-20.049 32.33-29.297 3.3213-4.1084 4.5282-4.3623 7.3459-1.5441 4.2931 4.293 6.606 16.047 6.5019 33.045-0.083 13.898-0.7841 19.171-4.8532 36.594-3.0956 13.252-5.652 29.118-7.3273 45.466-4.1761 40.76-5.7581 46.311-23.449 82.266-7.0307 14.289-14.811 30.444-17.288 35.898-12.778 28.129-30.324 46.58-61.297 64.456-16.391 9.4595-63.332 32.366-78.891 38.497-8.3813 3.3027-26.795 9.2504-40.919 13.217-37.071 10.411-49.977 15.021-74.915 26.761-27.095 12.754-41.061 17.482-72.225 24.451-36.205 8.0956-46.564 10.848-88.983 23.646-47.687 14.388-55.071 16.347-66.34 17.601l-8.8699 0.9868-7.609 25.325c-4.1851 13.929-11.995 38.689-17.356 55.023-5.3608 16.334-9.5449 29.9-9.2979 30.146 0.2453 0.2455 5.347-3.0514 11.333-7.3307 31.153-22.269 73.098-40.213 108.67-46.49l12.618-2.2265 2.145-7.7386c5.6025-20.21 13.364-28.229 41.607-42.991 11.074-5.788 28.313-15.682 38.31-21.987 21.574-13.607 32.758-18.549 57.298-25.315 23.192-6.3944 34.054-10.442 58.326-21.73 36.175-16.824 54.299-20.506 95.478-19.399 38.377 1.032 56.046 4.9701 73.752 16.437 13.002 8.4211 26.94 24.128 37.737 42.528 8.7519 14.915 26.07 56.769 29.466 71.214 1.8475 7.8589 5.0849 21.068 7.1946 29.352 6.4106 25.175 5.6962 26.915-10.057 24.503-11.316-1.7326-27.454-1.007-44.563 2.0041-16.196 2.8506-27.605 2.4839-41.75-1.3418-19.902-5.3819-34.478-8.21-53.725-10.423-19.378-2.228-30.662-5.3834-53.018-14.827-24.819-10.483-37.676-12.527-89.879-14.286-32.917-1.1095-37.977-1.5883-53.26-5.0358-30.932-6.9777-49.714-8.0731-64.951-3.7884l-5.1963 1.4611 8.4437 1.0144c26.253 3.1535 40.521 7.7543 80.344 25.906 8.4836 3.8669 33.104 22.519 38.919 29.486 11.77 14.099 13.081 19.49 6.5495 26.928-5.0767 5.7822-10.04 8.4226-15.831 8.4226-5.3593 0-6.9309-2.0433-11.664-15.166-9.2459-25.632-13.356-30.428-35.314-41.213-41.157-20.214-79.909-24.31-124.08-13.113-19.892 5.0422-34.045 10.399-56.487 21.379-19.526 9.5538-49.331 27.92-54.103 33.34-5.1631 5.8631-42.022 126.64-52.876 173.25-11.101 47.68-18.726 98.707-21.545 144.19-0.6318 10.189-0.4762 11.918 0.8774 9.9165 0.9028-1.3329 7.9777-11.563 15.722-22.733 24.041-34.677 31.074-52.878 37.211-96.302 5.9794-42.311 9.8267-56.923 20.047-76.135 10.268-19.301 20.784-31.187 54.138-61.191 10.425-9.3786 25.624-24.236 33.775-33.017 27.928-30.088 32.672-34.359 44.35-39.928 18.44-8.7929 35.703-11.859 65.948-11.714 11.074 0.054 26.266 0.7719 33.761 1.5983 15.705 1.7306 17.37 3.3561 10.659 10.407-4.3093 4.5282-13.918 19.148-18.397 27.992-4.9142 9.7025-11.582 29.448-17.552 51.976-7.7436 29.222-9.1453 32.922-23.314 61.566-7.2348 14.626-14.98 32.713-18.74 43.765-8.0107 23.544-11.499 31.425-18.498 41.796-8.8371 13.094-17.514 22.398-34.257 36.731-18.911 16.189-25.053 22.68-35.096 37.086-18.898 27.11-43.332 44.189-75.751 52.949-11.871 3.2075-14.394 3.4112-43.135 3.4829-16.79 0.049-31.342 0.6009-32.338 1.2427-1.5141 0.9756-1.684 8.2066-1.0369 44.167 0.8087 44.977 1.7602 60.193 6.1804 98.859 4.3454 38.012 17.111 107.93 19.442 106.49 0.5293-0.329 1.361-2.7195 1.8485-5.3163 0.4862-2.5967 6.1519-14.908 12.588-27.358 21.557-41.7 25.103-53.359 27.769-91.32 1.9792-28.172 3.8699-37.666 10.008-50.257 7.6105-15.608 20.442-28.53 49.733-50.083 16.238-11.949 26.71-23.337 40.953-44.537 15.374-22.884 30.355-38.294 49.889-51.32 14.917-9.9466 27.135-21.128 30.866-28.245 2.374-4.5288 6.6875-5.6928 8.0397-2.1701 0.9319 2.4288 0.6795 3.5875-5.9137 27.177-2.796 10.002-7.6689 29.585-10.829 43.517-3.1598 13.932-11.003 46.668-17.43 72.746-14.85 60.257-15.487 61.674-43.212 96.095-5.8505 7.2633-11.651 16.785-17.81 29.236-7.9659 16.105-10.187 19.45-17.379 26.178-12.709 11.889-25.149 17.407-62.213 27.594-21.663 5.9544-38.341 12.073-43.088 15.807-5.3447 4.2042-9.9648 14.989-9.9648 23.264 0 3.9724 0.544 9.1186 1.2083 11.436l1.2082 4.2135h-15.222z" fill="#3b4949" stroke-width="1.299"/> <g transform="translate(-10156 -2065.7)"> <path d="m8115.7 1603.9c-15.589-11.828-20.277-29.499-11.616-43.787 8.8035-14.522 28.568-16.281 49.002-4.3593 14.099 8.2252 23.871 21.662 24.726 33.999 0.5016 7.2339-5.4578 17.176-12.844 21.43-13.289 7.6529-33.525 4.6613-49.269-7.2834z" fill="#fff" stroke-width="1.1644"/> <path d="m8133.7 1602.4c-9.1207-6.92-11.863-17.259-6.796-25.618 5.1507-8.4967 16.714-9.5255 28.67-2.5506 8.249 4.8123 13.966 12.674 14.467 19.892 0.2934 4.2324-3.1932 10.05-7.515 12.538-7.7752 4.4775-19.614 2.7272-28.826-4.2613z" fill="#ffce34" stroke-width=".68123"/> </g> <g transform="rotate(75 4507.6 -5583.2)"> <path d="m8115.7 1603.9c-15.589-11.828-20.277-29.499-11.616-43.787 8.8035-14.522 28.568-16.281 49.002-4.3593 14.099 8.2252 23.871 21.662 24.726 33.999 0.5016 7.2339-5.4578 17.176-12.844 21.43-13.289 7.6529-33.525 4.6613-49.269-7.2834z" fill="#fff" stroke-width="1.1644"/> <path d="m8133.7 1602.4c-9.1207-6.92-11.863-17.259-6.796-25.618 5.1507-8.4967 16.714-9.5255 28.67-2.5506 8.249 4.8123 13.966 12.674 14.467 19.892 0.2934 4.2324-3.1932 10.05-7.515 12.538-7.7752 4.4775-19.614 2.7272-28.826-4.2613z" fill="#ffce34" stroke-width=".68123"/> </g> <g transform="matrix(.7352 0 0 .7352 -8095.2 -837.01)"> <path d="m8115.7 1603.9c-15.589-11.828-20.277-29.499-11.616-43.787 8.8035-14.522 28.568-16.281 49.002-4.3593 14.099 8.2252 23.871 21.662 24.726 33.999 0.5016 7.2339-5.4578 17.176-12.844 21.43-13.289 7.6529-33.525 4.6613-49.269-7.2834z" fill="#fff" stroke-width="1.1644"/> <path d="m8133.7 1602.4c-9.1207-6.92-11.863-17.259-6.796-25.618 5.1507-8.4967 16.714-9.5255 28.67-2.5506 8.249 4.8123 13.966 12.674 14.467 19.892 0.2934 4.2324-3.1932 10.05-7.515 12.538-7.7752 4.4775-19.614 2.7272-28.826-4.2613z" fill="#ffce34" stroke-width=".68123"/> </g> <g transform="matrix(0 -1.0291 -1.0291 0 184.53 8753)"> <path d="m8115.7 1603.9c-15.589-11.828-20.277-29.499-11.616-43.787 8.8035-14.522 28.568-16.281 49.002-4.3593 14.099 8.2252 23.871 21.662 24.726 33.999 0.5016 7.2339-5.4578 17.176-12.844 21.43-13.289 7.6529-33.525 4.6613-49.269-7.2834z" fill="#fff" stroke-width="1.1644"/> <path d="m8133.7 1602.4c-9.1207-6.92-11.863-17.259-6.796-25.618 5.1507-8.4967 16.714-9.5255 28.67-2.5506 8.249 4.8123 13.966 12.674 14.467 19.892 0.2934 4.2324-3.1932 10.05-7.515 12.538-7.7752 4.4775-19.614 2.7272-28.826-4.2613z" fill="#ffce34" stroke-width=".68123"/> </g> </g> </svg>