<?xml version='1.0' encoding='utf-8'?>
<svg xmlns="http://www.w3.org/2000/svg" width="1322.9mm" height="1872.8mm" version="1.1" viewBox="0 0 1322.9 1872.8"> <g transform="translate(897.05 697.95)"> <g transform="translate(-12840 -1857.2)"> <path d="m11943 1159.3h1322.9v1872.8h-1322.9z" fill="#f6e9ea" stop-color="#000000" stroke-linecap="square" stroke-width="4.9" style="paint-order:markers stroke fill"/> <path d="m12019 2889.3v-35l17.205-4.2597c43.205-10.697 73.807-16.976 153.11-31.417 85.278-15.53 121.63-23.681 151.89-34.06 30.186-10.354 42.865-22.649 40.595-39.37-1.167-8.605-6.405-16.609-25.649-39.195-21.86-25.657-36.45-47.03-40.32-59.068-3.169-9.8545-0.401-17.614 10.075-28.245 8.211-8.3323 16.85-13.888 38.855-24.988 9.602-4.8434 19.999-10.48 23.104-12.525 17.686-11.649 22.818-26.709 15.965-46.848-1.367-4.0145-2.486-7.992-2.489-8.8389 0-3.5072 7.052-9.073 23.629-18.619 17.825-10.264 24.803-16.12 28.292-23.741 2.192-4.7874 2.841-11.753 1.583-16.995l-0.888-3.7003 3.407-3.0224c6.083-5.3975 18.93-13.392 49.684-30.918 16.603-9.4622 31.988-18.617 34.187-20.344 10.769-8.4576 13.649-19.079 8.283-30.547-2.801-5.9839-8.758-15.059-12.86-19.589-4.869-5.3779-12.214-10.642-23.404-16.774-5.544-3.0378-13.007-7.3025-16.585-9.4771-8.579-5.2144-17.642-9.7308-22.304-11.115-6.218-1.8465-14.34-1.254-20.068 1.4639-2.146 1.0182-2.326 1.3331-1.982 3.4548 0.209 1.284 1.492 4.6494 2.853 7.4787s2.474 5.269 2.474 5.4216c0 0.1525-4.457-0.2892-9.906-0.9815-36.046-4.5806-65.335-7.5201-74.902-7.5172-4.749 0-6.6 0.3239-9.433 1.6432-7.06 3.2874-10.909 10.927-9.453 18.76 1.534 8.2495 7.759 15.734 28.234 33.948 7.284 6.4802 13.335 12.029 13.445 12.331 0.281 0.7686-12.935 5.0483-24.53 7.9438-5.353 1.3366-21.776 4.9749-36.495 8.0851-45.801 9.6778-51.856 11.369-55.28 15.439-2.168 2.5751-2.309 7.1004-0.345 10.952 0.758 1.4851 4.464 5.9455 8.236 9.9118 11.903 12.516 13.356 15.565 8.982 18.848-11.332 8.5041-33.228 14.027-143.72 36.252-62.807 12.633-90.59 18.568-117.4 25.079-8.557 2.0781-15.674 3.7784-15.815 3.7784s-0.257-49.615-0.257-110.26c0-89.685 0.167-110.19 0.896-109.91 2.313 0.8876 19.814 5.7298 28.26 7.8192 25.964 6.4227 43 7.7664 56.695 4.4715 11.714-2.8183 21.883-11.249 27.672-22.94 4.204-8.491 6.916-19.193 8.82-34.806 0.811-6.6492 1.935-15.843 2.498-20.431 1.22-9.9379 3.35-18.307 5.445-21.393 1.404-2.0685 1.816-2.2413 5.307-2.2308 4.919 0.016 9.969 2.4119 28.202 13.387 16.685 10.044 48.07 27.319 59.695 32.857 13.694 6.5244 18.72 7.9447 28.153 7.956 7.23 0.01 8.374-0.1686 11.971-1.8542 5.204-2.4394 9.241-6.6915 13.024-13.72 1.69-3.1399 3.659-6.023 4.377-6.4068 1.735-0.9285 10.136-0.8615 15.023 0.1197 6.277 1.2606 10.841 2.687 21.61 6.7545 20.641 7.7958 30.658 9.6764 44.997 8.4474 17.913-1.5354 32.922-8.0688 36.128-15.727 3.479-8.3099-1.933-17.252-18.011-29.759-15.998-12.445-23.681-17.126-51.431-31.338-25.345-12.979-30.049-15.896-42.876-26.576-10.749-8.9513-16.009-11.929-21.066-11.929-3.979 0-5.538 0.6864-8.941 3.9362l-2.494 2.3816-7.585-4.9943c-12.958-8.5308-20.452-14.054-38.299-28.228-33.343-26.48-39.388-29.834-59.938-33.261-17.783-2.9648-28.956-6.3817-43.184-13.208-11.366-5.4527-14.815-6.0985-19.408-3.6346-4.036 2.1648-7.025 6.6458-12.759 19.122-6.222 13.543-10.359 20.295-16.359 26.696-14.3 15.26-29.82 13.417-52.772-6.2642l-3.65-3.1294v-219.56l7.473 11.889c22.592 35.942 48.762 67.388 62.756 75.407 7.058 4.0443 15.224 3.1222 20.682-2.3351 6.713-6.7124 9.685-16.059 17.242-54.211 3.217-16.249 7.078-33.767 8.58-38.928 3.152-10.843 7.461-21.55 8.672-21.55 1.372 0 10.144 7.8278 15.468 13.803 2.735 3.0691 9.77 11.464 15.634 18.655 12.23 14.998 24.686 27.89 28.75 29.757 4.747 2.1809 8.796 2.189 13.217 0.027 5.024-2.4582 7.368-6.3954 9.059-15.22 1.935-10.09 1.467-9.9557 7.388-2.1286 2.869 3.7926 8.756 12.057 13.083 18.366 9.422 13.735 10.001 14.423 13.56 16.065 8.21 3.7894 17.03-2.0058 17.03-11.19 0-5.463-6.133-26.061-10.994-36.927-1.093-2.4437-2.185-6.3435-2.425-8.6662-1.825-17.644-25.053-56.668-40.734-68.433-5.365-4.0256-9.324-5.5479-14.428-5.5479-4.608 0-8.041 1.3367-15.493 6.0327-3.23 2.0347-6.269 3.6993-6.754 3.6993-1.847 0-6.109-4.6764-7.942-8.7141-1.048-2.3077-3.836-10.597-6.197-18.421-6.915-22.916-10.12-30.62-19.652-47.245-11.535-20.118-18.371-26.416-28.673-26.416-5.477 0-11.399 3.2264-14.903 8.1192-1.512 2.1114-3.106 4.9225-3.543 6.247-0.776 2.3502-0.829 2.3781-2.178 1.157-3.245-2.9368-27.78-36.178-64.402-87.256l-20.28-28.286 0.176-114.35 0.175-114.35 13.208 8.518c7.264 4.6849 19.778 12.54 27.806 17.456 32.123 19.668 49.669 31.224 49.692 32.726 0 0.409-4.39 3.7995-9.77 7.5343-22.553 15.656-32.116 26.338-33.946 37.919-1.218 7.7045 2.007 16.389 8.589 23.131 8.09 8.2864 14.164 12.528 62.944 43.959 49.578 31.945 75.076 49.28 75.076 51.042 0 0.3456-1.915 2.7411-4.255 5.3235-13.467 14.86-16.422 29.135-9.252 44.689 3.359 7.286 7.489 12.739 15.359 20.28 10.515 10.075 20.187 16.085 44.723 27.79 21.762 10.382 29.891 15.382 29.891 18.385 0 0.8685-2.541 5.1434-5.646 9.4998-9.488 13.311-12.284 21.204-11.524 32.54 0.717 10.671 5.737 24.947 11.532 32.795 6.172 8.3568 20.16 17.315 34.491 22.091 10.915 3.6372 16.874 4.5504 29.887 4.5805l11.817 0.028 14.895-5.0456c16.269-5.5113 19.886-7.2654 22.766-11.042 2.647-3.4704 3.081-9.7747 0.998-14.484-2.154-4.8699-6.713-10.926-14.33-19.037l-6.766-7.2043 6.449-3.4061c12.306-6.4999 26.159-16.757 32.823-24.304 11.549-13.076 13.624-24.85 6.804-38.613-5.401-10.901-15.987-20.267-40.356-35.705-33.575-21.27-69.779-45.918-81.787-55.681-12.476-10.142-22.413-21.012-23.547-25.758-1.014-4.2447 7.666-10.568 26.229-19.107 24.143-11.106 33.33-16.302 39.199-22.171 1.74-1.7401 3.611-4.2354 4.159-5.5451 1.367-3.2738 1.221-8.4782-0.333-11.81-3.253-6.978-16.19-19.578-43.575-42.444-15.596-13.021-21.831-18.989-21.831-20.892 0-1.4162 6.107-2.8578 18.768-4.4295 12.805-1.5895 16.689-2.6341 20.758-5.5815 6.646-4.8144 8.752-14.185 5.709-25.399-3.109-11.454-14.068-30.71-26.289-46.191-2.867-3.6322-12.76-14.115-21.985-23.296-17.393-17.309-38.932-37.005-105.07-96.082l-4.849-4.3313 263.86-0.026-0.756 1.4132c-2.009 3.7542-7.273 17.871-9.446 25.337-3.571 12.262-5.141 22.482-5.141 33.478 0 14.639 2.464 23.868 9.036 33.852 7.077 10.751 14.158 16.939 36.859 32.212 17.713 11.918 23.461 16.825 28.459 24.298 6.781 10.139 8.305 20.764 4.579 31.931-1.029 3.0841-4.823 11.217-8.43 18.074-21.864 41.554-28.102 56.818-31.615 77.358-4.726 27.633 2.585 44.065 25.741 57.853 14.792 8.808 17.689 12.982 17.575 25.321-0.07 7.5201-1.776 16.228-6.813 34.757-4.763 17.521-6.282 24.557-7.271 33.663-0.939 8.6505-0.449 13.283 1.821 17.226 1.694 2.9428 3.355 3.9712 13.513 8.3662 7.301 3.159 10.271 7.8567 8.928 14.119-0.39 1.8226-5.631 13.118-11.647 25.1-13.267 26.427-17.476 38.481-17.476 50.054 0 11.823 8.976 14.683 20.839 6.6405 5.515-3.7396 11.108-8.635 27.126-23.746 8.602-8.1153 24.244-22.596 34.758-32.179 28.394-25.881 38.07-36.09 42.474-44.813 5.002-9.9096 2.611-18.619-6.36-23.165-6.757-3.4241-17.106-3.8964-37.505-1.7116-7.072 0.7577-12.938 1.3783-13.034 1.3792-1.209 0.012 1.145-4.6777 7.39-14.717 13.517-21.73 24.248-41.092 36.637-66.1 14.761-29.796 19.297-45.66 16.127-56.392-1.074-3.6333-6.847-9.5063-10.625-10.808-1.92-0.6617-8.197-1.0859-20.299-1.3718-10.796-0.255-17.8-0.6951-18.25-1.1467-2.016-2.0185 5.706-18.015 25.306-52.431 39.895-70.05 47.195-85.32 46.058-96.338-1.13-10.95-10.716-17.362-20.693-13.842-4 1.4112-8.538 4.9266-18.063 13.99-8.616 8.1995-8.596 8.1165 1.618-6.7064 14.409-20.912 26.595-36.5 88.436-113.12l6.257-7.7515 137.73-0.084 1.654 3.9909c1.163 2.8063 3.019 5.334 6.251 8.5156 7.447 7.3314 19.11 13.11 40.838 20.234 5.065 1.6609 9.21 3.2137 9.21 3.4505 0 0.2369-5.083 1.766-11.296 3.3978-14.676 3.8549-34.022 10.267-41.753 13.839-12.319 5.6913-21.045 13.04-24.671 20.778-1.652 3.5246-1.871 4.8234-1.849 10.95 0.02 5.5685 0.339 7.7447 1.61 10.938 3.7 9.3034 11.978 18.722 31.273 35.582 6.529 5.705 12.056 10.854 12.282 11.441 0.568 1.4805-0.653 2.2845-15.488 10.2-16.336 8.7163-27.461 15.295-32.751 19.365-18.548 14.272-22.43 34.548-10.995 57.426 2.002 4.0062 6.584 11.976 10.181 17.711 10.559 16.83 14.271 26.318 12.982 33.176-1.571 8.3591-13.364 16.638-43.876 30.8-47.268 21.938-52.415 24.632-58.407 30.564-1.931 1.9115-4.11 4.7269-4.843 6.2562-1.88 3.9246-2.23 11.394-0.719 15.35 1.488 3.8969 5.59 9.1422 8.928 11.416 1.401 0.9545 2.548 2.0482 2.549 2.4306 0 0.3823-1.944 2.2592-4.324 4.1709-13.804 11.088-26.972 24.697-47.586 49.178-7.506 8.9146-16.257 18.337-22.918 24.678-12.904 12.282-17.448 17.675-21.451 25.454-4.672 9.0792-4.857 15.543-0.605 21.118 3.016 3.954 6.569 5.287 14.944 5.6068 14.304 0.5462 30.337-2.9224 51.148-11.065 11.783-4.6102 18.146-6.5454 39.624-12.05 47.532-12.182 54.267-14.96 56.516-23.31 1.537-5.7073-1.316-11.658-9.776-20.395-3.012-3.1107-5.25-5.8672-4.974-6.1255 1.553-1.4502 45.782-10.807 71.756-15.18 38.803-6.5329 53.903-9.7969 67.536-14.599 19.247-6.7793 29.148-16.804 29.059-29.419-0.06-8.5092-3.164-13.683-16.886-28.149-14.731-15.532-22.743-26.647-21.66-30.055 1.135-3.5771 12.481-9.6142 24.684-13.134 4.019-1.1596 18.309-4.3008 31.752-6.9805 33.024-6.5824 41.293-9.3006 48.337-15.889 4.5-4.2097 6.226-7.7032 6.638-13.437 0.466-6.4965-0.717-10.503-5.436-18.398-2.261-3.7828-4.117-7.4033-4.125-8.0455 0-0.6715 2.737-3.2366 6.462-6.0365 35.754-26.873 83.731-47.851 136.27-59.585 10.533-2.3524 34.41-6.5798 43.026-7.6177l3.997-0.4816v131.23l-5.734 5.6419c-6.204 6.1023-11.911 10.663-13.344 10.663-0.494 0-3.011-4.2536-5.595-9.4526-5.74-11.55-10.46-17.084-17.119-20.073-3.784-1.6983-4.908-1.8874-9.601-1.6158-6.704 0.3882-11.131 2.6481-16.46 8.4037-6.348 6.8571-19.28 27.388-40.591 64.446-14.307 24.876-21.891 37.658-23.41 39.453-0.697 0.8224-4.461 2.754-8.365 4.2924-17.984 7.0859-46.719 21.036-60.936 29.582-13.261 7.9712-19.25 13.64-22.733 21.512-2.548 5.7615-2.926 10.663-2.011 26.115 0.955 16.11 0.634 18.57-2.944 22.646-4.582 5.2187-23.903 13.036-46.435 18.787-25.501 6.509-55.038 17.9-64.805 24.991-5.556 4.0339-7.491 10.028-4.959 15.364 2.632 5.5454 7.714 7.2967 29.794 10.266 14.315 1.9253 25.849 4.0286 38.58 7.0348 9.085 2.1452 20.664 3.4808 41.776 4.8185 9.022 0.5716 23.098 1.9663 31.282 3.0994 54.537 7.5513 74.532 9.5439 84.473 8.4177 10.985-1.2445 16.308-3.5735 21.95-9.605 4.048-4.3277 5.486-7.1646 9.344-18.427 4.693-13.701 8.58-18.639 21.229-26.969 14-9.2196 32.395-16.918 64.702-27.078l1.912-0.6012v38.553l-6.777 5.5122c-43.779 35.604-76.137 62.813-101.44 85.3-28.227 25.083-45.401 39.137-47.121 38.563-0.381-0.1269-1.073-2.5025-1.538-5.279-2.955-17.649-11.615-27.321-24.535-27.399-8.065-0.049-14.826 3.2642-26.269 12.873-7.749 6.5062-23.199 21.918-28.627 28.558-2.428 2.9698-4.574 5.241-4.769 5.0469-0.193-0.1939-1.261-2.6146-2.372-5.3791-6.134-15.268-13.716-21.385-25.412-20.5-10.218 0.7729-21.79 8.1154-35.956 22.815-13.013 13.503-26.035 31.346-37.734 51.705-7.561 13.158-9.415 15.972-17.173 26.068-22.735 29.587-40.869 61.352-50.088 87.739-5.233 14.974-3.484 23.884 5.508 28.071 10.455 4.8686 14.436 2.5812 74.504-42.811 5.377-4.0627 15.23-10.629 21.898-14.592 6.667-3.9628 16.814-10.232 22.548-13.932 13.339-8.6049 19.16-11.961 27.79-16.023 15.382-7.2386 25.991-9.7222 31.124-7.2862 1.377 0.6534 6.127 5.047 10.556 9.7638 9.581 10.203 12.185 11.775 19.509 11.776 6.207 4e-4 10.541-1.9577 23.348-10.548 15.038-10.086 22.102-13.394 28.593-13.385 10.312 0.013 14.524 4.8906 26.941 31.197 11.319 23.978 14.742 28.931 22.713 32.855 3.926 1.9329 5.275 2.2385 9.869 2.2348 7.554-0.01 12.779-2.5804 19.415-9.5666 8.816-9.2817 16.468-21.764 36.612-59.728 4.707-8.8693 4.17-8.9359 10.831 1.3465 5.065 7.8197 10.388 18.079 14.791 28.513l3.266 7.7392v120.3l-2.37 5.5387c-2.284 5.3367-8.836 24.814-16.417 48.806-7.627 24.132-18.627 52.029-20.148 51.089-0.722-0.4465-1.904-10.785-3.136-27.454-2.91-39.322-8.319-55.76-21.003-63.813-17.215-10.931-38.471-0.4902-51.888 25.489-1.843 3.5679-3.602 6.2212-3.908 5.8958-0.308-0.3252-2.19-4.1888-4.182-8.5856-10.945-24.143-25.672-51.114-34.351-62.911-4.698-6.3845-14.576-16.771-19.165-20.152-8.883-6.5439-18.362-9.6425-29.542-9.6566-11.766-0.016-20.789 2.4374-34.426 9.3578-15.905 8.0703-31.272 20.016-54.901 42.678-25.484 24.441-30.655 27.644-36.433 22.571-2.85-2.5025-5.972-7.321-13.241-20.437-9.264-16.719-14.19-22.807-21.331-26.366-7.481-3.7278-16.625-1.8105-24.431 5.1229-8.616 7.6531-28.348 37.807-41.178 62.925l-4.972 9.7358-0.392 7.9904c-0.464 9.4845 0.31 18.281 2.042 23.197 2.683 7.6158 10.421 13.019 17.113 11.949 4.237-0.6776 6.508-2.1811 13.72-9.0823 3.696-3.536 9.031-8.0694 11.858-10.074 5.427-3.85 12.698-7.6509 14.636-7.6518 0.636-3e-4 4.471 2.6459 8.521 5.8806 8.836 7.0554 15.257 10.97 22.087 13.465 4.515 1.6496 6.043 1.8523 13.768 1.8273 8.273-0.027 9.106-0.1654 17.379-2.8924 4.779-1.5753 12.859-3.9837 17.955-5.352 5.097-1.3683 11.944-3.7423 15.217-5.2755 3.271-1.5333 6.651-2.7878 7.509-2.7878 2.103 0 5.284 3.6502 12.22 14.026 6.355 9.5056 13.246 16.912 18.004 19.349 4.229 2.1671 11.6 2.6442 16.926 1.0957 2.176-0.6325 8.366-3.3293 13.757-5.9926 5.389-2.6634 10.217-4.8425 10.726-4.8425 1.35 0 4.414 4.7666 9.164 14.25 6.16 12.303 11.779 25.541 29.362 69.167 39.772 98.685 59.155 143.6 78.591 182.13 26.805 53.129 53.807 95.283 81.882 127.82l4.978 5.7714-0.06 152.46-1.745-2.0854c-5.09-6.0874-14.268-20.442-22.062-34.508-15.763-28.445-26.309-53.049-46.101-107.55-16.779-46.208-23.168-61.766-31.161-75.883-12.903-22.788-26.028-32.624-43.568-32.648-7.611-0.01-14.575 1.943-26.728 7.4993-11.538 5.2743-13.642 5.9408-18.782 5.9519-6.575 0.014-10.975-2.466-19.434-10.956-15.624-15.681-29.342-41.999-41.882-80.36-5.469-16.729-9.213-29.881-20.282-71.252-22.115-82.648-27.552-97.349-41.02-110.91-8.866-8.9274-17.324-12.445-29.974-12.467-25.733-0.044-55.88 15.722-95.375 49.88-6.019 5.2052-7.715 6.3448-8.49 5.7022-1.3-1.0792-4.384-9.1931-10.163-26.742-5.314-16.135-8.907-24.204-12.774-28.7-5.158-5.995-11.954-7.5763-18.749-4.3623-4.508 2.1328-15.621 13.384-19.812 20.058-1.72 2.7404-5.356 8.4218-8.08 12.625-5.598 8.6379-8.147 14.833-9.652 23.465-1.755 10.065-0.92 21.505 1.976 27.077 1.955 3.76 6.097 7.1671 10.158 8.3547 3.475 1.0166 4.26 1.0261 7.857 0.095 2.198-0.5689 4.153-0.8776 4.345-0.686 0.191 0.1916 0.351 2.564 0.355 5.2723 0 6.5031 1.724 21.853 3.479 31.127 3.745 19.791 10.21 30.689 20.514 34.586 3.511 1.3276 5.068 1.517 10.062 1.2242 5.057-0.2963 12.177-2.0355 17.445-4.261 0.961-0.4066 1.166 0.5645 1.556 7.385 0.247 4.3194 0.923 9.8315 1.503 12.249 3.516 14.662 13.286 23.417 27.093 24.279 11.078 0.6911 20.578-2.1815 39.815-12.038 12.212-6.2573 19.987-9.3374 23.57-9.3374 2.564 0 4.828 2.9519 9.33 12.165 9.588 19.622 12.041 32.607 16.604 87.936 4.429 53.702 7.135 100.15 8.363 143.55 1.671 59.113 2.791 68.396 9.285 77.01 3.343 4.4321 7.323 6.1975 13.352 5.9227 7.846-0.3576 10.279-2.1816 32.286-24.214 10.514-10.526 20.141-19.698 21.394-20.382l2.276-1.2445 1.313 3.0038c2.538 5.8078 7.009 29.222 11.854 62.091 2.025 13.734 9.735 70.295 9.738 71.426 0 0.2867-46.416 0.5213-103.14 0.5213h-103.14l-1.523-4.0704c-1.959-5.2391-6.946-12.999-12.501-19.452-8.788-10.21-19.454-18.36-49.603-37.903-7.745-5.0214-8.147-5.3953-7.393-6.8737 0.441-0.86 8.847-9.5404 18.684-19.29 23.423-23.219 27.783-29.461 27.82-39.82 0.03-7.6374-2.972-12.738-10.655-18.123-6.263-4.3898-10.61-6.6568-26.268-13.701-18.484-8.3147-24.164-11.633-30.209-17.644-6.572-6.5353-7.602-9.4226-7.449-20.893 0.138-10.399 1.375-17.511 9.247-53.171 9.67-43.8 12.343-61.843 11.634-78.559-0.827-19.519-5.703-29.892-19.495-41.478-8.089-6.7945-16.077-11.966-28.449-18.416-10.715-5.5867-16.255-9.9788-18.521-14.684-1.801-3.7409-3.138-14.699-2.561-21.005 1.197-13.077 4.29-23.535 17.067-57.697 11.013-29.446 12.03-32.638 12.076-37.886 0.04-4.7298-1.43-7.6713-4.914-9.8239-7.861-4.8584-22.851 1.8813-38.666 17.384-4.144 4.0619-9.658 10.044-12.254 13.294-11.703 14.647-26.516 40.583-28.489 49.882-1.09 5.1382-0.639 10.163 1.244 13.855 1.362 2.6691 6.542 7.9466 11.406 11.621 1.434 1.0828 2.607 2.2682 2.607 2.6342 0 0.3661-5.513 8.3492-12.251 17.74-32.895 45.848-37.998 56.897-31.674 68.58 2.063 3.8091 4.53 5.9311 9.554 8.2155 5.192 2.3614 14.795 2.0787 29.158-0.8582 14.324-2.929 22.769-3.17 27.606-0.7876 7.699 3.792 8.619 12.264 2.888 26.584-2.342 5.85-2.747 6.3742-12.98 16.779-10.843 11.025-16.228 15.192-28.984 22.432-10.036 5.696-22.99 14.452-29.62 20.021-12.725 10.689-23.636 25.891-26.441 36.837-2.272 8.8673 0.549 18.773 7.053 24.768 1.721 1.5859 3.128 3.2943 3.128 3.7965 0 1.1481-3.669 6.3698-11.06 15.742-6.568 8.3286-21.808 31.047-40.033 59.678-6.882 10.811-22.053 34.11-33.715 51.775-11.661 17.665-23.705 36.256-26.763 41.314l-5.561 9.196h-377.12v-35zm601.69-549c2.74-1.0251 5.379-2.8458 8.791-6.0649 8.13-7.6696 12.01-13.79 31.138-49.124 14.525-26.832 27.464-50.108 44.631-80.29 17.383-30.564 26.862-47.569 44.362-79.594 8.148-14.911 19.023-34.606 24.169-43.768 24.98-44.487 43.496-81.428 51.751-103.26 7.337-19.397 12.606-39.875 15.206-59.087 1.248-9.2191 1.075-25.977-0.348-33.878-4.472-24.824-14.719-42.177-31.2-52.839-13.819-8.9393-37.516-17.164-57.513-19.962-9.31-1.3025-31.237-1.49-42.397-0.3625-35.62 3.5989-60.797 10.678-84.206 23.676-19.41 10.778-27.768 16.659-43.498 30.613-17.166 15.227-32.247 36.277-46.829 65.366l-4.162 8.3035-8.146-7.6462c-22.839-21.436-43.564-33.974-77.229-46.724-25.273-9.5715-42.546-13.084-64.469-13.109-16.946-0.019-27.657 2.0399-39.651 7.6234-16.69 7.7703-31.117 20.808-43.467 39.285-13.212 19.768-21.83 43.529-25.716 70.905-1.289 9.0867-1.074 31.705 0.385 40.318 5.63 33.265 19.191 57.394 49.06 87.291 20.307 20.326 31.189 28.796 75.807 59.003 38.176 25.844 60.51 42.42 106.36 78.937 20.592 16.4 26.937 22.068 51.446 45.956 26.287 25.621 38.876 35.478 49.697 38.915 4.429 1.4064 11.543 1.1894 16.03-0.489z" fill="#b33d57"/> </g> </g> </svg>